<svg width="55" height="55" viewBox="0 0 55 55" fill="none" xmlns="http://www.w3.org/2000/svg">
    <path
        d="M53.0295 8.84555L46.1545 1.97055C45.9933 1.80937 45.7748 1.7188 45.5469 1.71875H19.7656C19.0819 1.71875 18.4261 1.99037 17.9426 2.47387C17.4591 2.95736 17.1875 3.61311 17.1875 4.29688V25.7812H12.8906C12.6627 25.7812 12.4441 25.8718 12.283 26.033C12.1218 26.1941 12.0312 26.4127 12.0312 26.6406V30.0781C12.0312 30.306 12.1218 30.5246 12.283 30.6858C12.4441 30.847 12.6627 30.9375 12.8906 30.9375H13.75V32.6562H4.29688C4.06895 32.6562 3.85037 32.7468 3.68921 32.908C3.52804 33.0691 3.4375 33.2877 3.4375 33.5156V36.9531C3.4375 37.181 3.52804 37.3996 3.68921 37.5608C3.85037 37.722 4.06895 37.8125 4.29688 37.8125H5.15625V51.5625H1.71875V53.2812H44.6875V51.5625H41.25V49.8438H50.7031C51.3869 49.8438 52.0426 49.5721 52.5261 49.0886C53.0096 48.6051 53.2812 47.9494 53.2812 47.2656V9.45312C53.2812 9.22522 53.1906 9.00667 53.0295 8.84555ZM46.4062 4.65266L50.3473 8.59375H47.2656C47.0377 8.59375 46.8191 8.50321 46.658 8.34204C46.4968 8.18088 46.4062 7.9623 46.4062 7.73438V4.65266ZM13.75 27.5H32.6562V29.2188H13.75V27.5ZM32.6562 36.0938V34.375H41.25V36.0938H32.6562ZM30.9375 30.9375V51.5625H26.6406V48.125H27.5V46.4062H18.9062V48.125H19.7656V51.5625H15.4688V30.9375H30.9375ZM24.9219 48.125V51.5625H21.4844V48.125H24.9219ZM5.15625 34.375H13.75V36.0938H5.15625V34.375ZM6.875 37.8125H13.75V51.5625H6.875V37.8125ZM32.6562 51.5625V37.8125H39.5312V51.5625H32.6562ZM50.7031 48.125H41.25V37.8125H42.1094C42.3373 37.8125 42.5559 37.722 42.717 37.5608C42.8782 37.3996 42.9688 37.181 42.9688 36.9531V33.5156C42.9688 33.2877 42.8782 33.0691 42.717 32.908C42.5559 32.7468 42.3373 32.6562 42.1094 32.6562H32.6562V30.9375H33.5156C33.7435 30.9375 33.9621 30.847 34.1233 30.6858C34.2845 30.5246 34.375 30.306 34.375 30.0781V26.6406C34.375 26.4127 34.2845 26.1941 34.1233 26.033C33.9621 25.8718 33.7435 25.7812 33.5156 25.7812H18.9062V4.29688C18.9062 4.06895 18.9968 3.85037 19.158 3.68921C19.3191 3.52804 19.5377 3.4375 19.7656 3.4375H44.6875V7.73438C44.6875 8.41814 44.9591 9.07389 45.4426 9.55738C45.9261 10.0409 46.5819 10.3125 47.2656 10.3125H51.5625V47.2656C51.5625 47.4935 51.472 47.7121 51.3108 47.8733C51.1496 48.0345 50.931 48.125 50.7031 48.125Z"
        fill="currentColor" />
    <path d="M17.1875 32.6562H18.9062V34.375H17.1875V32.6562Z" fill="currentColor" />
    <path d="M20.625 32.6562H22.3438V34.375H20.625V32.6562Z" fill="currentColor" />
    <path d="M24.0625 32.6562H25.7812V34.375H24.0625V32.6562Z" fill="currentColor" />
    <path d="M27.5 32.6562H29.2188V34.375H27.5V32.6562Z" fill="currentColor" />
    <path d="M17.1875 36.0938H18.9062V37.8125H17.1875V36.0938Z" fill="currentColor" />
    <path d="M20.625 36.0938H22.3438V37.8125H20.625V36.0938Z" fill="currentColor" />
    <path d="M24.0625 36.0938H25.7812V37.8125H24.0625V36.0938Z" fill="currentColor" />
    <path d="M27.5 36.0938H29.2188V37.8125H27.5V36.0938Z" fill="currentColor" />
    <path d="M17.1875 39.5312H18.9062V41.25H17.1875V39.5312Z" fill="currentColor" />
    <path d="M20.625 39.5312H22.3438V41.25H20.625V39.5312Z" fill="currentColor" />
    <path d="M24.0625 39.5312H25.7812V41.25H24.0625V39.5312Z" fill="currentColor" />
    <path d="M27.5 39.5312H29.2188V41.25H27.5V39.5312Z" fill="currentColor" />
    <path d="M17.1875 42.9688H18.9062V44.6875H17.1875V42.9688Z" fill="currentColor" />
    <path d="M20.625 42.9688H22.3438V44.6875H20.625V42.9688Z" fill="currentColor" />
    <path d="M24.0625 42.9688H25.7812V44.6875H24.0625V42.9688Z" fill="currentColor" />
    <path d="M27.5 42.9688H29.2188V44.6875H27.5V42.9688Z" fill="currentColor" />
    <path d="M34.375 39.5312H37.8125V41.25H34.375V39.5312Z" fill="currentColor" />
    <path d="M34.375 42.9688H37.8125V44.6875H34.375V42.9688Z" fill="currentColor" />
    <path d="M34.375 46.4062H37.8125V48.125H34.375V46.4062Z" fill="currentColor" />
    <path d="M8.59375 39.5312H12.0312V41.25H8.59375V39.5312Z" fill="currentColor" />
    <path d="M8.59375 42.9688H12.0312V44.6875H8.59375V42.9688Z" fill="currentColor" />
    <path d="M8.59375 46.4062H12.0312V48.125H8.59375V46.4062Z" fill="currentColor" />
    <path d="M23.3105 10.8496H31.9043V12.5684H23.3105V10.8496Z" fill="currentColor" />
    <path d="M23.3105 7.41211H25.0293V9.13086H23.3105V7.41211Z" fill="currentColor" />
    <path d="M26.748 7.41211H28.4668V9.13086H26.748V7.41211Z" fill="currentColor" />
    <path d="M30.1855 7.41211H31.9043V9.13086H30.1855V7.41211Z" fill="currentColor" />
    <path d="M23.3105 15.3613H46.1914V17.0801H23.3105V15.3613Z" fill="currentColor" />
    <path d="M23.3105 18.7988H46.1914V20.5176H23.3105V18.7988Z" fill="currentColor" />
    <path d="M23.3105 22.2363H46.1914V23.9551H23.3105V22.2363Z" fill="currentColor" />
</svg>