<svg width="55" height="55" viewBox="0 0 55 55" fill="none" xmlns="http://www.w3.org/2000/svg">
    <g clip-path="url(#clip0)">
        <path fill="currentColor"
            d="M19.2449 18.3333C19.2449 15.2958 16.7825 12.8333 13.7449 12.8333C10.7074 12.8333 8.24493 15.2958 8.24493 18.3333C8.24493 21.3709 10.7074 23.8333 13.7449 23.8333C16.7812 23.8303 19.2419 21.3696 19.2449 18.3333ZM10.0783 18.3333C10.0783 16.3083 11.7199 14.6667 13.7449 14.6667C15.77 14.6667 17.4116 16.3083 17.4116 18.3333C17.4116 20.3584 15.77 22 13.7449 22C12.7725 22 11.8398 21.6137 11.1522 20.9261C10.4646 20.2384 10.0783 19.3058 10.0783 18.3333Z" />
        <path fill="currentColor"
            d="M53.1616 11.9167H23.8283V11C23.8234 9.83878 23.0897 8.80573 21.9949 8.41867V5.5C21.9919 2.46369 19.5312 0.00303177 16.4949 0H10.9949C7.95861 0.00303177 5.49795 2.46369 5.49492 5.5V8.41867C4.4001 8.80573 3.6664 9.83878 3.66159 11V28.4167C3.66159 29.9355 4.8928 31.1667 6.41159 31.1667H7.51159L0.104002 52.558C-0.0931444 53.1181 -0.00679257 53.7391 0.335711 54.2241C0.678215 54.7092 1.23445 54.9984 1.82825 55H3.77159C4.55496 55.0021 5.25382 54.5081 5.51325 53.7689L10.9949 37.9253V48.5833C10.9949 49.5959 11.8157 50.4167 12.8283 50.4167H14.6616C15.6741 50.4167 16.4949 49.5959 16.4949 48.5833V37.9262L21.9821 53.7726C22.2423 54.509 22.939 55.0011 23.7201 55H25.6616C26.2544 54.9988 26.8101 54.711 27.1532 54.2275C27.4962 53.7439 27.5843 53.1244 27.3895 52.5644L23.7916 42.1667H29.375C29.8633 49.0584 35.7229 54.3249 42.6275 54.0779C49.5322 53.8309 55.0004 48.159 54.9949 41.25C54.9949 41.0245 54.9729 40.8054 54.961 40.5827C54.9785 40.5005 54.9898 40.4172 54.9949 40.3333V13.75C54.9949 12.7375 54.1741 11.9167 53.1616 11.9167ZM38.4949 17.4167V19.6717C38.4977 20.288 38.807 20.8626 39.3199 21.2043L49.4949 27.9877V30.7303C47.3468 29.2229 44.7859 28.4149 42.1616 28.4167C41.9104 28.4167 41.6648 28.4405 41.4173 28.4543L36.5122 25.0837C36.2051 24.8654 35.8375 24.7488 35.4608 24.75H29.3283V17.4167H38.4949ZM49.4949 17.4167V25.7868L40.3283 19.6717V17.4167H49.4949ZM31.1616 34.6738C30.7802 35.3086 30.4548 35.9754 30.189 36.6667H26.5783V33H31.1616V34.6738ZM32.9949 26.5833H35.4635L38.7983 28.875C36.5948 29.4753 34.5914 30.6528 32.9949 32.2859V26.5833ZM29.3283 26.5833H31.1616V31.1667H26.5783C25.5657 31.1667 24.7449 31.9875 24.7449 33V36.6667H21.8877L19.9838 31.1667H21.0783C22.597 31.1667 23.8283 29.9355 23.8283 28.4167V17.4167H27.4949V24.75C27.4949 25.7625 28.3157 26.5833 29.3283 26.5833ZM10.9949 1.83333H16.4949C18.52 1.83333 20.1616 3.47496 20.1616 5.5V8.25H18.3283V5.5C18.3283 4.48748 17.5074 3.66667 16.4949 3.66667H10.9949C9.9824 3.66667 9.16159 4.48748 9.16159 5.5V8.25H7.32825V5.5C7.32825 3.47496 8.96988 1.83333 10.9949 1.83333ZM16.4949 8.25H10.9949V5.5H16.4949V8.25ZM5.49492 28.4167V27.5H10.0783C10.5845 27.5 10.9949 27.0896 10.9949 26.5833C10.9949 26.0771 10.5845 25.6667 10.0783 25.6667H5.49492V11C5.49492 10.4937 5.90533 10.0833 6.41159 10.0833H21.0783C21.5845 10.0833 21.9949 10.4937 21.9949 11V12.8242V12.8333V12.8425V16.4908V16.5V16.5092V25.6667H17.4116C16.9053 25.6667 16.4949 26.0771 16.4949 26.5833C16.4949 27.0896 16.9053 27.5 17.4116 27.5H21.9949V28.4167C21.9949 28.9229 21.5845 29.3333 21.0783 29.3333H6.41159C5.90533 29.3333 5.49492 28.9229 5.49492 28.4167ZM3.77342 53.1667H1.83467L9.4485 31.1667H10.9949V32.3235L3.77342 53.1667ZM12.8283 48.5833V31.1667H14.6616V48.5833H12.8283ZM23.7128 53.1667L16.4949 32.3235V31.1667H18.0441L20.3889 37.9363V37.9418L21.6448 41.5681C21.6521 41.5864 21.6558 41.6057 21.664 41.624L25.6616 53.1667H23.7128ZM22.5211 38.5H29.6308C29.5004 39.104 29.4143 39.7168 29.3732 40.3333H23.1573L22.5211 38.5ZM42.1616 52.25C36.0865 52.25 31.1616 47.3251 31.1616 41.25C31.1616 35.1749 36.0865 30.25 42.1616 30.25C48.2367 30.25 53.1616 35.1749 53.1616 41.25C53.155 47.3224 48.234 52.2434 42.1616 52.25ZM51.3283 32.2859V16.5C51.3283 15.9937 50.9179 15.5833 50.4116 15.5833H23.8283V13.75H53.1616L53.168 34.6839C52.651 33.8152 52.0335 33.0103 51.3283 32.2859Z" />
        <path fill="currentColor"
            d="M47.4205 34.8654L38.7773 37.2222C38.4657 37.3087 38.2222 37.5522 38.1356 37.8638L35.7789 46.5071C35.7031 46.7827 35.7603 47.0778 35.9334 47.3052C36.1065 47.5327 36.3758 47.6663 36.6616 47.6667C36.743 47.6664 36.8241 47.6556 36.9027 47.6346L45.546 45.2778C45.8576 45.1913 46.101 44.9478 46.1876 44.6362L48.5444 35.9929C48.631 35.6755 48.5409 35.336 48.3082 35.1034C48.0756 34.8707 47.7361 34.7806 47.4187 34.8672L47.4205 34.8654ZM39.4877 39.875L43.5394 43.9267L37.9679 45.4465L39.4877 39.875ZM44.8355 42.625L40.7839 38.5733L46.3554 37.0535L44.8355 42.625Z" />
    </g>
    <defs>
        <clipPath id="clip0">
            <rect width="55" height="55" fill="white" />
        </clipPath>
    </defs>
</svg>