<svg width="55" height="55" viewBox="0 0 55 55" fill="none" xmlns="http://www.w3.org/2000/svg">
    <g clip-path="url(#clip0)">
        <path
            d="M53.1667 7.33333H36.6667C35.6541 7.33333 34.8333 8.15414 34.8333 9.16666V25.575C34.8333 31.5462 34.8333 36.7033 31.3967 41.8165C30.2958 43.45 29.5799 44 27.5394 44H27.4533C25.4201 44 24.7033 43.45 23.6033 41.8202C20.1667 36.7061 20.1667 31.5489 20.1667 25.575V9.16666C20.1667 8.15414 19.3459 7.33333 18.3333 7.33333H1.83333C0.820811 7.33333 0 8.15414 0 9.16666V53.1667C0 54.1792 0.820811 55 1.83333 55H53.1667C54.1792 55 55 54.1792 55 53.1667V9.16666C55 8.15414 54.1792 7.33333 53.1667 7.33333ZM53.1667 30.3353L47.2322 38.4578C46.8188 38.2186 46.4136 37.9729 46.0066 37.7245C45.6738 37.5183 45.3383 37.3111 44.9983 37.1067L53.1667 25.9197V30.3353ZM53.1667 33.4437V40.2756C51.6952 40.1992 50.2483 39.8676 48.8904 39.2957L53.1667 33.4437ZM36.6667 25.9206L41.4847 19.3206C42.3155 19.6267 43.1162 20.0094 43.8763 20.4637L36.5933 30.4443C36.6602 28.9786 36.6667 27.4753 36.6667 25.9206ZM36.2679 34.0001L45.4493 21.4198C46.1933 21.8907 46.9643 22.3177 47.7583 22.6985L38.8025 34.9498C37.9163 34.8568 37.0249 34.8222 36.1341 34.8462C36.1799 34.5657 36.2267 34.2833 36.2679 34.0001ZM49.5284 23.375C50.4436 23.6569 51.3844 23.8478 52.3371 23.9452L43.3638 36.2285C42.5441 35.8383 41.6873 35.5312 40.8063 35.3118L49.5284 23.375ZM36.6667 9.16666H53.1667V22.1714C50.5923 22.0006 48.1164 21.116 46.0167 19.6167C43.2927 17.6716 40.0131 16.6587 36.6667 16.7292V9.16666ZM39.5853 18.8155L36.6667 22.8113V18.5625C37.6453 18.5569 38.6223 18.6415 39.5853 18.8155ZM7.25725 36.0589L16.2332 23.7673C16.9276 23.8903 17.629 23.9696 18.3333 24.0048V25.322L9.57917 37.3001C8.83344 36.8356 8.05777 36.4209 7.25725 36.0589ZM1.83333 28.4231L8.04008 19.9247C8.80275 20.3069 9.50675 20.7341 10.2153 21.1741L10.3208 21.2392L1.83333 32.8433V28.4231ZM11.9038 22.1833C12.6802 22.6144 13.4935 22.9754 14.3339 23.2623L5.45967 35.4099C4.52457 35.1491 3.56649 34.979 2.59875 34.9021L11.9038 22.1833ZM18.348 28.4121C18.3682 29.8256 18.4213 31.2024 18.5533 32.5527L13.5117 39.4561C12.6917 39.1258 11.9008 38.7272 11.1476 38.2644L18.348 28.4121ZM18.9264 35.1496C19.2576 36.9034 19.8144 38.6069 20.5828 40.2178C19.9366 40.294 19.2865 40.3326 18.6358 40.3333C17.5412 40.3409 16.449 40.2305 15.378 40.0043L18.9264 35.1496ZM1.83333 9.16666H18.3333V22.1714C15.7589 22.0006 13.283 21.116 11.1833 19.6167C8.45935 17.6716 5.17976 16.6587 1.83333 16.7292V9.16666ZM6.292 19.2097L1.83333 25.3138V18.5625C3.34464 18.5378 4.85007 18.7564 6.292 19.2097ZM1.83333 53.1667V36.7024C4.51028 36.8196 7.09567 37.7112 9.27575 39.2691L9.29317 39.2801C12.0145 41.2248 15.2918 42.2374 18.6358 42.1667C19.5965 42.1649 20.5555 42.0849 21.5032 41.9274C21.6865 42.2327 21.8772 42.5388 22.0834 42.8441C23.4199 44.825 24.6208 45.8333 27.4514 45.8333H27.5C30.3618 45.8278 31.5764 44.836 32.9212 42.8432C34.1944 40.9662 35.1421 38.888 35.7243 36.696C39.0381 36.4247 42.3404 37.3403 45.0413 39.2792C47.431 40.9654 50.2465 41.9459 53.1667 42.1089V53.1667H1.83333Z"
            fill="currentColor" />
        <path
            d="M22.5069 34.925C22.1017 35.1669 21.9463 35.6768 22.1478 36.1035C22.3493 36.5302 22.8418 36.7342 23.2861 36.575C23.3546 36.7397 23.433 36.9001 23.5207 37.0553L25.9086 41.2335C26.2352 41.8043 26.8424 42.1565 27.5 42.1565C28.1576 42.1565 28.7648 41.8043 29.0913 41.2335L31.4792 37.0553C31.8732 36.3653 32.0814 35.5848 32.0833 34.7903V32.1915L32.4931 31.9871C32.8753 31.8002 33.0771 31.3734 32.9789 30.9593C32.8807 30.5453 32.5088 30.2545 32.0833 30.2592V26.6915L32.4931 26.4871C32.8753 26.3002 33.0771 25.8734 32.9789 25.4593C32.8807 25.0453 32.5088 24.7545 32.0833 24.7592V21.1915L32.4931 20.9871C32.8753 20.8002 33.0771 20.3734 32.9789 19.9593C32.8807 19.5453 32.5088 19.2545 32.0833 19.2592V15.6915L32.4931 15.4871C32.8753 15.3002 33.0771 14.8734 32.9789 14.4593C32.8807 14.0453 32.5088 13.7545 32.0833 13.7592V10.1915L32.4931 9.98709C32.8753 9.80017 33.0771 9.37336 32.9789 8.95934C32.8807 8.54531 32.5088 8.25455 32.0833 8.25917V4.6915L32.4931 4.48708C32.8746 4.29951 33.0757 3.87297 32.9777 3.45925C32.8796 3.04553 32.5085 2.75463 32.0833 2.75825V1.83333C32.0833 0.820811 31.2625 0 30.25 0H24.75C23.7374 0 22.9166 0.820811 22.9166 1.83333V7.22517L22.5069 7.42958C22.1261 7.61939 21.9259 8.04631 22.0236 8.46045C22.1213 8.8746 22.4911 9.16707 22.9166 9.16667V12.7252L22.5069 12.9296C22.1261 13.1194 21.9259 13.5463 22.0236 13.9605C22.1213 14.3746 22.4911 14.6671 22.9166 14.6667V18.2252L22.5069 18.4296C22.1261 18.6194 21.9259 19.0463 22.0236 19.4605C22.1213 19.8746 22.4911 20.1671 22.9166 20.1667V23.7252L22.5069 23.9296C22.1261 24.1194 21.9259 24.5463 22.0236 24.9605C22.1213 25.3746 22.4911 25.6671 22.9166 25.6667V29.2252L22.5069 29.4296C22.1261 29.6194 21.9259 30.0463 22.0236 30.4605C22.1213 30.8746 22.4911 31.1671 22.9166 31.1667V34.7252L22.5069 34.925ZM30.25 34.7903C30.2482 35.2693 30.1219 35.7397 29.8833 36.1552L27.5 40.3333L25.1166 36.1552C25.052 36.0274 24.9977 35.8947 24.9544 35.7583L30.25 33.1082V34.7903ZM24.75 1.83333H30.25V3.5585L24.75 6.3085V1.83333ZM24.75 8.35817L30.25 5.60817V9.0585L24.75 11.8085V8.35817ZM24.75 13.8582L30.25 11.1082V14.5585L24.75 17.3085V13.8582ZM24.75 19.3582L30.25 16.6082V20.0585L24.75 22.8085V19.3582ZM24.75 24.8582L30.25 22.1082V25.5585L24.75 28.3085V24.8582ZM24.75 30.3582L30.25 27.6082V31.0585L24.75 33.8085V30.3582Z"
            fill="currentColor" />
        <path
            d="M4.58329 12.8333C5.08955 12.8333 5.49996 12.4229 5.49996 11.9167C5.49996 11.4104 5.08955 11 4.58329 11C4.07703 11 3.66663 11.4104 3.66663 11.9167C3.66663 12.4229 4.07703 12.8333 4.58329 12.8333Z"
            fill="currentColor" />
        <path
            d="M7.33329 15.5833C7.83956 15.5833 8.24996 15.1729 8.24996 14.6667C8.24996 14.1604 7.83956 13.75 7.33329 13.75C6.82703 13.75 6.41663 14.1604 6.41663 14.6667C6.41663 15.1729 6.82703 15.5833 7.33329 15.5833Z"
            fill="currentColor" />
        <path
            d="M10.0834 12.8333C10.5897 12.8333 11.0001 12.4229 11.0001 11.9167C11.0001 11.4104 10.5897 11 10.0834 11C9.57715 11 9.16675 11.4104 9.16675 11.9167C9.16675 12.4229 9.57715 12.8333 10.0834 12.8333Z"
            fill="currentColor" />
        <path
            d="M12.8333 15.5833C13.3396 15.5833 13.75 15.1729 13.75 14.6667C13.75 14.1604 13.3396 13.75 12.8333 13.75C12.327 13.75 11.9166 14.1604 11.9166 14.6667C11.9166 15.1729 12.327 15.5833 12.8333 15.5833Z"
            fill="currentColor" />
        <path
            d="M15.5834 18.3333C16.0897 18.3333 16.5001 17.9229 16.5001 17.4167C16.5001 16.9104 16.0897 16.5 15.5834 16.5C15.0772 16.5 14.6667 16.9104 14.6667 17.4167C14.6667 17.9229 15.0772 18.3333 15.5834 18.3333Z"
            fill="currentColor" />
        <path
            d="M15.5834 12.8333C16.0897 12.8333 16.5001 12.4229 16.5001 11.9167C16.5001 11.4104 16.0897 11 15.5834 11C15.0772 11 14.6667 11.4104 14.6667 11.9167C14.6667 12.4229 15.0772 12.8333 15.5834 12.8333Z"
            fill="currentColor" />
        <path
            d="M39.4168 12.8333C39.923 12.8333 40.3335 12.4229 40.3335 11.9167C40.3335 11.4104 39.923 11 39.4168 11C38.9105 11 38.5001 11.4104 38.5001 11.9167C38.5001 12.4229 38.9105 12.8333 39.4168 12.8333Z"
            fill="currentColor" />
        <path
            d="M42.1667 15.5833C42.6729 15.5833 43.0833 15.1729 43.0833 14.6667C43.0833 14.1604 42.6729 13.75 42.1667 13.75C41.6604 13.75 41.25 14.1604 41.25 14.6667C41.25 15.1729 41.6604 15.5833 42.1667 15.5833Z"
            fill="currentColor" />
        <path
            d="M44.9165 12.8333C45.4228 12.8333 45.8332 12.4229 45.8332 11.9167C45.8332 11.4104 45.4228 11 44.9165 11C44.4103 11 43.9999 11.4104 43.9999 11.9167C43.9999 12.4229 44.4103 12.8333 44.9165 12.8333Z"
            fill="currentColor" />
        <path
            d="M47.6667 15.5833C48.1729 15.5833 48.5833 15.1729 48.5833 14.6667C48.5833 14.1604 48.1729 13.75 47.6667 13.75C47.1604 13.75 46.75 14.1604 46.75 14.6667C46.75 15.1729 47.1604 15.5833 47.6667 15.5833Z"
            fill="currentColor" />
        <path
            d="M50.4167 18.3333C50.9229 18.3333 51.3333 17.9229 51.3333 17.4167C51.3333 16.9104 50.9229 16.5 50.4167 16.5C49.9104 16.5 49.5 16.9104 49.5 17.4167C49.5 17.9229 49.9104 18.3333 50.4167 18.3333Z"
            fill="currentColor" />
        <path
            d="M50.4167 12.8333C50.9229 12.8333 51.3333 12.4229 51.3333 11.9167C51.3333 11.4104 50.9229 11 50.4167 11C49.9104 11 49.5 11.4104 49.5 11.9167C49.5 12.4229 49.9104 12.8333 50.4167 12.8333Z"
            fill="currentColor" />
        <path
            d="M8.24996 49.5H4.58329C4.07703 49.5 3.66663 49.9104 3.66663 50.4166C3.66663 50.9229 4.07703 51.3333 4.58329 51.3333H8.24996C8.75622 51.3333 9.16663 50.9229 9.16663 50.4166C9.16663 49.9104 8.75622 49.5 8.24996 49.5Z"
            fill="currentColor" />
        <path
            d="M13.7501 46.75H10.0834C9.57715 46.75 9.16675 47.1604 9.16675 47.6667C9.16675 48.1729 9.57715 48.5833 10.0834 48.5833H13.7501C14.2563 48.5833 14.6667 48.1729 14.6667 47.6667C14.6667 47.1604 14.2563 46.75 13.7501 46.75Z"
            fill="currentColor" />
        <path
            d="M19.2501 49.5H15.5834C15.0772 49.5 14.6667 49.9104 14.6667 50.4166C14.6667 50.9229 15.0772 51.3333 15.5834 51.3333H19.2501C19.7563 51.3333 20.1667 50.9229 20.1667 50.4166C20.1667 49.9104 19.7563 49.5 19.2501 49.5Z"
            fill="currentColor" />
        <path
            d="M25.6667 47.6667C25.6667 47.1604 25.2563 46.75 24.7501 46.75H21.0834C20.5772 46.75 20.1667 47.1604 20.1667 47.6667C20.1667 48.1729 20.5772 48.5833 21.0834 48.5833H24.7501C25.2563 48.5833 25.6667 48.1729 25.6667 47.6667Z"
            fill="currentColor" />
        <path
            d="M29.3335 49.5H25.6668C25.1605 49.5 24.7501 49.9104 24.7501 50.4166C24.7501 50.9229 25.1605 51.3333 25.6668 51.3333H29.3335C29.8397 51.3333 30.2501 50.9229 30.2501 50.4166C30.2501 49.9104 29.8397 49.5 29.3335 49.5Z"
            fill="currentColor" />
        <path
            d="M34.8332 46.75H31.1665C30.6603 46.75 30.2499 47.1604 30.2499 47.6667C30.2499 48.1729 30.6603 48.5833 31.1665 48.5833H34.8332C35.3395 48.5833 35.7499 48.1729 35.7499 47.6667C35.7499 47.1604 35.3395 46.75 34.8332 46.75Z"
            fill="currentColor" />
        <path
            d="M40.3333 49.5H36.6667C36.1604 49.5 35.75 49.9104 35.75 50.4166C35.75 50.9229 36.1604 51.3333 36.6667 51.3333H40.3333C40.8396 51.3333 41.25 50.9229 41.25 50.4166C41.25 49.9104 40.8396 49.5 40.3333 49.5Z"
            fill="currentColor" />
        <path
            d="M46.75 47.6667C46.75 47.1604 46.3396 46.75 45.8333 46.75H42.1667C41.6604 46.75 41.25 47.1604 41.25 47.6667C41.25 48.1729 41.6604 48.5833 42.1667 48.5833H45.8333C46.3396 48.5833 46.75 48.1729 46.75 47.6667Z"
            fill="currentColor" />
        <path
            d="M50.4167 49.5H46.75C46.2438 49.5 45.8334 49.9104 45.8334 50.4166C45.8334 50.9229 46.2438 51.3333 46.75 51.3333H50.4167C50.923 51.3333 51.3334 50.9229 51.3334 50.4166C51.3334 49.9104 50.923 49.5 50.4167 49.5Z"
            fill="currentColor" />
        <path
            d="M4.58329 45.8333H8.24996C8.75622 45.8333 9.16663 45.4229 9.16663 44.9167C9.16663 44.4104 8.75622 44 8.24996 44H4.58329C4.07703 44 3.66663 44.4104 3.66663 44.9167C3.66663 45.4229 4.07703 45.8333 4.58329 45.8333Z"
            fill="currentColor" />
        <path
            d="M15.5834 45.8333H19.2501C19.7563 45.8333 20.1667 45.4229 20.1667 44.9167C20.1667 44.4104 19.7563 44 19.2501 44H15.5834C15.0772 44 14.6667 44.4104 14.6667 44.9167C14.6667 45.4229 15.0772 45.8333 15.5834 45.8333Z"
            fill="currentColor" />
        <path
            d="M36.6667 45.8333H40.3333C40.8396 45.8333 41.25 45.4229 41.25 44.9167C41.25 44.4104 40.8396 44 40.3333 44H36.6667C36.1604 44 35.75 44.4104 35.75 44.9167C35.75 45.4229 36.1604 45.8333 36.6667 45.8333Z"
            fill="currentColor" />
        <path
            d="M50.4167 44H46.75C46.2438 44 45.8334 44.4104 45.8334 44.9167C45.8334 45.4229 46.2438 45.8333 46.75 45.8333H50.4167C50.923 45.8333 51.3334 45.4229 51.3334 44.9167C51.3334 44.4104 50.923 44 50.4167 44Z"
            fill="currentColor" />
    </g>
    <defs>
        <clipPath id="clip0">
            <rect width="55" height="55" fill="white" />
        </clipPath>
    </defs>
</svg>