<svg width="65" height="65" viewBox="0 0 65 65" fill="none" xmlns="http://www.w3.org/2000/svg">
<g clip-path="url(#clip0)">
<path d="M45.6874 47.2169C45.5728 47.2721 45.4647 47.3396 45.3648 47.4181C44.8788 47.8982 44.2643 48.2022 43.7232 48.6004C43.3417 48.8851 42.9461 49.1506 42.5379 49.3958C42.0694 49.6772 41.5851 49.9342 41.0983 50.1851C40.753 50.3637 40.399 50.5223 40.0397 50.6747C39.836 50.7618 39.6193 50.8193 39.4095 50.8925C38.9086 51.0668 38.4121 51.2532 37.9077 51.4152C37.6564 51.4922 37.4004 51.5528 37.1411 51.5965C36.5336 51.7071 35.9235 51.8055 35.3151 51.9136C35.1403 51.9449 35.0101 52.0111 34.9733 52.2202C34.8859 52.7168 34.7793 53.2099 34.6691 53.7013C34.6053 53.9844 34.5031 54.2597 34.4445 54.5438C34.3737 54.8922 34.337 55.2503 34.274 55.6023C34.2207 55.9028 34.1525 56.1999 34.0905 56.4979C34.0651 56.6216 34.0424 56.7462 34.0171 56.8699C33.9244 57.3177 33.8239 57.7646 33.7417 58.2142C33.67 58.6045 33.6228 58.9982 33.5555 59.3903C33.5057 59.676 33.4401 59.9592 33.3807 60.2441C33.3536 60.3748 33.3274 60.5054 33.2933 60.637C33.2059 61.0508 33.1001 61.4638 33.0171 61.8802C32.948 62.2287 32.9069 62.5868 32.8422 62.9378C32.7784 63.2689 32.6884 63.5956 32.6272 63.9275C32.5809 64.1767 32.5608 64.4311 32.5302 64.6837C32.5406 64.7419 32.535 64.8019 32.5139 64.8571C32.4928 64.9124 32.4571 64.9609 32.4104 64.9974C32.3759 64.9519 32.3488 64.9014 32.33 64.8475C32.2723 64.5269 32.2295 64.2046 32.1674 63.8892C32.1097 63.5878 32.0302 63.2916 31.969 62.991C31.9393 62.8438 31.9332 62.6922 31.9122 62.5432C31.8606 62.1843 31.8545 61.8096 31.7417 61.4699C31.6159 61.0874 31.6132 60.6927 31.5206 60.3094C31.4393 59.974 31.3886 59.6307 31.3248 59.291C31.2374 58.8257 31.1447 58.3614 31.0625 57.897C30.9533 57.268 30.8598 56.6373 30.7461 56.0091C30.6902 55.7007 30.6036 55.3993 30.5328 55.0926C30.5153 55.0234 30.5033 54.9529 30.497 54.8818C30.4653 54.3848 30.3726 53.8935 30.2208 53.419C30.1447 53.1899 30.143 52.9364 30.1054 52.6942C30.0886 52.5521 30.0638 52.411 30.0311 52.2716C30.0072 52.178 29.9551 52.0939 29.8818 52.0307C29.8085 51.9675 29.7175 51.9281 29.6211 51.9179C29.2365 51.8569 28.8484 51.8143 28.4647 51.7437C28.2655 51.6956 28.0688 51.6374 27.8755 51.5694C27.2733 51.3952 26.6649 51.2393 26.0696 51.0467C25.6212 50.8995 25.185 50.7104 24.7514 50.524C24.3179 50.3376 23.8904 50.1494 23.4752 49.9333C22.5709 49.4646 21.7095 48.9177 20.901 48.2989C20.4424 47.9464 19.9846 47.5924 19.5277 47.2369C19.3686 47.1132 19.2174 47.1254 19.0033 47.2709C18.5033 47.6081 17.9963 47.9356 17.4989 48.278C16.887 48.7014 16.2752 49.1388 15.6633 49.5639C15.4098 49.7382 15.1441 49.8985 14.8827 50.0623C14.8505 50.0751 14.816 50.0816 14.7813 50.0814C14.7838 50.0515 14.7909 50.0221 14.8023 49.9943C14.9771 49.719 15.1397 49.4393 15.3267 49.1736C15.6327 48.7302 15.9544 48.2972 16.2647 47.8564C16.7262 47.2012 17.186 46.544 17.644 45.8848C17.8188 45.6313 17.8014 45.5468 17.6134 45.2941C16.9701 44.4273 16.3066 43.5744 15.7114 42.6805C15.3276 42.102 15.0339 41.4608 14.7323 40.8327C14.4649 40.2786 14.2324 39.7062 14.0051 39.1347C13.8933 38.8329 13.7981 38.5252 13.7201 38.2129C13.596 37.766 13.4745 37.3173 13.3705 36.8652C13.2918 36.5298 13.2376 36.1874 13.1721 35.8485C13.1327 35.5814 13.0784 35.3167 13.0095 35.0557C12.9856 34.9998 12.9498 34.9498 12.9045 34.9091C12.8592 34.8685 12.8055 34.8382 12.7472 34.8205C12.0016 34.6619 11.2516 34.5251 10.5025 34.3849C9.75339 34.2446 9.02351 34.0956 8.28226 33.9597C7.64241 33.8421 6.99818 33.7436 6.35921 33.6226C6.05589 33.5651 5.76219 33.4596 5.45974 33.3986C5.13195 33.3333 4.79804 33.2985 4.46762 33.2418C4.15644 33.1887 3.84787 33.1207 3.53669 33.0676C3.03582 32.9805 2.53408 32.8933 2.03409 32.8019C1.61189 32.7235 1.19319 32.6337 0.772741 32.5466C0.548968 32.5004 0.325194 32.4543 0.102295 32.4011C0.0655825 32.3924 0.0367368 32.3471 0.00439453 32.3192C0.0440741 32.2994 0.0852906 32.2828 0.127645 32.2696C0.506136 32.1868 0.882879 32.0953 1.26399 32.0282C1.59266 31.9673 1.9257 31.9333 2.25524 31.8758C2.79457 31.7826 3.33215 31.6832 3.86973 31.5813C4.32864 31.4942 4.78405 31.3888 5.24384 31.3121C5.65991 31.2424 6.08211 31.2076 6.49906 31.144C6.80413 31.0978 7.10483 31.0272 7.40814 30.9697C7.87754 30.8826 8.34694 30.8033 8.81634 30.7179C9.2534 30.6387 9.69046 30.5533 10.1275 30.4749C10.8154 30.3512 11.5034 30.2309 12.1904 30.109C12.3784 30.075 12.5689 30.0497 12.7525 29.9983C12.8395 29.9808 12.9187 29.9363 12.9788 29.8712C13.0389 29.8061 13.0769 29.7238 13.0873 29.6359C13.1214 29.3684 13.138 29.0984 13.1834 28.8326C13.2201 28.6166 13.2857 28.404 13.3434 28.1914C13.5182 27.5337 13.6817 26.8716 13.8845 26.2225C14.0269 25.7651 14.2184 25.3217 14.4028 24.8782C14.5392 24.5498 14.6956 24.2283 14.8512 23.9086C15.0068 23.5888 15.1589 23.2648 15.3399 22.9581C15.6895 22.3639 16.0549 21.7776 16.4211 21.193C16.5328 21.0194 16.6558 20.8532 16.7891 20.6956C17.0974 20.3215 17.4095 19.951 17.7253 19.5839C17.9001 19.3826 17.9202 19.1709 17.7603 18.9287C17.4535 18.4661 17.1362 18.0105 16.8232 17.5514C16.5339 17.1271 16.2454 16.7011 15.9544 16.2777C15.6449 15.8252 15.3349 15.3742 15.0243 14.9247C14.9882 14.8823 14.9552 14.8375 14.9255 14.7905C14.9127 14.7478 14.9062 14.7035 14.9063 14.659C14.9473 14.6696 14.9869 14.6851 15.0243 14.7051C15.3442 14.9255 15.6615 15.1503 15.9858 15.3699C16.5042 15.7244 17.0251 16.0747 17.5444 16.4293C18.1021 16.8103 18.6586 17.1927 19.2139 17.5766C19.4429 17.7352 19.5408 17.7395 19.7646 17.5644C20.227 17.202 20.6746 16.8178 21.151 16.4746C21.5959 16.1539 22.0609 15.8595 22.5347 15.5824C23.1168 15.2427 23.7043 14.9055 24.3144 14.618C24.8222 14.3784 25.3633 14.2077 25.8939 14.0151C26.2593 13.8827 26.6247 13.7538 26.9979 13.6449C27.4551 13.5159 27.9192 13.4123 28.3825 13.3068C28.7129 13.231 29.0468 13.1674 29.3808 13.1047C29.5844 13.0673 29.7898 13.0376 29.9926 13.0106C30.0437 13.0067 30.092 12.9859 30.1299 12.9515C30.1677 12.9171 30.1929 12.871 30.2015 12.8207C30.3598 12.3162 30.4659 11.7969 30.518 11.2708C30.5468 11.0016 30.6596 10.742 30.7208 10.4745C30.7654 10.282 30.7924 10.0851 30.8204 9.88909C30.8563 9.64515 30.8755 9.39947 30.9183 9.15727C30.9612 8.91508 31.0293 8.65458 31.0835 8.40281C31.1167 8.2486 31.1447 8.09266 31.1762 7.93845C31.2697 7.48368 31.3729 7.03065 31.455 6.57327C31.5258 6.18297 31.5669 5.78918 31.6299 5.39714C31.6771 5.11138 31.7409 4.82911 31.7968 4.54509C31.8318 4.37085 31.8641 4.18877 31.9 4.01104C32.0162 3.43082 32.136 2.85147 32.2496 2.26863C32.2828 2.09439 32.2977 1.92014 32.33 1.75113C32.4314 1.21621 32.536 0.682156 32.6438 0.148977C32.6599 0.095791 32.6844 0.0455012 32.7164 0C32.7566 0.0435604 32.8221 0.0818936 32.8318 0.131552C32.8947 0.451286 32.9384 0.774504 33.0005 1.09424C33.0686 1.44882 33.1517 1.80079 33.2234 2.15537C33.2426 2.24772 33.2426 2.34442 33.2548 2.43851C33.3134 2.89415 33.3274 3.36112 33.4454 3.80108C33.5826 4.31597 33.6088 4.84653 33.7426 5.3588C33.8814 5.93468 33.9819 6.51909 34.0433 7.10819C34.0826 7.41834 34.2015 7.71804 34.2592 8.0247C34.33 8.40716 34.365 8.79659 34.434 9.17905C34.4926 9.50314 34.5817 9.822 34.649 10.1452C34.677 10.2768 34.6823 10.4118 34.7015 10.5451C34.7513 10.8823 34.7959 11.2203 34.8571 11.5548C34.927 11.9425 35.0144 12.3259 35.0878 12.7127C35.0958 12.7803 35.1257 12.8435 35.1731 12.8926C35.2204 12.9416 35.2826 12.9739 35.3501 12.9845C35.6543 13.0437 35.962 13.0917 36.2635 13.1544C36.635 13.231 37.01 13.2999 37.3745 13.4053C37.9823 13.5795 38.5858 13.7692 39.1848 13.9742C39.6131 14.1197 40.0397 14.2782 40.4532 14.4629C40.9663 14.6929 41.4759 14.936 41.9654 15.2113C42.5038 15.5136 43.0327 15.8368 43.5388 16.1905C44.2381 16.6767 44.9076 17.1985 45.5903 17.7064C45.7896 17.8554 45.8893 17.8432 46.1681 17.6516C46.8499 17.1855 47.5361 16.7255 48.217 16.2576C48.8464 15.8281 49.4714 15.3925 50.1008 14.963C50.161 14.9347 50.2248 14.9145 50.2904 14.9029C50.2817 14.9682 50.2904 15.0484 50.2607 15.0972C49.9574 15.5415 49.6488 15.9806 49.3385 16.4205C48.9391 16.9921 48.537 17.5627 48.1401 18.1359C47.9006 18.4844 47.6716 18.8329 47.4356 19.1814C47.3298 19.3365 47.3622 19.4567 47.474 19.6074C48.0903 20.4342 48.703 21.2627 49.2974 22.1069C49.7535 22.764 50.1399 23.4665 50.4504 24.203C50.7126 24.8042 50.9451 25.4158 51.1715 26.0326C51.4401 26.733 51.6448 27.4562 51.7834 28.1932C51.8708 28.729 52.002 29.2587 52.1068 29.7927C52.1142 29.8764 52.15 29.955 52.2083 30.0155C52.2667 30.0761 52.3441 30.1149 52.4276 30.1255C53.2091 30.2672 53.9897 30.4124 54.7694 30.5611C54.9783 30.6012 55.1811 30.6683 55.39 30.7092C55.8804 30.8059 56.3734 30.8904 56.8638 30.988C57.2458 31.0638 57.6243 31.1562 58.0062 31.232C58.7449 31.3792 59.4826 31.5308 60.2239 31.6606C60.9275 31.7834 61.6364 31.8749 62.341 31.989C62.5429 32.0221 62.7396 32.0918 62.9406 32.1319C63.3995 32.2243 63.8602 32.3062 64.3191 32.3985C64.5429 32.4438 64.7658 32.4978 64.9869 32.5544C65.0038 32.5854 65.0079 32.6216 64.9983 32.6555C64.9286 32.7072 64.8497 32.7453 64.7658 32.7679C64.382 32.8332 63.9939 32.8768 63.6111 32.9421C63.2457 33.0084 62.8856 33.1059 62.5202 33.1739C62.1548 33.2418 61.7632 33.288 61.3838 33.3542C60.994 33.4222 60.6067 33.5067 60.2178 33.5772C59.8734 33.6391 59.5255 33.6888 59.1802 33.7515C58.6557 33.8438 58.1312 33.9397 57.6068 34.0355C56.8419 34.1749 56.0788 34.323 55.3122 34.4537C54.592 34.5765 53.8673 34.6706 53.1479 34.8022C52.8387 34.8666 52.5341 34.9516 52.2362 35.0566C52.2026 35.0731 52.173 35.0969 52.1496 35.1261C52.1262 35.1553 52.1095 35.1892 52.1007 35.2256C52.0544 35.426 52.036 35.6324 51.9958 35.8354C51.9591 36.0201 51.9014 36.2005 51.8656 36.3852C51.8018 36.711 51.7651 37.0438 51.6847 37.3653C51.5972 37.7137 51.4749 38.0622 51.3604 38.4046C51.0733 39.2761 50.7299 40.1282 50.3324 40.9555C49.9408 41.7727 49.5273 42.5768 49.0055 43.3156C48.5177 44.0074 47.9775 44.6634 47.4469 45.3246C47.2398 45.586 47.2057 45.8003 47.4129 46.0983C47.9819 46.9198 48.5632 47.7335 49.1287 48.5577C49.4836 49.0734 49.821 49.6031 50.1619 50.1259C50.18 50.1752 50.1883 50.2276 50.1864 50.2801C50.1314 50.2721 50.0781 50.2557 50.0282 50.2313C49.2258 49.672 48.4268 49.1083 47.6261 48.5472C47.0387 48.1366 46.4507 47.728 45.8622 47.3214C45.815 47.284 45.7582 47.2578 45.6874 47.2169ZM32.7164 23.1158V31.8322C32.7099 31.9116 32.7131 31.9915 32.726 32.0701C32.7521 32.1293 32.7872 32.1843 32.83 32.233C32.879 32.1894 32.9611 32.152 32.9716 32.1005C33.0171 31.8766 33.1639 31.8392 33.3606 31.8392C34.2312 31.8444 35.1018 31.8444 35.9725 31.8392C36.246 31.8392 36.4969 31.8435 36.621 32.1615C36.6411 32.2147 36.7775 32.2234 36.8605 32.253C36.8842 32.1711 36.948 32.0788 36.9235 32.0091C36.8361 31.7364 36.6613 31.5351 36.3527 31.4985C36.1942 31.4817 36.0348 31.4736 35.8754 31.4741C35.0214 31.4681 34.1665 31.4681 33.3125 31.4567C33.2181 31.4567 33.0503 31.4123 33.0433 31.3644C33.0035 31.1895 33.0002 31.0083 33.0337 30.8321C33.0713 30.6683 33.2487 30.7023 33.3833 30.7049C33.7828 30.711 34.1823 30.7162 34.5809 30.731C34.7933 30.7388 34.9226 30.6439 34.9462 30.4418C34.9894 30.1269 35.014 29.8099 35.0197 29.4922C35.0153 28.1949 34.9847 26.8977 34.9847 25.6005C34.9847 24.4156 35.0092 23.2299 35.0336 22.0451C35.0371 21.9934 35.0521 21.9431 35.0775 21.8979C35.1029 21.8526 35.1381 21.8136 35.1805 21.7837C35.5039 21.6304 35.8405 21.5067 36.1726 21.3734C36.3231 21.3241 36.4705 21.2659 36.614 21.1991C36.8064 21.0937 36.9637 20.9552 36.9637 20.7025C36.9637 19.9855 36.9742 19.2694 36.955 18.5533C36.9437 18.3408 36.888 18.1331 36.7915 17.9434C36.6525 17.6603 36.3606 17.642 36.0861 17.6402C35.1831 17.635 34.281 17.635 33.3763 17.6341C33.0407 17.6341 32.99 17.5888 32.9865 17.2482C32.983 16.9706 32.983 16.6921 32.9865 16.4127C32.9865 16.1461 33.0101 16.1243 33.2723 16.1243C34.8457 16.1243 36.4191 16.1243 37.9925 16.1243C38.1209 16.1183 38.2484 16.1476 38.3611 16.2091C38.4739 16.2706 38.5674 16.3618 38.6315 16.4728C38.8151 16.8213 38.9881 17.1994 39.0345 17.5819C39.1534 18.5672 39.2722 19.556 39.2329 20.5536C39.2266 20.7445 39.2313 20.9356 39.2469 21.1259C39.2486 21.2042 39.2752 21.2799 39.3229 21.342C39.4584 21.4857 39.5939 21.6478 39.76 21.7393C40.0336 21.8856 40.1096 22.0999 40.1096 22.3822C40.1044 23.0591 40.1096 23.7361 40.1096 24.4121C40.1026 25.5575 40.0927 26.7034 40.0799 27.8499C40.0875 27.9289 40.0733 28.0084 40.0388 28.0799C39.8867 28.2995 39.7163 28.5068 39.5537 28.7194C39.4917 28.7914 39.437 28.8693 39.3902 28.952C39.1909 29.3658 39.1542 29.8128 39.1088 30.2588C39.0707 30.7643 39.0021 31.267 38.9034 31.7643C38.7941 32.2478 38.8159 32.3149 39.3054 32.3149H45.4601H50.6838C51.1208 32.3149 51.2179 32.2025 51.1681 31.7651C51.1445 31.5517 51.1357 31.3374 51.1208 31.1231C51.0894 30.6709 51.085 30.2153 51.0203 29.7683C50.9521 29.2926 50.828 28.8248 50.7249 28.3535C50.6882 28.1836 50.6523 28.012 50.599 27.8464C50.4242 27.3133 50.2555 26.7792 50.0745 26.2504C49.932 25.8063 49.766 25.3701 49.5772 24.9436C49.2948 24.3511 48.9898 23.7674 48.6506 23.2064C48.2135 22.4868 47.7625 21.775 47.2669 21.0963C46.8884 20.5736 46.4277 20.1197 46.009 19.6301C45.8193 19.4088 45.822 19.3853 46.0186 19.1823C46.4848 18.7019 46.951 18.2234 47.4172 17.7465C47.6392 17.5191 47.8639 17.2944 48.0798 17.0626C48.1181 17.0061 48.1476 16.9441 48.1672 16.8788C48.1016 16.8805 48.0368 16.8938 47.9758 16.918C47.8333 17.0051 47.7004 17.1053 47.5632 17.1985L45.5187 18.5925C45.1952 18.8129 45.169 18.8068 44.8561 18.5585C44.2355 18.0628 43.6384 17.5322 42.9828 17.087C41.8713 16.3461 40.6847 15.7236 39.4427 15.2296C39.1638 15.1155 38.8771 15.0179 38.5895 14.9264C38.0397 14.7522 37.4925 14.5588 36.9287 14.4263C36.3043 14.2758 35.6715 14.1624 35.0336 14.0866C34.3466 14.0073 33.6508 13.9994 32.9594 13.9585C32.7889 13.9489 32.7129 14.0456 32.7155 14.2094C32.7155 14.2887 32.7155 14.368 32.7155 14.4481L32.7164 23.1158ZM41.8858 32.6355V32.6477H38.628C36.7825 32.6477 34.9375 32.6491 33.0931 32.652C32.7374 32.652 32.7199 32.6729 32.7164 33.0345C32.7164 33.0902 32.7164 33.146 32.7164 33.2018C32.7164 35.1672 32.7164 37.1332 32.7164 39.0998C32.7164 42.921 32.7164 46.7418 32.7164 50.5623C32.7164 50.9387 32.8912 51.0851 33.2688 51.038C33.4104 51.0188 33.5494 50.9735 33.6919 50.9613C34.0756 50.9282 34.0931 50.9178 34.0931 50.5353C34.0931 48.975 34.087 47.4147 34.0931 45.8543C34.0931 45.2967 34.0275 45.2514 33.5179 45.2941C33.0442 45.3342 32.9935 45.2741 32.9935 44.7993C32.9891 43.7164 32.9935 42.6343 32.9935 41.5523C32.9935 41.1759 33.0188 41.1515 33.4078 41.1507C34.5337 41.1507 35.6595 41.1507 36.7854 41.1507C36.8733 41.1437 36.9619 41.1508 37.0476 41.1716C37.1132 41.1951 37.2058 41.2639 37.2093 41.3171C37.2339 41.5374 37.2295 41.76 37.1962 41.9792C37.1385 42.2571 37.1272 42.2719 37.4139 42.2928C37.4855 42.298 37.5572 42.2989 37.6289 42.3033C37.7889 42.312 37.8553 42.2371 37.8667 42.0776C37.8876 41.7901 37.9479 41.7413 38.2329 41.7361C38.3332 41.7273 38.4338 41.7492 38.5212 41.7989C38.6087 41.8485 38.6789 41.9236 38.7224 42.014C38.9846 42.5228 39.2469 43.0299 39.5021 43.5386C39.6665 43.8627 39.822 44.1912 39.989 44.5135C40.2716 45.0618 40.5572 45.6081 40.8456 46.1523C41.2154 46.8492 41.5843 47.554 41.9671 48.2432C42.0012 48.3042 42.1367 48.3416 42.2215 48.3364C42.3162 48.3187 42.4047 48.277 42.4785 48.2153C42.8605 47.9461 43.2521 47.6856 43.6148 47.3929C44.2206 46.905 44.8106 46.3971 45.4024 45.8918C45.4365 45.8584 45.4772 45.8325 45.5219 45.8158C45.5666 45.799 45.6144 45.7918 45.662 45.7946C45.7097 45.7974 45.7563 45.8101 45.7988 45.832C45.8412 45.8538 45.8786 45.8843 45.9085 45.9214C46.1104 46.1244 46.3185 46.3213 46.5204 46.5243C47.0247 47.0322 47.5256 47.5427 48.0317 48.048C48.1043 48.1083 48.1828 48.1611 48.266 48.2057C48.2468 48.1186 48.2319 48.0315 48.2057 47.9443C48.1871 47.9004 48.1627 47.859 48.1331 47.8215C47.933 47.5166 47.7354 47.2117 47.53 46.9067C47.2031 46.4293 46.8744 45.9528 46.5396 45.4806C46.3054 45.1495 46.301 45.0214 46.5658 44.7008C46.8307 44.3802 47.1157 44.0823 47.3639 43.753C47.9896 42.9324 48.5404 42.0577 49.0099 41.1393C49.2476 40.6666 49.4723 40.1868 49.6838 39.7001C49.8473 39.3237 49.9924 38.9378 50.1209 38.5492C50.3035 38.0039 50.4757 37.4541 50.6313 36.9009C50.724 36.5742 50.7773 36.2353 50.8472 35.9016C50.9137 35.5854 50.988 35.2709 51.0404 34.952C51.078 34.7255 51.0885 34.4938 51.1042 34.2638C51.1322 33.8674 51.168 33.471 51.1777 33.0737C51.1855 32.7348 51.0903 32.6485 50.7546 32.6459C49.8764 32.6395 48.9979 32.6361 48.1191 32.6355C46.0405 32.6343 43.9627 32.6343 41.8858 32.6355ZM23.1649 32.6355V32.6477H19.3075C17.6536 32.6477 16.0001 32.6477 14.3469 32.6477C13.9972 32.6477 13.971 32.6712 13.9841 33.0162C14.006 33.5799 14.0453 34.1435 14.0829 34.7072C14.0925 34.9454 14.1168 35.1828 14.1554 35.4181C14.2428 35.8833 14.3512 36.3451 14.4526 36.812C14.4852 36.9916 14.5275 37.1693 14.5794 37.3444C14.7463 37.8383 14.9107 38.3332 15.1038 38.8167C15.3538 39.4414 15.5933 40.0738 15.9063 40.6663C16.3433 41.4922 16.8224 42.2972 17.3223 43.0865C17.6401 43.5611 17.9847 44.0172 18.3547 44.4525C18.5994 44.7531 18.8791 45.0275 19.1414 45.3089C19.2839 45.4588 19.2576 45.5886 19.1239 45.7228C18.4654 46.3808 17.8075 47.0395 17.1501 47.6987C17.033 47.8163 16.9194 47.9382 16.811 48.0654C16.7856 48.1102 16.7676 48.1587 16.7577 48.2092C16.8176 48.2127 16.8778 48.2127 16.9377 48.2092C16.9657 48.2092 16.9902 48.1743 17.0164 48.1569L19.7096 46.3143C19.7779 46.2577 19.865 46.2286 19.9537 46.2326C20.0425 46.2366 20.1265 46.2735 20.1894 46.3361C20.9761 47.0583 21.8503 47.6673 22.7419 48.2528C22.9936 48.4192 23.06 48.3904 23.1885 48.116C23.3502 47.7675 23.5181 47.4295 23.6946 47.0923C24.1055 46.3082 24.5285 45.5241 24.9368 44.74C25.4114 43.8261 25.8686 42.9044 26.3493 41.994C26.4229 41.8872 26.535 41.8129 26.6623 41.7866C26.956 41.7204 27.0268 41.6751 27.0574 41.3754C27.0722 41.2378 27.122 41.1794 27.2636 41.1777C28.0145 41.1646 28.7645 41.1341 29.5154 41.1324C30.3694 41.1324 31.2234 41.1524 32.0783 41.1611C32.1919 41.1611 32.3213 41.1611 32.3221 41.0008C32.3221 40.8266 32.1788 40.8658 32.0748 40.8571C32.0031 40.851 31.9305 40.8571 31.8589 40.8571C30.893 40.8571 29.9262 40.8632 28.9594 40.8571C28.3248 40.8571 28.2348 41.013 28.3003 40.1392C28.3187 39.9005 28.3493 39.7106 28.2374 39.4745C28.1456 39.2819 28.0914 39.16 27.8642 39.1782C27.7051 39.1904 27.6325 39.1068 27.636 38.9465C27.6413 38.7313 27.6439 38.5161 27.636 38.3018C27.6282 38.0875 27.7234 38.0404 27.9087 38.0404C28.2121 38.0404 28.5145 38.0161 28.8178 37.9995C28.9926 37.9908 29.0801 37.9037 29.0722 37.7242C29.0722 37.6528 29.0722 37.5813 29.0722 37.509C29.0722 37.1605 29.0014 37.0908 28.6509 37.0821C28.1561 37.0708 27.6605 37.0673 27.1649 37.0577C26.9026 37.0525 26.8712 37.0194 26.8441 36.7545C26.817 36.4897 26.789 36.2318 26.7401 35.9766C26.6789 35.6612 26.5836 35.3528 26.5224 35.0374C26.4201 34.5033 26.3415 33.9641 26.2357 33.4309C26.1832 33.1695 26.2479 32.984 26.4586 32.977C26.8572 32.9622 27.2567 32.9648 27.6561 32.9639C27.6883 32.9607 27.7208 32.9646 27.7513 32.9754C27.7818 32.9862 27.8095 33.0036 27.8324 33.0263C27.8553 33.0491 27.8729 33.0766 27.8838 33.107C27.8947 33.1373 27.8988 33.1697 27.8956 33.2018C27.9 33.329 27.9035 33.4562 27.9035 33.5842C27.9035 34.1409 27.8755 34.6994 27.9035 35.2552C27.9376 35.865 28.1465 36.2466 28.8537 36.2301C29.9078 36.2048 30.9629 36.2214 32.0171 36.2205C32.0721 36.2298 32.1286 36.2253 32.1814 36.2074C32.2382 36.1708 32.3099 36.1038 32.3117 36.048C32.3075 36.0118 32.2946 35.977 32.2743 35.9467C32.2539 35.9164 32.2266 35.8914 32.1945 35.8738C32.1097 35.8479 32.0205 35.8396 31.9323 35.8494C31.2854 35.8494 30.6386 35.8479 29.9918 35.845C29.5687 35.845 29.1447 35.8502 28.7217 35.845C28.4192 35.8398 28.3152 35.7492 28.2724 35.4582C28.2432 35.2618 28.2298 35.0634 28.2322 34.8649C28.2383 34.4293 28.2689 33.9937 28.2733 33.5529C28.2794 32.9761 28.2899 32.9569 28.8598 32.9604C29.858 32.9665 30.8563 32.977 31.8545 32.9831C31.966 32.988 32.0776 32.9766 32.1858 32.9491C32.2145 32.934 32.2391 32.9123 32.2576 32.8858C32.2762 32.8592 32.2881 32.8287 32.2924 32.7966C32.2924 32.7557 32.2339 32.6904 32.1858 32.6677C32.1252 32.6482 32.0612 32.6413 31.9979 32.6477L23.1649 32.6355ZM20.0417 32.3123H20.713C22.3581 32.3123 24.0032 32.3137 25.6483 32.3166C26.0145 32.3166 26.0967 32.2129 26.0355 31.9002C25.9263 31.3426 25.8388 30.7807 25.7331 30.2222C25.6981 30.0384 25.6929 29.7796 25.574 29.6951C25.359 29.5427 25.3528 29.3711 25.3528 29.1611C25.3528 28.1029 25.3493 27.0441 25.3423 25.9847C25.3423 25.7233 25.2549 25.6824 25.018 25.7651C24.8616 25.8161 24.6984 25.8434 24.5338 25.8461C24.2716 25.8531 24.1029 25.6789 24.0967 25.4193C24.0967 25.2999 24.0967 25.1805 24.0967 25.0612C24.0897 24.8059 24.0277 24.7423 23.7707 24.7197C23.539 24.6996 23.5015 24.6508 23.5198 24.4226C23.5329 24.2658 23.6133 24.2048 23.7672 24.1943C24.0915 24.1708 24.0915 24.1647 24.0967 23.8415C24.0967 23.7134 24.074 23.5801 24.1081 23.4616C24.1378 23.3606 24.2305 23.2099 24.3048 23.2003C24.6055 23.1768 24.921 23.0827 25.206 23.283C25.3214 23.3632 25.4551 23.3022 25.4953 23.1524C25.512 23.0745 25.5182 22.9949 25.5137 22.9154C25.5137 22.3509 25.5084 21.7828 25.5137 21.22C25.5208 21.0449 25.538 20.8704 25.5652 20.6973C25.6026 20.5191 25.6286 20.3387 25.643 20.1572C25.643 19.2345 25.6981 18.318 25.9446 17.4242C26.0122 17.1639 26.0978 16.9086 26.2007 16.6601C26.3607 16.289 26.6124 16.0686 27.067 16.1034C27.5215 16.1383 27.9769 16.1034 28.4323 16.1034C29.358 16.1034 30.2837 16.1113 31.2094 16.1113C31.4882 16.1113 31.7688 16.1113 32.0459 16.086C32.2872 16.0642 32.3457 15.9875 32.351 15.7436C32.3597 15.2662 32.3624 14.7853 32.3659 14.3113C32.3659 13.9707 32.3484 13.9568 31.9961 13.9507C30.9125 13.9331 29.8315 14.0624 28.7829 14.3349C28.2855 14.4612 27.7837 14.5701 27.2846 14.6929C27.09 14.7369 26.8982 14.7924 26.7103 14.8593C26.2357 15.0379 25.7628 15.22 25.2951 15.416C24.8581 15.5999 24.414 15.7854 23.991 16.0041C23.5148 16.2422 23.0533 16.5084 22.609 16.8013C21.9333 17.2586 21.2777 17.7465 20.6291 18.2422C20.3398 18.4644 20.0898 18.738 19.8197 18.9854C19.6562 19.1335 19.5242 19.1422 19.3774 19.0037C18.9552 18.6047 18.54 18.1978 18.1178 17.7988C17.7472 17.4503 17.3722 17.1018 16.9963 16.7621C16.9596 16.7384 16.9191 16.721 16.8765 16.7107C16.859 16.7596 16.8475 16.8105 16.8425 16.8622C16.85 16.901 16.8681 16.9369 16.8949 16.9659C17.1877 17.3893 17.4858 17.8101 17.7751 18.2361C18.1003 18.7153 18.4167 19.1945 18.7367 19.6797C18.7926 19.7486 18.8192 19.8367 18.8105 19.9249C18.8018 20.0131 18.7587 20.0943 18.6903 20.1511C18.0156 20.8593 17.416 21.635 16.901 22.4659C16.561 23.0095 16.2524 23.574 15.9561 24.1429C15.7358 24.5646 15.5461 25.0028 15.367 25.4436C15.1738 25.9176 15.0007 26.402 14.8337 26.8829C14.7586 27.0998 14.7192 27.3289 14.6642 27.5528C14.5348 28.0886 14.3862 28.6209 14.2726 29.1628C14.1863 29.5814 14.1227 30.0042 14.082 30.4296C14.0313 30.9593 14.0138 31.4916 13.9824 32.023C13.9727 32.192 14.0636 32.2739 14.2236 32.2844C14.4063 32.2974 14.5899 32.3123 14.7734 32.3123C16.531 32.3134 18.2871 32.3134 20.0417 32.3123ZM30.3283 24.2414C30.3283 23.6524 30.3283 23.0635 30.3283 22.4746C30.3283 21.6626 30.3283 20.8506 30.3397 20.0352C30.3449 19.6484 30.5905 19.3339 31.0049 19.367C31.33 19.3922 31.6587 19.3731 31.9865 19.3722C32.3291 19.3722 32.4524 19.2607 32.4471 18.9183C32.4419 18.5759 32.4113 18.2353 32.3921 17.8938C32.3807 17.6942 32.2671 17.6185 32.0765 17.6193C30.9271 17.6237 29.7776 17.6245 28.6273 17.6315C28.4079 17.6315 28.2007 17.7108 28.1124 17.9173C28.0181 18.1246 27.9615 18.3471 27.9455 18.5742C27.9227 19.184 27.9603 19.8008 27.928 20.4115C27.9052 20.8471 28.1142 21.0719 28.4699 21.2331C28.8467 21.403 29.219 21.5816 29.594 21.7558C29.8056 21.8534 29.9437 21.9998 29.9437 22.2472C29.9437 22.4946 29.9585 22.7403 29.9559 22.9868C29.9288 25.1596 29.8965 27.3316 29.8755 29.5043C29.8818 29.83 29.9052 30.1551 29.9454 30.4784C29.962 30.6465 30.0661 30.7232 30.2409 30.7214C30.8528 30.7214 31.4708 30.7153 32.0853 30.7214C32.1483 30.7278 32.2116 30.7112 32.2634 30.6747C32.3151 30.6382 32.3518 30.5842 32.3667 30.5228C32.4978 30.1456 32.4305 29.7675 32.3964 29.3902C32.3781 29.189 32.2863 29.094 32.0722 29.1018C31.7374 29.1132 31.4017 29.1114 31.066 29.1018C30.6141 29.0905 30.3353 28.817 30.3335 28.3709C30.3292 26.9944 30.3318 25.6179 30.3318 24.2414H30.3283ZM35.3982 48.0315C35.3982 48.8356 35.3982 49.6388 35.3982 50.4421C35.3982 50.7331 35.4681 50.7958 35.7548 50.7836C35.8415 50.7762 35.9273 50.7605 36.0109 50.7366C36.2731 50.6695 36.5354 50.5998 36.7915 50.531C37.1901 50.4256 37.5869 50.3184 37.9855 50.2156C38.0096 50.2121 38.0326 50.2031 38.0526 50.1892C38.0725 50.1754 38.089 50.157 38.1006 50.1357C38.1122 50.1144 38.1187 50.0907 38.1195 50.0664C38.1203 50.0422 38.1155 50.0181 38.1053 49.996C38.0597 49.8368 38.0013 49.6815 37.9305 49.5317C37.7399 49.1501 37.5319 48.7772 37.3422 48.3991C37.1621 48.0384 36.9995 47.669 36.8238 47.3058C36.5878 46.8161 36.3439 46.3291 36.1132 45.836C36.1006 45.8034 36.0964 45.7682 36.1008 45.7335C36.1052 45.6989 36.1182 45.6658 36.1385 45.6374C36.3072 45.5032 36.3134 45.3264 36.3081 45.1408C36.2985 44.3375 36.2863 43.5343 36.2854 42.731C36.2854 42.5847 36.337 42.4392 36.3518 42.2954C36.3532 42.2704 36.3485 42.2453 36.3382 42.2224C36.3278 42.1995 36.3121 42.1795 36.2924 42.1639C36.1044 42.089 35.9794 42.1639 35.9707 42.3721C35.9497 42.9192 35.9401 43.4681 35.9349 44.0161C35.9349 44.3262 35.9497 44.6364 35.9497 44.9465C35.9497 45.1094 35.8903 45.2366 35.7111 45.288C35.4121 45.3752 35.4025 45.3839 35.4008 45.701C35.4034 46.4729 35.406 47.2526 35.406 48.0315H35.3982ZM56.8681 32.6381V32.6424C58.1776 32.6424 59.4867 32.6424 60.7955 32.6424C60.9391 32.6431 61.0824 32.6314 61.2239 32.6076C61.2728 32.5989 61.3113 32.5292 61.3532 32.4874C61.3104 32.449 61.2728 32.3872 61.2239 32.3759C60.9922 32.3227 60.7571 32.2818 60.5246 32.2408C60.1644 32.1772 59.8034 32.1215 59.4442 32.0561C58.952 31.969 58.4608 31.874 57.9695 31.7817C57.9075 31.7704 57.8454 31.7573 57.7833 31.7434C57.4599 31.6737 57.1374 31.5909 56.8105 31.536C56.3795 31.462 55.9425 31.4219 55.5124 31.3443C55.147 31.2773 54.7878 31.1762 54.4259 31.0917C54.0762 31.0107 53.7344 30.9174 53.3839 30.8556C53.0789 30.8007 52.772 30.7685 52.4591 30.7467C52.2843 30.7327 52.1672 30.8234 52.1777 31.0176C52.1881 31.2119 52.2013 31.3975 52.2205 31.5865C52.2397 31.7756 52.2887 31.9777 52.2913 32.1737C52.2913 32.5457 52.3498 32.6146 52.7283 32.6337C52.8 32.6381 52.8717 32.639 52.9434 32.639L56.8681 32.6381ZM12.881 33.3568C12.881 33.1338 12.8888 32.9116 12.881 32.6895C12.8731 32.4673 12.7525 32.3576 12.5366 32.341C12.3941 32.3279 12.2499 32.3253 12.1065 32.3253H3.99735C3.93366 32.322 3.86982 32.3276 3.80767 32.3419C3.74409 32.3656 3.68268 32.3948 3.6241 32.429C3.68354 32.4691 3.73774 32.5335 3.79892 32.5475C4.23598 32.6407 4.67304 32.7261 5.1101 32.8088C5.39768 32.8637 5.68614 32.9082 5.9746 32.9569C6.35134 33.0205 6.72983 33.0772 7.10483 33.1512C7.39066 33.207 7.67038 33.2941 7.95534 33.3533C8.2403 33.4126 8.534 33.4509 8.82246 33.5067C9.04711 33.5502 9.26826 33.6138 9.4929 33.6565C10.1048 33.7707 10.7097 33.8796 11.3181 33.9876C11.7639 34.0669 12.2097 34.1461 12.6563 34.2193C12.8014 34.2429 12.8853 34.1784 12.8845 34.0224C12.8801 33.802 12.881 33.579 12.881 33.3568ZM32.4297 56.8481H32.441C32.441 58.1218 32.441 59.3952 32.441 60.6683C32.441 60.8269 32.455 60.9855 32.4699 61.144C32.4699 61.1763 32.5083 61.205 32.5293 61.2312C32.5564 61.2059 32.5992 61.1858 32.6097 61.1553C32.6618 61.0221 32.7042 60.8852 32.7365 60.7459C32.8318 60.2659 32.9183 59.7876 33.0066 59.3023C33.0354 59.1463 33.0512 58.9887 33.0844 58.8336C33.1552 58.5034 33.2426 58.1767 33.3055 57.8456C33.372 57.4971 33.4095 57.1399 33.4751 56.7889C33.5625 56.3018 33.6709 55.8166 33.7697 55.3305C33.7793 55.2834 33.7872 55.2364 33.7968 55.1902C33.8929 54.7189 33.9926 54.2475 34.0844 53.7753C34.1386 53.4966 34.1814 53.2152 34.2277 52.9346C34.2653 52.7107 34.3108 52.4868 34.3282 52.2612C34.3282 52.215 34.2408 52.1314 34.1753 52.1157C34.0661 52.093 33.9541 52.0868 33.8431 52.0974C33.5162 52.1148 33.1901 52.1453 32.8641 52.1601C32.5949 52.1732 32.504 52.2333 32.4646 52.5016C32.4388 52.6989 32.4274 52.8978 32.4305 53.0967C32.4282 54.3483 32.4279 55.5988 32.4297 56.8481ZM37.9943 44.9831C37.739 44.9831 37.4838 44.977 37.2285 44.9831C36.9995 44.9901 36.9226 45.1094 37.0205 45.3098C37.3591 46.0068 37.7006 46.7037 38.045 47.4007C38.3946 48.1099 38.7583 48.8156 39.114 49.5238C39.2093 49.712 39.3404 49.7852 39.5397 49.6981C39.9514 49.5151 40.3596 49.3226 40.7591 49.1144C40.9855 48.9959 41.0065 48.9001 40.8928 48.6701C40.6621 48.2022 40.4226 47.7379 40.1857 47.2761C39.8727 46.6663 39.5502 46.0564 39.2478 45.4379C39.0948 45.126 38.8841 44.9535 38.5205 44.9909C38.3465 44.9979 38.17 44.9831 37.9943 44.9831ZM26.8441 44.9988C26.6527 44.9859 26.4607 44.9885 26.2698 45.0066C26.1509 45.0267 25.9962 45.0938 25.9411 45.1896C25.72 45.5729 25.5312 45.9737 25.3292 46.3692C25.1649 46.6942 25.0058 47.0209 24.8415 47.345C24.5915 47.8381 24.3319 48.3259 24.095 48.826C24.0705 48.8783 24.1466 49.029 24.2139 49.0639C24.5845 49.2564 24.9691 49.4219 25.3432 49.6084C25.664 49.7678 25.7899 49.739 25.9551 49.4245C26.1299 49.0891 26.3047 48.7493 26.4752 48.4104C26.6352 48.0933 26.7908 47.7745 26.9516 47.4582C27.3012 46.7612 27.664 46.0643 28.0136 45.3603C28.1133 45.16 28.0512 45.0728 27.817 45.0572C27.4874 45.0336 27.1535 45.0188 26.8441 44.9988ZM30.7584 48.1351C30.7584 48.9628 30.7584 49.7904 30.7584 50.6181C30.7584 50.8925 30.8012 50.9274 31.0774 50.9448C31.3536 50.9622 31.6342 50.9875 31.9122 51.0119C32.2496 51.0406 32.3798 50.9396 32.3842 50.6076C32.4052 49.191 32.4215 47.7745 32.4332 46.3579C32.4283 46.0957 32.4099 45.834 32.3781 45.5738C32.3597 45.3769 32.2513 45.2776 32.0451 45.2793C31.7583 45.2793 31.4708 45.2671 31.1832 45.2723C30.8405 45.2784 30.7575 45.3638 30.7566 45.7001C30.7566 46.5112 30.7584 47.3232 30.7584 48.1351ZM32.6499 8.36099H32.6902C32.6902 7.30247 32.6902 6.24482 32.6902 5.1863C32.6902 4.80472 32.6762 4.42313 32.6639 4.04241C32.6638 3.97084 32.6473 3.90025 32.6159 3.83593C32.6045 3.81415 32.5013 3.80979 32.4769 3.83593C32.4476 3.88286 32.4313 3.93666 32.4297 3.99188C32.3746 4.30203 32.3274 4.61392 32.2645 4.9232C32.1421 5.52608 32.0066 6.12547 31.8851 6.72834C31.7811 7.25107 31.6893 7.76769 31.5931 8.28781C31.497 8.80792 31.3956 9.34284 31.3003 9.87079C31.2444 10.1818 31.1919 10.4928 31.1395 10.8047C31.0381 11.4146 30.9393 12.0323 30.8353 12.6447C30.8108 12.7885 30.8624 12.8651 31.004 12.866C31.4035 12.866 31.8029 12.8791 32.2015 12.8573C32.5433 12.8381 32.6499 12.6979 32.6508 12.3494L32.6499 8.36099ZM28.9481 43.8706H29.0075C28.9778 43.3566 28.9489 42.8425 28.9201 42.3285C28.9114 42.1909 28.8327 42.1351 28.6937 42.1482C28.5547 42.1613 28.5355 42.2475 28.5451 42.3669C28.5687 42.6596 28.6002 42.9532 28.601 43.2468C28.601 43.915 28.5914 44.5824 28.5783 45.2506C28.5783 45.4344 28.6142 45.5581 28.8274 45.5755C29.0023 45.5903 29.039 45.6923 28.9673 45.8456C28.8869 46.0198 28.8143 46.1941 28.7304 46.3605C28.3936 47.0429 28.055 47.7242 27.7147 48.4043C27.4525 48.9271 27.1902 49.4454 26.9376 49.9725C26.914 50.0222 26.9831 50.1651 27.0425 50.1929C27.2225 50.2727 27.4102 50.3337 27.6028 50.375C28.0906 50.4822 28.5827 50.5719 29.0713 50.6765C29.3458 50.7348 29.3528 50.7383 29.4253 50.4752C29.4524 50.3837 29.468 50.2892 29.4717 50.1938C29.4778 48.6753 29.4778 47.1568 29.4839 45.6383C29.4839 45.4475 29.4044 45.3342 29.2217 45.3046C29.039 45.275 28.9551 45.1521 28.9551 44.97L28.9481 43.8706ZM32.4769 22.9616C32.4419 22.3169 32.4235 21.829 32.3895 21.3481C32.3667 21.0423 32.254 20.9865 31.9821 21.1103C31.9026 21.1468 31.8178 21.1695 31.7356 21.1974C31.0145 21.4587 30.6342 22.1095 30.5914 22.8074C30.5521 23.4373 30.8493 23.9356 31.3283 24.3329C31.5319 24.5019 31.7426 24.6517 32.0276 24.6657C32.2129 24.6744 32.3379 24.6325 32.3545 24.4182C32.3921 23.8807 32.4428 23.3432 32.4769 22.9607V22.9616ZM30.3633 31.8392V31.8827C30.7225 31.8827 31.0809 31.8871 31.4393 31.8827C31.6704 31.8808 31.9012 31.8665 32.1307 31.8401C32.1963 31.8322 32.2531 31.7529 32.3134 31.7007C32.2548 31.6397 32.2059 31.556 32.1342 31.5221C32.0494 31.496 31.9604 31.4862 31.872 31.4933C31.5293 31.4829 31.1867 31.4654 30.844 31.4663C30.1264 31.4663 29.4087 31.4802 28.6919 31.4829C28.3371 31.4829 28.1159 31.6841 27.9463 31.9594C27.8834 32.0613 27.8773 32.1938 28.0101 32.2399C28.0523 32.2477 28.0957 32.2445 28.1362 32.2308C28.1767 32.2171 28.2131 32.1932 28.2418 32.1615C28.3703 31.8732 28.6124 31.8418 28.8773 31.8409L30.3633 31.8392ZM31.143 39.7785V39.8317C31.4454 39.8317 31.7487 39.8369 32.0512 39.8317C32.1532 39.8283 32.2536 39.8062 32.3475 39.7663C32.3729 39.75 32.3941 39.7281 32.4096 39.7022C32.4251 39.6764 32.4343 39.6473 32.4367 39.6173C32.4367 39.3281 32.2435 39.1478 31.9419 39.1512C31.4568 39.1556 30.9708 39.1652 30.4848 39.1687C30.108 39.1687 30.108 39.1687 29.969 39.5232C29.8816 39.7428 29.8939 39.7698 30.1377 39.7768C30.4716 39.7855 30.8064 39.7785 31.143 39.7785Z" fill="#F1F3EF"/>
<path d="M30.1509 9.18688C30.1098 9.38639 30.0635 9.59373 30.025 9.80369C29.9682 10.1391 29.9271 10.478 29.8642 10.8117C29.8351 10.9835 29.7812 11.1501 29.7042 11.3065C29.6738 11.3457 29.6359 11.3785 29.5927 11.403C29.5495 11.4275 29.5018 11.4433 29.4525 11.4494C29.1623 11.5008 28.8677 11.5208 28.5784 11.5705C28.3607 11.6071 28.1474 11.6698 27.9324 11.7221C27.5705 11.8092 27.2043 11.8841 26.8485 11.9913C26.3634 12.1377 25.8826 12.3006 25.4062 12.4722C24.9692 12.6299 24.5321 12.7989 24.0994 12.9819C23.7428 13.1326 23.4001 13.3112 23.0461 13.4767C22.9065 13.5332 22.7705 13.598 22.6388 13.671C22.1702 13.9681 21.707 14.273 21.2402 14.5788C21.0033 14.7365 20.7708 14.902 20.5356 15.0632C20.0059 15.4282 19.4727 15.788 18.9483 16.16C18.8812 16.2175 18.7962 16.2499 18.7079 16.2516C18.6195 16.2534 18.5333 16.2244 18.464 16.1696C17.9282 15.7976 17.3967 15.4204 16.8617 15.0466C16.7193 14.9473 16.7306 14.8532 16.8486 14.7408C17.5419 14.0731 18.3003 13.476 19.1126 12.9583C19.7734 12.5463 20.4238 12.1159 21.0942 11.7204C21.4683 11.4991 21.8748 11.3309 22.2673 11.141C22.561 10.9999 22.8547 10.8579 23.151 10.7246C23.4473 10.5913 23.7436 10.4588 24.0461 10.343C24.5408 10.153 25.04 9.97184 25.54 9.79585C25.7286 9.73283 25.9206 9.68019 26.1151 9.63816C26.5924 9.52491 27.0723 9.4221 27.5487 9.3071C27.8249 9.24089 28.0941 9.14506 28.3721 9.0893C28.6133 9.04139 28.8625 9.03442 29.1072 9.00218C29.352 8.96995 29.6116 8.92552 29.8642 8.90286C30.0932 8.88544 30.1518 8.95078 30.1509 9.18688Z" fill="#F1F3EF"/>
<path d="M9.03661 35.3597C9.0305 34.8919 9.03661 34.8771 9.50689 34.9424C9.86615 34.9912 10.2184 35.0844 10.5751 35.1541C10.7542 35.189 10.9361 35.216 11.117 35.2412C11.4439 35.2926 11.4815 35.3223 11.5392 35.6542C11.6021 36.0201 11.6327 36.393 11.714 36.7545C11.8277 37.245 11.9763 37.7268 12.1126 38.2129C12.1633 38.3959 12.2 38.5832 12.2603 38.7635C12.4352 39.2863 12.6047 39.809 12.8014 40.3317C12.9544 40.7298 13.131 41.1201 13.3259 41.5009C13.6068 42.059 13.8999 42.6108 14.2053 43.1562C14.4334 43.5639 14.679 43.9629 14.9369 44.3532C15.1668 44.7017 15.4229 45.0345 15.6711 45.3716C15.8678 45.64 16.0627 45.9092 16.2717 46.1671C16.3792 46.2986 16.3591 46.3997 16.2717 46.526C15.9552 46.9729 15.6449 47.4242 15.3329 47.8746C15.2839 47.9469 15.2385 48.0219 15.1886 48.0942C15.0322 48.3242 14.9264 48.3416 14.7385 48.1377C14.5505 47.9339 14.3547 47.696 14.179 47.4617C13.6126 46.7072 13.0427 45.9553 12.4981 45.1861C12.2894 44.8684 12.101 44.5378 11.9343 44.1964C11.6292 43.624 11.3224 43.0507 11.0392 42.4696C10.8644 42.1212 10.7202 41.7614 10.5829 41.3981C10.3889 40.8867 10.2079 40.3709 10.034 39.8517C9.88625 39.4161 9.74115 38.9718 9.62315 38.5239C9.50514 38.0761 9.41423 37.6162 9.32245 37.1596C9.22193 36.657 9.13102 36.1517 9.04273 35.6464C9.03232 35.5512 9.03028 35.4553 9.03661 35.3597Z" fill="#F1F3EF"/>
<path d="M29.5783 56.0205C29.039 55.9281 28.497 55.8462 27.9594 55.7417C27.4778 55.6485 26.9979 55.537 26.5206 55.4254C26.3677 55.3906 26.2217 55.3287 26.0713 55.2817C25.4437 55.0865 24.8004 54.9332 24.1911 54.6893C23.3432 54.3556 22.5015 53.9923 21.692 53.5785C20.9833 53.2035 20.2963 52.789 19.6344 52.337C18.9526 51.8848 18.2987 51.3909 17.6431 50.9013C17.325 50.6634 17.0313 50.3994 16.7297 50.1381C16.5295 49.9638 16.5426 49.8523 16.7577 49.7025C17.2035 49.3984 17.6484 49.0926 18.0977 48.7929C18.5723 48.4775 18.5749 48.4845 19.0207 48.8278C19.6055 49.2773 20.1772 49.7478 20.7891 50.1572C21.4263 50.585 22.0932 50.9727 22.7698 51.336C23.2963 51.6119 23.8376 51.8589 24.3913 52.0756C25.0303 52.337 25.6894 52.5382 26.3292 52.7944C26.8799 53.0157 27.4577 53.1045 28.0337 53.2108C28.4874 53.2979 28.9367 53.3929 29.3895 53.4765C29.5285 53.5027 29.5643 53.575 29.5792 53.7039C29.6281 54.1125 29.6806 54.5229 29.754 54.9236C29.8056 55.2085 29.8921 55.4873 29.9664 55.7669C30.0014 55.8985 29.9533 55.9691 29.8222 55.9813C29.7426 55.9882 29.6622 55.9813 29.5827 55.9813L29.5783 56.0205Z" fill="#F1F3EF"/>
<path d="M35.1682 56.0588C35.0231 56.0518 34.9383 56.0396 34.9733 55.8627C35.0607 55.4202 35.1097 54.9706 35.1962 54.528C35.2571 54.2285 35.3371 53.9331 35.4357 53.6438C35.4584 53.6044 35.4896 53.5705 35.5269 53.5445C35.5642 53.5184 35.6068 53.5009 35.6516 53.493C36.0275 53.4251 36.4103 53.3937 36.788 53.3188C37.2539 53.223 37.7137 53.101 38.1734 52.979C38.6026 52.8658 39.0327 52.7525 39.4523 52.6096C39.8937 52.4589 40.3264 52.2777 40.7564 52.1009C41.1673 51.9318 41.5851 51.7733 41.9802 51.5685C42.5562 51.268 43.1305 50.9587 43.6751 50.6015C44.4417 50.1032 45.1803 49.5639 45.9286 49.0386C46.0299 48.9618 46.1249 48.877 46.2127 48.785C46.2632 48.7268 46.3348 48.691 46.4118 48.6853C46.4888 48.6795 46.5649 48.7045 46.6235 48.7545C47.1724 49.1335 47.7223 49.5116 48.2651 49.8993C48.4565 50.0361 48.4504 50.1424 48.2651 50.2948C47.4006 50.9918 46.5518 51.7123 45.5999 52.2934C44.9513 52.6898 44.2966 53.0775 43.6279 53.439C43.0361 53.7588 42.4286 54.0489 41.8141 54.3294C41.3771 54.5246 40.9286 54.6831 40.4785 54.8391C39.9027 55.0377 39.3229 55.2253 38.739 55.4019C38.5266 55.4672 38.3019 55.489 38.0834 55.5378C37.5965 55.6432 37.1123 55.766 36.6219 55.854C36.1315 55.942 35.6376 55.996 35.1682 56.0588Z" fill="#F1F3EF"/>
<path d="M9.46402 29.8136C9.04007 29.8371 9.0086 29.8188 9.03308 29.5017C9.05493 29.2177 9.10913 28.9354 9.15021 28.6532C9.15021 28.6296 9.1642 28.607 9.16857 28.5835C9.27084 28.0607 9.36087 27.5302 9.47888 27.0083C9.61087 26.4246 9.74111 25.8392 9.92205 25.2659C10.0916 24.7284 10.3215 24.2091 10.5278 23.6829C10.6834 23.2848 10.8206 22.8762 11.0095 22.4928C11.2997 21.9048 11.6301 21.3367 11.9386 20.7565C12.3949 19.8992 12.9631 19.1169 13.5444 18.3424C13.9552 17.797 14.3757 17.2586 14.7987 16.7228C15.0199 16.4432 15.1737 16.4423 15.3783 16.7368C15.7541 17.2778 16.116 17.8284 16.4709 18.3833C16.4861 18.4236 16.4916 18.4668 16.4867 18.5096C16.4818 18.5523 16.4668 18.5932 16.4429 18.629C16.0714 19.1038 15.6615 19.5516 15.3145 20.043C14.8774 20.6528 14.4744 21.2914 14.0968 21.9405C13.7472 22.5503 13.4273 23.1776 13.1283 23.8136C12.9098 24.2788 12.7411 24.7676 12.5628 25.2511C12.4264 25.6196 12.2935 25.9916 12.1895 26.3697C12.0558 26.8567 11.9517 27.3516 11.8346 27.8429C11.7664 28.1261 11.6956 28.4083 11.6301 28.6915C11.6085 28.7839 11.5931 28.8776 11.5837 28.972C11.5523 29.3205 11.4841 29.4329 11.1467 29.5026C10.5567 29.6289 9.96051 29.7247 9.46402 29.8136Z" fill="#F1F3EF"/>
<path d="M56.1706 29.7387C56.1505 30.075 56.1225 30.1055 55.7903 30.041C55.2615 29.9391 54.7353 29.8258 54.2082 29.7187C54.1693 29.7086 54.1295 29.7027 54.0893 29.7013C53.6522 29.7013 53.689 29.6499 53.6015 29.2491C53.5229 28.8876 53.4267 28.5295 53.355 28.1679C53.2921 27.8656 53.2676 27.5529 53.1863 27.2566C53.0203 26.6738 52.8288 26.0979 52.6391 25.5221C52.4888 25.0638 52.3428 24.6038 52.1628 24.1569C51.9937 23.7388 51.8026 23.3299 51.5902 22.932C51.3131 22.4092 51.0308 21.8865 50.7074 21.3873C50.2318 20.6581 49.7214 19.9507 49.2214 19.2389C49.1208 19.0969 48.9915 18.9776 48.8787 18.8434C48.8234 18.7849 48.7916 18.7082 48.7894 18.6279C48.7871 18.5476 48.8146 18.4692 48.8665 18.4078C49.2441 17.8685 49.6191 17.3275 50.0028 16.7908C50.1217 16.6235 50.2082 16.6166 50.3455 16.7725C50.5579 17.0095 50.7712 17.2473 50.9635 17.4991C51.4451 18.129 51.9337 18.7537 52.3822 19.4062C52.6732 19.8287 52.9014 20.2948 53.1514 20.7452C53.4905 21.3551 53.8393 21.9606 54.1522 22.5844C54.3603 22.9999 54.5185 23.4399 54.6863 23.8746C54.8795 24.3756 55.0631 24.88 55.2414 25.3862C55.3 25.5508 55.3288 25.7242 55.3734 25.8932C55.5185 26.4595 55.6854 27.0214 55.8026 27.5938C55.945 28.303 56.0482 29.0226 56.1706 29.7387Z" fill="#F1F3EF"/>
<path d="M35.1953 9.26794C35.1953 9.00658 35.2827 8.92904 35.5047 8.94995C35.8701 8.98567 36.2364 9.00919 36.5983 9.06669C36.8535 9.10677 37.1 9.20347 37.3535 9.2601C37.7031 9.33677 38.0589 9.38468 38.4024 9.47181C38.8395 9.58158 39.2696 9.71226 39.6996 9.84381C39.9505 9.92048 40.197 10.0093 40.4409 10.1052C40.9933 10.3247 41.5545 10.5295 42.0921 10.7812C42.8963 11.1576 43.7074 11.5287 44.4723 11.9765C45.2721 12.4444 46.0273 12.9906 46.7896 13.5194C47.1943 13.8 47.5763 14.111 47.9652 14.4168C48.1138 14.5353 48.245 14.6781 48.3822 14.808C48.4053 14.8246 48.4241 14.8465 48.4371 14.8717C48.4501 14.897 48.4568 14.925 48.4568 14.9535C48.4568 14.9819 48.4501 15.0099 48.4371 15.0352C48.4241 15.0604 48.4053 15.0823 48.3822 15.0989C48.1007 15.3429 47.8219 15.5894 47.5282 15.8177C47.2965 15.9972 47.0361 16.14 46.8044 16.3195C46.6471 16.4423 46.5264 16.4284 46.3822 16.3091C46.1008 16.0756 45.8167 15.843 45.523 15.6252C45.0973 15.3089 44.6716 14.99 44.2275 14.6999C43.7205 14.3712 43.2048 14.0596 42.6804 13.7651C42.2593 13.5274 41.8254 13.313 41.3805 13.123C40.7547 12.8617 40.1157 12.6212 39.4776 12.386C39.1883 12.2797 38.8876 12.2022 38.5912 12.1168C38.1542 11.9896 37.7119 11.8554 37.267 11.7457C36.822 11.6359 36.3867 11.5531 35.9392 11.4773C35.6507 11.4259 35.6018 11.4059 35.5467 11.1201C35.4969 10.8588 35.4777 10.5974 35.4278 10.3448C35.3666 10.0363 35.2862 9.73491 35.2163 9.42476C35.2062 9.37295 35.1992 9.32058 35.1953 9.26794Z" fill="#F1F3EF"/>
<path d="M56.0989 35.3109C56.0561 35.7134 56.0325 36.1185 55.9669 36.5175C55.8874 36.9993 55.786 37.4759 55.6715 37.9542C55.5456 38.4769 55.4162 38.9996 55.2502 39.5093C55.0675 40.0721 54.8542 40.6262 54.6304 41.175C54.4067 41.7239 54.1724 42.2858 53.9032 42.8225C53.5413 43.5447 53.1707 44.2652 52.7519 44.9543C52.2004 45.8621 51.6077 46.7464 50.8822 47.5322C50.6453 47.7884 50.4399 48.0724 50.2188 48.3433C50.0562 48.5437 50.0002 48.5533 49.8604 48.3529C49.46 47.7814 49.0684 47.2029 48.6803 46.6227C48.5929 46.4972 48.6646 46.3849 48.7511 46.2786C49.0877 45.8656 49.4259 45.4553 49.7476 45.0327C49.953 44.7627 50.1384 44.476 50.3184 44.1885C50.6681 43.6318 51.0317 43.0838 51.335 42.5036C51.6986 41.8067 52.0343 41.0949 52.3271 40.3674C52.5972 39.694 52.8096 38.9953 53.0177 38.2992C53.154 37.8461 53.2388 37.3774 53.3429 36.9157C53.4355 36.5088 53.5177 36.0994 53.6173 35.696C53.6298 35.6566 53.6509 35.6205 53.6792 35.5904C53.7075 35.5602 53.7422 35.5368 53.7808 35.5218C54.0491 35.4555 54.3227 35.4094 54.5955 35.3632C55.0325 35.2891 55.4757 35.2255 55.9145 35.148C56.0631 35.1201 56.1321 35.1532 56.0989 35.3109Z" fill="#F1F3EF"/>
<path d="M4.6494 30.1726C4.56986 30.1726 4.49031 30.1726 4.40989 30.1726C4.15553 30.1621 4.13367 30.1246 4.08035 29.8694C4.00605 29.5139 3.90553 29.1637 3.81812 28.81C3.75518 28.5408 3.70448 28.269 3.6433 27.9998C3.62519 27.9487 3.60176 27.8996 3.57337 27.8534C3.54802 27.8978 3.52092 27.9405 3.49819 27.9876C3.28578 28.404 3.23596 28.8588 3.14855 29.3109C3.09097 29.5474 3.01916 29.7801 2.93352 30.0079C2.93147 30.0158 2.92791 30.0232 2.92303 30.0297C2.69051 30.3189 2.37671 30.1403 2.10136 30.1595C1.92654 30.1717 1.88808 29.9852 1.86447 29.8476C1.7893 29.412 1.73248 28.972 1.65818 28.5356C1.5664 27.998 1.465 27.4622 1.36361 26.9264C1.32952 26.7426 1.2762 26.5623 1.24648 26.3776C1.2255 26.2478 1.30417 26.1911 1.43266 26.1938C1.54455 26.1938 1.65644 26.1938 1.76832 26.1938C2.07251 26.1938 2.15381 26.2809 2.20101 26.5771C2.27618 27.0519 2.36534 27.5241 2.45625 27.9963C2.46587 28.0486 2.52181 28.0912 2.5559 28.1383C2.59226 28.0923 2.62171 28.0412 2.64331 27.9867C2.75695 27.4875 2.86096 26.9866 2.97722 26.4873C3.02792 26.2678 3.13544 26.1964 3.37145 26.1938H3.61095C3.95536 26.1938 3.9606 26.1938 4.05238 26.5283C4.15815 26.9334 4.24644 27.342 4.34608 27.748C4.38542 27.9092 4.4335 28.0686 4.48332 28.2263C4.49206 28.2559 4.53314 28.2768 4.55937 28.3012C4.58122 28.2707 4.61881 28.2428 4.62405 28.2141C4.68437 27.8142 4.73419 27.4126 4.79888 27.0136C4.83734 26.7731 4.88629 26.5344 4.95185 26.2992C4.96675 26.2711 4.98865 26.2473 5.01543 26.23C5.04222 26.2128 5.07299 26.2027 5.10482 26.2007C5.31198 26.1903 5.52002 26.1964 5.72718 26.2007C5.84257 26.2007 5.8819 26.2661 5.86092 26.375C5.82071 26.5841 5.78313 26.794 5.74117 27.0031C5.62666 27.5833 5.50866 28.1627 5.39153 28.7455C5.37142 28.8466 5.37317 28.952 5.35481 29.0531C5.29537 29.378 5.23943 29.7039 5.16338 30.0245C5.14507 30.0602 5.11904 30.0915 5.08715 30.1161C5.05526 30.1406 5.0183 30.1578 4.97894 30.1665C4.8682 30.1807 4.75622 30.1828 4.64503 30.1726H4.6494Z" fill="#F1F3EF"/>
<path d="M35.1306 2.37058C35.1306 1.82172 35.1306 1.27286 35.1306 0.723126C35.1306 0.40862 35.1464 0.418203 35.4488 0.38684C35.8623 0.343279 36.1359 0.432142 36.3229 0.866876C36.5205 1.33646 36.8343 1.75899 37.1017 2.19808C37.1469 2.25527 37.1992 2.30651 37.2573 2.35054C37.2923 2.27823 37.3552 2.20679 37.357 2.13361C37.3675 1.66403 37.364 1.19445 37.3657 0.724869C37.3657 0.414718 37.3902 0.391196 37.7101 0.389453C37.8378 0.389453 37.9654 0.389453 38.0939 0.389453C38.253 0.389453 38.322 0.462635 38.3211 0.623808C38.3136 1.78135 38.3098 2.93658 38.3098 4.08948C38.3098 4.27766 38.2311 4.35084 38.0475 4.3369C38.0161 4.3369 37.9837 4.3369 37.9523 4.3369C37.2871 4.34126 37.2993 4.3369 36.9969 3.74099C36.774 3.30539 36.5117 2.88895 36.2609 2.46816C36.2329 2.42198 36.1612 2.40282 36.1096 2.37145C36.0774 2.41992 36.0545 2.474 36.0423 2.53088C36.0362 3.03183 36.0423 3.53365 36.0362 4.03459C36.0362 4.31773 36.0187 4.33254 35.7399 4.33603C35.6201 4.33603 35.5004 4.32906 35.3806 4.33603C35.1944 4.34997 35.1254 4.27156 35.128 4.08686C35.135 3.51622 35.1306 2.94384 35.1306 2.37058Z" fill="#F1F3EF"/>
<path d="M61.2361 28.1827C61.2361 27.6252 61.2361 27.0684 61.2361 26.5109C61.2361 26.2234 61.2667 26.1964 61.5534 26.1955C62.2562 26.1955 62.959 26.1955 63.6617 26.1955C63.9179 26.1955 63.9485 26.2295 63.9624 26.4821C63.9939 27.0667 63.9939 27.0667 63.4074 27.065C63.1032 27.065 62.7955 27.065 62.4966 27.065C62.2439 27.0702 62.2098 27.1198 62.2125 27.4195C62.2125 27.6887 62.2387 27.7201 62.4887 27.7227C62.8479 27.7271 63.2081 27.7297 63.5665 27.7227C63.7299 27.7227 63.7946 27.7802 63.7946 27.9449C63.7946 28.6331 63.8278 28.5068 63.243 28.519C62.9808 28.5251 62.7186 28.5251 62.4563 28.519C62.2815 28.519 62.2203 28.5974 62.2133 28.7664C62.1889 29.3345 62.202 29.3528 62.7824 29.3519C63.0936 29.3519 63.4056 29.3519 63.7168 29.3519C63.979 29.3571 64.0236 29.4103 64.0297 29.662C64.0437 30.1639 64.0158 30.1848 63.514 30.1787C62.8681 30.1708 62.2212 30.1734 61.5744 30.1787C61.292 30.1787 61.2378 30.1342 61.237 29.8476C61.237 29.2909 61.237 28.7333 61.237 28.1766L61.2361 28.1827Z" fill="#F1F3EF"/>
<path d="M35.6123 63.2707C35.7041 63.2637 35.7601 63.2637 35.8151 63.2559C35.99 63.2289 36.0905 63.282 36.1429 63.471C36.2758 63.9485 36.7845 64.0286 37.0441 63.7978C37.2531 63.6122 37.2041 63.1975 36.9462 63.0929C36.6884 62.9884 36.399 62.8917 36.1255 62.7906C35.3781 62.5153 35.1814 62.0196 35.33 61.3793C35.368 61.2036 35.4556 61.0423 35.5824 60.9145C35.7092 60.7867 35.87 60.6977 36.0459 60.6579C36.4752 60.5333 36.9323 60.5412 37.3571 60.6806C37.5224 60.739 37.6685 60.8415 37.7796 60.9768C37.8907 61.112 37.9625 61.275 37.9873 61.4481C38.0022 61.6058 37.948 61.6903 37.7801 61.6955C37.645 61.6977 37.5101 61.7082 37.3763 61.7269C37.3025 61.7467 37.2238 61.7367 37.1573 61.699C37.0909 61.6613 37.042 61.599 37.0214 61.5256C36.9087 61.2521 36.49 61.1772 36.2793 61.3819C36.1543 61.5039 36.1569 61.7164 36.3038 61.7957C36.4524 61.8684 36.6067 61.9287 36.7653 61.9761C37.1001 62.0919 37.4576 62.1503 37.7461 62.3838C37.8479 62.4601 37.9323 62.5569 37.9939 62.668C38.0556 62.7791 38.0929 62.902 38.1036 63.0285C38.1289 63.3534 38.1499 63.6723 37.9864 63.9807C37.9129 64.1259 37.8091 64.2539 37.682 64.356C37.555 64.4582 37.4075 64.5322 37.2496 64.5731C36.8454 64.6776 36.4209 64.6752 36.0179 64.5662C35.6193 64.4695 35.2199 63.9798 35.1823 63.5599C35.1596 63.3081 35.1823 63.2794 35.4305 63.2707C35.5048 63.2689 35.5765 63.2707 35.6123 63.2707Z" fill="#F1F3EF"/>
<path d="M34.5511 24.2292V28.3605C34.5511 28.8031 34.2556 29.0975 33.8054 29.1027C33.6131 29.1027 33.4217 29.0975 33.2303 29.1027C33.2006 29.1082 33.1701 29.1069 33.141 29.0989C33.1119 29.0908 33.085 29.0763 33.0624 29.0564C33.0397 29.0366 33.0219 29.0118 33.0103 28.9841C32.9986 28.9563 32.9934 28.9263 32.9951 28.8963C32.9881 28.8092 32.9829 28.722 32.9829 28.6349C32.9829 27.4808 32.9829 26.3265 32.9829 25.1719C32.9829 25.1248 32.9829 25.0769 32.9829 25.029C32.9675 24.9195 32.9879 24.808 33.0409 24.7109C33.0939 24.6138 33.1769 24.5363 33.2775 24.4897C33.4933 24.3699 33.6884 24.2164 33.8553 24.0349C34.1857 23.669 34.3885 23.2177 34.2923 22.7281C34.1962 22.2385 34.0213 21.7602 33.5878 21.4431C33.4634 21.3582 33.3325 21.2833 33.1962 21.2192C33.1306 21.1886 33.0757 21.139 33.0389 21.0768C33.0021 21.0146 32.985 20.9427 32.9899 20.8707C32.9899 20.449 32.9899 20.0274 32.9846 19.6048C32.9846 19.4306 33.0651 19.3644 33.2346 19.3696C33.4575 19.3766 33.6813 19.3696 33.9051 19.3696C34.0796 19.3793 34.2442 19.4538 34.3664 19.5785C34.4885 19.7032 34.5594 19.8689 34.565 20.0431C34.5502 21.437 34.5589 22.8309 34.5589 24.2249L34.5511 24.2292Z" fill="#F1F3EF"/>
<path d="M34.7583 36.2127C35.2295 36.2127 35.7006 36.197 36.1709 36.217C36.6412 36.2371 36.9654 35.8302 36.9654 35.4138C36.9654 34.7212 36.9654 34.0294 36.9654 33.3368C36.9654 32.984 36.9925 32.9648 37.3527 32.9622C37.6639 32.9622 37.9751 32.9491 38.2862 32.9526C38.5974 32.9561 38.7102 33.1312 38.6359 33.4422C38.5179 33.965 38.427 34.492 38.3212 35.0174C38.2591 35.3258 38.1857 35.6316 38.1245 35.94C38.0712 36.2118 38.0161 36.4836 37.9847 36.7581C37.9611 36.9645 37.8684 37.0508 37.6612 37.049C37.1665 37.049 36.6717 37.049 36.1752 37.0534C35.8544 37.0534 35.7924 37.1153 35.7828 37.4237C35.7653 38.0231 35.8405 38.1067 36.4401 38.003C37.0791 37.8941 37.1892 38.0405 37.1237 38.6181C37.1206 38.6738 37.1206 38.7296 37.1237 38.7854C37.1237 39.1208 37.1237 39.1243 36.7959 39.1713C36.6674 39.1896 36.5835 39.2445 36.5773 39.3778C36.566 39.5965 36.5607 39.8134 36.5546 40.0347C36.5502 40.2168 36.5546 40.3997 36.5415 40.5827C36.5284 40.7656 36.4218 40.8571 36.2259 40.8536C35.8107 40.8458 35.3955 40.8536 34.9803 40.8493C34.4454 40.8493 33.9104 40.8493 33.3755 40.8493C33.1132 40.8493 33.0328 40.7621 33.0302 40.5008C33.0302 40.3971 33.0354 40.2943 33.0389 40.1906C33.0503 39.8857 33.0896 39.8291 33.4026 39.816C33.7522 39.8012 34.1019 39.816 34.4515 39.8221C34.5393 39.8263 34.6272 39.8207 34.7137 39.8055C34.7433 39.7994 34.7713 39.7873 34.7961 39.7701C34.8209 39.7529 34.8419 39.7309 34.858 39.7054C34.9349 39.5111 34.6928 39.1626 34.4821 39.16C34.1071 39.1539 33.7312 39.16 33.3562 39.1548C33.0276 39.1548 32.9751 39.1042 32.9742 38.7836C32.9742 38.0361 32.9742 37.288 32.9742 36.5394C32.9742 36.2458 33.0136 36.2118 33.309 36.2109L34.7583 36.2127Z" fill="#F1F3EF"/>
<path d="M34.8134 32.9639C35.3002 32.9639 35.7871 32.9596 36.2749 32.9639C36.5319 32.9639 36.5686 33.0049 36.5695 33.2575C36.5695 33.9736 36.5738 34.6906 36.5695 35.4068C36.5695 35.7343 36.4637 35.8345 36.1324 35.8363C35.2 35.8409 34.2659 35.8409 33.33 35.8363C33.0678 35.8363 33.0004 35.7796 32.9969 35.5139C32.9865 34.7589 32.9844 34.0038 32.9908 33.2488C32.9908 33.0171 33.0782 32.9561 33.3309 32.9552H34.8169L34.8134 32.9639Z" fill="#F1F3EF"/>
</g>
<defs>
<clipPath id="clip0">
<rect width="65" height="65" fill="white"/>
</clipPath>
</defs>
</svg>
