<svg width="278" height="75" viewBox="0 0 278 75" fill="none" xmlns="http://www.w3.org/2000/svg">
    <g>
        <path
            d="M52.7155 54.481C52.5833 54.5447 52.4585 54.6226 52.3433 54.7132C51.7826 55.2671 51.0735 55.6179 50.4492 56.0773C50.009 56.4059 49.5525 56.7122 49.0815 56.9951C48.5409 57.3198 47.9822 57.6164 47.4204 57.9059C47.022 58.112 46.6135 58.2949 46.199 58.4708C45.964 58.5713 45.7138 58.6377 45.4718 58.7221C44.8939 58.9232 44.321 59.1383 43.739 59.3253C43.4491 59.4141 43.1536 59.484 42.8545 59.5344C42.1535 59.662 41.4495 59.7756 40.7475 59.9003C40.5458 59.9365 40.3955 60.0129 40.3532 60.2541C40.2523 60.8271 40.1293 61.3961 40.0022 61.963C39.9286 62.2897 39.8105 62.6074 39.743 62.9351C39.6613 63.3372 39.6189 63.7503 39.5463 64.1565C39.4848 64.5033 39.4061 64.8461 39.3345 65.1899C39.3052 65.3326 39.279 65.4763 39.2498 65.6191C39.1429 66.1358 39.0269 66.6515 38.9321 67.1702C38.8494 67.6205 38.7949 68.0749 38.7172 68.5273C38.6597 68.857 38.5841 69.1837 38.5155 69.5124C38.4843 69.6632 38.454 69.814 38.4147 69.9658C38.3138 70.4432 38.1918 70.9197 38.0959 71.4002C38.0163 71.8023 37.9689 72.2155 37.8942 72.6206C37.8206 73.0026 37.7167 73.3795 37.6461 73.7625C37.5927 74.05 37.5695 74.3436 37.5342 74.6351C37.5462 74.7022 37.5397 74.7714 37.5154 74.8351C37.4911 74.8989 37.4498 74.9548 37.396 74.997C37.3562 74.9445 37.3248 74.8862 37.3032 74.8241C37.2366 74.4541 37.1872 74.0822 37.1156 73.7183C37.049 73.3705 36.9572 73.0287 36.8866 72.6819C36.8523 72.512 36.8453 72.3371 36.8211 72.1652C36.7616 71.7511 36.7545 71.3188 36.6244 70.9268C36.4792 70.4855 36.4761 70.0301 36.3692 69.5878C36.2754 69.2008 36.2169 68.8047 36.1433 68.4127C36.0424 67.8759 35.9355 67.3401 35.8407 66.8043C35.7147 66.0785 35.6067 65.3507 35.4756 64.6259C35.4111 64.2701 35.3112 63.9222 35.2295 63.5684C35.2093 63.4885 35.1955 63.4072 35.1882 63.3251C35.1517 62.7517 35.0446 62.1848 34.8695 61.6373C34.7817 61.373 34.7797 61.0804 34.7363 60.801C34.7169 60.637 34.6883 60.4742 34.6506 60.3134C34.623 60.2054 34.5629 60.1084 34.4783 60.0354C34.3937 59.9625 34.2888 59.917 34.1776 59.9053C33.7338 59.8349 33.286 59.7857 32.8432 59.7043C32.6133 59.6487 32.3864 59.5816 32.1634 59.5032C31.4685 59.3022 30.7665 59.1222 30.0796 58.9001C29.5622 58.7302 29.0589 58.512 28.5587 58.2969C28.0584 58.0818 27.5652 57.8647 27.0861 57.6154C26.0426 57.0745 25.0487 56.4435 24.1158 55.7295C23.5867 55.3227 23.0585 54.9143 22.5313 54.5041C22.3478 54.3614 22.1733 54.3755 21.9262 54.5433C21.3493 54.9324 20.7643 55.3103 20.1904 55.7054C19.4844 56.194 18.7784 56.6986 18.0723 57.1891C17.7798 57.3902 17.4732 57.5752 17.1717 57.7641C17.1345 57.779 17.0947 57.7865 17.0547 57.7863C17.0575 57.7517 17.0657 57.7178 17.0789 57.6857C17.2806 57.3681 17.4682 57.0454 17.684 56.7388C18.037 56.2271 18.4082 55.7275 18.7662 55.2189C19.2988 54.4629 19.8293 53.7046 20.3578 52.944C20.5595 52.6515 20.5394 52.554 20.3225 52.2625C19.5802 51.2622 18.8147 50.2781 18.1278 49.2467C17.685 48.5793 17.3461 47.8394 16.9982 47.1146C16.6896 46.4753 16.4213 45.8148 16.159 45.1554C16.03 44.8071 15.9203 44.4521 15.8302 44.0919C15.687 43.5762 15.5468 43.0585 15.4268 42.5368C15.336 42.1497 15.2735 41.7547 15.1978 41.3636C15.1524 41.0555 15.0898 40.7501 15.0102 40.4489C14.9827 40.3844 14.9414 40.3267 14.8891 40.2798C14.8368 40.2329 14.7749 40.198 14.7077 40.1775C13.8473 39.9945 12.982 39.8367 12.1176 39.6748C11.2532 39.513 10.4111 39.3411 9.55577 39.1843C8.81748 39.0486 8.07415 38.935 7.33687 38.7952C6.98689 38.7289 6.648 38.6073 6.29903 38.5369C5.9208 38.4615 5.53552 38.4213 5.15427 38.356C4.79521 38.2946 4.43918 38.2162 4.08012 38.1549C3.5022 38.0544 2.92326 37.9539 2.34635 37.8483C1.8592 37.7578 1.37608 37.6543 0.890948 37.5538C0.632748 37.5005 0.374548 37.4472 0.117357 37.3859C0.0749961 37.3759 0.0417125 37.3236 0.00439453 37.2914C0.0501787 37.2685 0.0977362 37.2494 0.146606 37.2341C0.583327 37.1386 1.01803 37.0331 1.45778 36.9557C1.83701 36.8853 2.22128 36.8461 2.60152 36.7797C3.22382 36.6722 3.84411 36.5576 4.46439 36.44C4.99391 36.3394 5.51938 36.2178 6.0499 36.1294C6.52999 36.0489 7.01714 36.0087 7.49824 35.9353C7.85024 35.8821 8.1972 35.8006 8.54718 35.7343C9.0888 35.6338 9.63041 35.5423 10.172 35.4438C10.6763 35.3523 11.1806 35.2538 11.6849 35.1633C12.4787 35.0206 13.2724 34.8818 14.0652 34.7411C14.282 34.7019 14.5019 34.6728 14.7137 34.6134C14.8141 34.5932 14.9055 34.5418 14.9749 34.4667C15.0442 34.3917 15.088 34.2966 15.1 34.1953C15.1393 33.8867 15.1585 33.575 15.211 33.2684C15.2533 33.0191 15.329 32.7739 15.3955 32.5286C15.5972 31.7696 15.7859 31.0056 16.0198 30.2567C16.1842 29.729 16.4051 29.2173 16.6179 28.7057C16.7753 28.3267 16.9558 27.9557 17.1354 27.5868C17.3149 27.2179 17.4904 26.8439 17.6992 26.4901C18.1026 25.8045 18.5242 25.128 18.9468 24.4535C19.0757 24.2532 19.2175 24.0614 19.3714 23.8795C19.7271 23.4479 20.0872 23.0203 20.4516 22.5968C20.6533 22.3646 20.6765 22.1203 20.492 21.8409C20.1379 21.3071 19.7718 20.7813 19.4107 20.2516C19.0769 19.762 18.7441 19.2705 18.4082 18.7819C18.0512 18.2599 17.6934 17.7395 17.3351 17.2208C17.2934 17.1719 17.2554 17.1202 17.2211 17.066C17.2063 17.0167 17.1988 16.9656 17.1989 16.9142C17.2462 16.9265 17.2919 16.9444 17.3351 16.9675C17.7042 17.2218 18.0703 17.4811 18.4445 17.7345C19.0426 18.1436 19.6437 18.5477 20.2428 18.9568C20.8863 19.3965 21.5284 19.8378 22.1692 20.2807C22.4335 20.4637 22.5465 20.4687 22.8047 20.2667C23.3382 19.8485 23.8546 19.4052 24.4043 19.0091C24.9177 18.6392 25.4542 18.2994 26.0009 17.9797C26.6726 17.5877 27.3504 17.1987 28.0544 16.8669C28.6404 16.5905 29.2647 16.3935 29.8769 16.1713C30.2985 16.0185 30.7201 15.8697 31.1508 15.7441C31.6783 15.5953 32.2138 15.4757 32.7484 15.354C33.1296 15.2666 33.5149 15.1932 33.9002 15.1208C34.1352 15.0776 34.3722 15.0434 34.6062 15.0123C34.6651 15.0077 34.7209 14.9837 34.7645 14.944C34.8082 14.9043 34.8373 14.8512 34.8473 14.7931C35.0299 14.211 35.1522 13.6118 35.2124 13.0048C35.2457 12.6942 35.3758 12.3946 35.4464 12.086C35.4978 11.8638 35.5291 11.6367 35.5613 11.4105C35.6027 11.129 35.6249 10.8455 35.6743 10.5661C35.7237 10.2866 35.8024 9.98606 35.8649 9.69555C35.9033 9.51762 35.9355 9.33768 35.9718 9.15975C36.0798 8.63502 36.1988 8.11229 36.2936 7.58454C36.3753 7.13419 36.4227 6.67982 36.4953 6.22747C36.5498 5.89775 36.6234 5.57205 36.6879 5.24434C36.7283 5.04329 36.7656 4.8332 36.807 4.62813C36.9411 3.95864 37.0793 3.29015 37.2104 2.61765C37.2487 2.4166 37.2659 2.21555 37.3032 2.02053C37.4202 1.40332 37.5409 0.787103 37.6653 0.171896C37.6838 0.110528 37.7121 0.0525014 37.749 0C37.7954 0.050262 37.871 0.0944926 37.8821 0.151791C37.9547 0.520715 38.0052 0.893659 38.0768 1.26258C38.1554 1.67172 38.2513 2.07783 38.334 2.48697C38.3562 2.59352 38.3562 2.7051 38.3703 2.81367C38.4379 3.33941 38.454 3.87822 38.5902 4.38586C38.7485 4.97996 38.7788 5.59215 38.9331 6.18323C39.0933 6.84771 39.2092 7.52202 39.28 8.20176C39.3254 8.55962 39.4626 8.90543 39.5292 9.25927C39.6108 9.70057 39.6512 10.1499 39.7309 10.5912C39.7984 10.9652 39.9013 11.3331 39.979 11.706C40.0113 11.8578 40.0173 12.0136 40.0395 12.1674C40.097 12.5565 40.1484 12.9465 40.219 13.3325C40.2997 13.7798 40.4006 14.2221 40.4853 14.6685C40.4945 14.7465 40.529 14.8194 40.5836 14.876C40.6383 14.9327 40.71 14.9699 40.7879 14.9821C41.1389 15.0505 41.4939 15.1058 41.8419 15.1781C42.2705 15.2666 42.7032 15.346 43.1238 15.4676C43.8251 15.6687 44.5214 15.8875 45.2126 16.1241C45.7068 16.2919 46.199 16.4749 46.676 16.688C47.2681 16.9534 47.8561 17.2338 48.4209 17.5515C49.0422 17.9003 49.6524 18.2733 50.2364 18.6814C51.0433 19.2423 51.8158 19.8445 52.6035 20.4305C52.8335 20.6024 52.9485 20.5883 53.2702 20.3672C54.0569 19.8294 54.8487 19.2986 55.6344 18.7588C56.3606 18.2632 57.0817 17.7606 57.8079 17.265C57.8774 17.2323 57.951 17.209 58.0268 17.1956C58.0167 17.271 58.0268 17.3635 57.9925 17.4198C57.6425 17.9325 57.2864 18.4391 56.9284 18.9468C56.4675 19.6062 56.0035 20.2646 55.5456 20.9261C55.2693 21.3282 55.005 21.7303 54.7327 22.1324C54.6106 22.3113 54.648 22.45 54.7771 22.6239C55.4881 23.5779 56.1951 24.5339 56.881 25.508C57.4072 26.2662 57.853 27.0767 58.2113 27.9266C58.5139 28.6202 58.7822 29.3259 59.0434 30.0376C59.3532 30.8458 59.5895 31.6802 59.7494 32.5306C59.8503 33.1488 60.0016 33.76 60.1226 34.3762C60.131 34.4727 60.1724 34.5634 60.2397 34.6333C60.307 34.7032 60.3963 34.748 60.4928 34.7602C61.3944 34.9237 62.2951 35.0913 63.1948 35.2628C63.4358 35.3091 63.6698 35.3865 63.9109 35.4337C64.4767 35.5453 65.0456 35.6428 65.6114 35.7554C66.0521 35.8429 66.4889 35.9494 66.9296 36.0369C67.7819 36.2068 68.6331 36.3817 69.4884 36.5314C70.3003 36.6732 71.1183 36.7787 71.9312 36.9104C72.1642 36.9486 72.3911 37.029 72.6231 37.0753C73.1526 37.1818 73.6842 37.2763 74.2137 37.3829C74.4719 37.4352 74.7291 37.4975 74.9842 37.5628C75.0037 37.5985 75.0084 37.6403 74.9973 37.6794C74.9169 37.7391 74.8259 37.7831 74.7291 37.8091C74.2863 37.8845 73.8385 37.9348 73.3967 38.0102C72.9751 38.0866 72.5596 38.1991 72.138 38.2776C71.7164 38.356 71.2645 38.4092 70.8268 38.4856C70.377 38.564 69.9302 38.6616 69.4813 38.743C69.084 38.8144 68.6825 38.8716 68.2841 38.944C67.679 39.0506 67.0738 39.1612 66.4687 39.2717C65.5862 39.4326 64.7057 39.6035 63.8211 39.7543C62.99 39.896 62.1539 40.0046 61.3238 40.1563C60.967 40.2307 60.6156 40.3288 60.2719 40.4499C60.2331 40.469 60.199 40.4964 60.172 40.5301C60.1449 40.5638 60.1257 40.603 60.1155 40.6449C60.0621 40.8761 60.0409 41.1143 59.9945 41.3486C59.9522 41.5617 59.8856 41.7698 59.8442 41.9829C59.7706 42.3588 59.7282 42.7428 59.6355 43.1138C59.5346 43.5159 59.3934 43.918 59.2613 44.313C58.93 45.3186 58.5338 46.3018 58.0752 47.2564C57.6233 48.1993 57.1462 49.1271 56.5441 49.9796C55.9813 50.7777 55.358 51.5347 54.7458 52.2976C54.5068 52.5992 54.4674 52.8465 54.7065 53.1903C55.3631 54.1382 56.0338 55.0771 56.6863 56.0281C57.0958 56.6232 57.4851 57.2344 57.8785 57.8375C57.8993 57.8945 57.9089 57.9549 57.9067 58.0155C57.8433 58.0063 57.7817 57.9873 57.7242 57.9592C56.7983 57.3138 55.8764 56.6634 54.9526 56.016C54.2748 55.5422 53.5963 55.0708 52.9172 54.6017C52.8628 54.5584 52.7972 54.5283 52.7155 54.481ZM37.749 26.672V36.7295C37.7415 36.8211 37.7452 36.9132 37.7601 37.0039C37.7902 37.0723 37.8307 37.1357 37.8801 37.1919C37.9366 37.1416 38.0314 37.0984 38.0435 37.0391C38.0959 36.7807 38.2654 36.7375 38.4923 36.7375C39.4969 36.7436 40.5014 36.7436 41.506 36.7375C41.8217 36.7375 42.1112 36.7425 42.2544 37.1095C42.2776 37.1708 42.4349 37.1808 42.5307 37.215C42.558 37.1205 42.6316 37.014 42.6033 36.9335C42.5025 36.6189 42.3008 36.3867 41.9447 36.3445C41.7618 36.325 41.578 36.3156 41.394 36.3163C40.4086 36.3093 39.4222 36.3093 38.4368 36.2962C38.3279 36.2962 38.1343 36.245 38.1262 36.1897C38.0803 35.9879 38.0765 35.7788 38.1151 35.5755C38.1585 35.3865 38.3632 35.4257 38.5185 35.4287C38.9795 35.4357 39.4404 35.4418 39.9003 35.4589C40.1454 35.4679 40.2947 35.3583 40.3219 35.1251C40.3718 34.7619 40.4 34.396 40.4066 34.0294C40.4016 32.5326 40.3663 31.0358 40.3663 29.539C40.3663 28.1719 40.3945 26.8037 40.4228 25.4366C40.4267 25.3769 40.444 25.3189 40.4733 25.2668C40.5026 25.2146 40.5432 25.1696 40.5922 25.135C40.9654 24.9581 41.3537 24.8154 41.737 24.6616C41.9106 24.6047 42.0807 24.5376 42.2463 24.4605C42.4682 24.3389 42.6497 24.1791 42.6497 23.8875C42.6497 23.0602 42.6618 22.2339 42.6397 21.4076C42.6267 21.1625 42.5625 20.9228 42.451 20.7039C42.2907 20.3772 41.9538 20.3561 41.6371 20.3541C40.5952 20.3481 39.5544 20.3481 38.5105 20.3471C38.1232 20.3471 38.0647 20.2948 38.0606 19.9018C38.0566 19.5814 38.0566 19.2601 38.0606 18.9377C38.0606 18.6301 38.0879 18.605 38.3904 18.605C40.2059 18.605 42.0214 18.605 43.8369 18.605C43.9849 18.598 44.1321 18.6319 44.2622 18.7028C44.3922 18.7737 44.5002 18.879 44.5741 19.0071C44.7859 19.4092 44.9856 19.8455 45.0391 20.2868C45.1763 21.4237 45.3134 22.5646 45.268 23.7156C45.2608 23.9359 45.2662 24.1564 45.2842 24.3761C45.2861 24.4664 45.3169 24.5537 45.3719 24.6254C45.5283 24.7912 45.6846 24.9782 45.8762 25.0838C46.1919 25.2526 46.2797 25.4999 46.2797 25.8256C46.2736 26.6067 46.2797 27.3878 46.2797 28.1678C46.2716 29.4894 46.2602 30.8116 46.2454 32.1345C46.2541 32.2256 46.2377 32.3174 46.198 32.3999C46.0225 32.6532 45.8258 32.8925 45.6382 33.1378C45.5667 33.2209 45.5035 33.3108 45.4496 33.4062C45.2196 33.8836 45.1773 34.3993 45.1248 34.914C45.0809 35.4973 45.0018 36.0773 44.8878 36.6511C44.7617 37.209 44.787 37.2864 45.3518 37.2864H52.4533H58.4806C58.9849 37.2864 59.0969 37.1567 59.0394 36.6521C59.0122 36.4058 59.0021 36.1585 58.9849 35.9112C58.9486 35.3895 58.9436 34.8638 58.8689 34.3481C58.7903 33.7992 58.647 33.2594 58.528 32.7156C58.4857 32.5195 58.4443 32.3215 58.3828 32.1305C58.1811 31.5153 57.9864 30.8991 57.7776 30.2889C57.6132 29.7765 57.4216 29.2732 57.2037 28.781C56.878 28.0975 56.526 27.424 56.1346 26.7766C55.6303 25.9463 55.1099 25.125 54.538 24.3419C54.1013 23.7388 53.5698 23.215 53.0867 22.6501C52.8678 22.3948 52.8708 22.3676 53.0978 22.1334C53.6357 21.5792 54.1736 21.027 54.7115 20.4768C54.9677 20.2144 55.2269 19.955 55.476 19.6876C55.5202 19.6224 55.5542 19.5509 55.5769 19.4755C55.5012 19.4775 55.4264 19.4928 55.356 19.5208C55.1916 19.6213 55.0383 19.7369 54.8799 19.8445L52.5208 21.4528C52.1477 21.7072 52.1174 21.7001 51.7563 21.4136C51.0402 20.8417 50.3514 20.2295 49.5949 19.7158C48.3123 18.8609 46.9432 18.1426 45.5101 17.5726C45.1884 17.4409 44.8576 17.3283 44.5257 17.2228C43.8913 17.0217 43.2599 16.7986 42.6094 16.6458C41.8889 16.4721 41.1588 16.3412 40.4228 16.2537C39.63 16.1623 38.8272 16.1532 38.0294 16.106C37.8327 16.0949 37.7449 16.2065 37.748 16.3955C37.748 16.487 37.748 16.5784 37.748 16.6709L37.749 26.672ZM48.3291 37.6563V37.6704H44.5701C42.4406 37.6704 40.3118 37.6721 38.1837 37.6754C37.7732 37.6754 37.753 37.6995 37.749 38.1167C37.749 38.181 37.749 38.2454 37.749 38.3097C37.749 40.5775 37.749 42.846 37.749 45.1152C37.749 49.5242 37.749 53.9328 37.749 58.3411C37.749 58.7754 37.9507 58.9443 38.3864 58.89C38.5498 58.8679 38.7102 58.8156 38.8746 58.8016C39.3173 58.7634 39.3375 58.7513 39.3375 58.31C39.3375 56.5096 39.3305 54.7092 39.3375 52.9088C39.3375 52.2655 39.2619 52.2132 38.6739 52.2625C38.1272 52.3087 38.0687 52.2393 38.0687 51.6915C38.0637 50.442 38.0687 49.1935 38.0687 47.9449C38.0687 47.5107 38.098 47.4825 38.5468 47.4815C39.8459 47.4815 41.1449 47.4815 42.444 47.4815C42.5455 47.4735 42.6476 47.4817 42.7466 47.5057C42.8222 47.5328 42.9291 47.6122 42.9332 47.6735C42.9615 47.9278 42.9564 48.1846 42.918 48.4375C42.8515 48.7582 42.8383 48.7753 43.1692 48.7994C43.2519 48.8054 43.3346 48.8064 43.4173 48.8115C43.6019 48.8215 43.6785 48.7351 43.6916 48.5511C43.7158 48.2194 43.7854 48.1631 44.1142 48.1571C44.2299 48.1469 44.346 48.1721 44.4469 48.2294C44.5478 48.2867 44.6288 48.3734 44.679 48.4777C44.9816 49.0648 45.2842 49.6498 45.5787 50.2369C45.7683 50.6108 45.9478 50.9898 46.1405 51.3618C46.4666 51.9944 46.7961 52.6247 47.1289 53.2526C47.5555 54.0568 47.9812 54.8701 48.4229 55.6652C48.4623 55.7356 48.6186 55.7788 48.7164 55.7728C48.8257 55.7523 48.9278 55.7042 49.013 55.633C49.4537 55.3224 49.9056 55.0218 50.3241 54.6841C51.0231 54.1211 51.7039 53.5351 52.3867 52.9521C52.426 52.9135 52.473 52.8837 52.5246 52.8644C52.5762 52.845 52.6313 52.8367 52.6863 52.84C52.7413 52.8432 52.7951 52.8579 52.844 52.883C52.893 52.9082 52.9362 52.9434 52.9707 52.9862C53.2037 53.2205 53.4437 53.4476 53.6767 53.6819C54.2586 54.2679 54.8366 54.857 55.4205 55.44C55.5043 55.5095 55.5949 55.5705 55.6909 55.622C55.6687 55.5214 55.6515 55.4209 55.6213 55.3204C55.5998 55.2696 55.5717 55.222 55.5375 55.1787C55.3066 54.8268 55.0786 54.475 54.8416 54.1232C54.4644 53.5723 54.0852 53.0224 53.6989 52.4776C53.4286 52.0956 53.4235 51.9478 53.7291 51.5779C54.0347 51.208 54.3635 50.8642 54.65 50.4842C55.3719 49.5373 56.0075 48.5281 56.5492 47.4685C56.8235 46.923 57.0827 46.3694 57.3268 45.8078C57.5154 45.3735 57.6828 44.9282 57.8311 44.4799C58.0419 43.8506 58.2406 43.2163 58.4201 42.578C58.527 42.201 58.5885 41.81 58.6692 41.425C58.7459 41.0601 58.8316 40.6972 58.8921 40.3292C58.9355 40.0679 58.9476 39.8005 58.9658 39.5351C58.998 39.0777 59.0394 38.6203 59.0505 38.1619C59.0596 37.7709 58.9496 37.6714 58.5623 37.6684C57.549 37.661 56.5354 37.657 55.5214 37.6563C53.123 37.655 50.7255 37.655 48.3291 37.6563ZM26.7281 37.6563V37.6704H22.2772C20.3689 37.6704 18.461 37.6704 16.5534 37.6704C16.15 37.6704 16.1197 37.6975 16.1348 38.0956C16.16 38.746 16.2054 39.3964 16.2488 40.0468C16.26 40.3216 16.2879 40.5956 16.3325 40.867C16.4334 41.4038 16.5584 41.9366 16.6754 42.4754C16.713 42.6827 16.7618 42.8877 16.8217 43.0896C17.0143 43.6596 17.2039 44.2306 17.4268 44.7885C17.7153 45.5093 17.9916 46.2391 18.3527 46.9226C18.857 47.8756 19.4097 48.8044 19.9866 49.7152C20.3532 50.2628 20.7509 50.789 21.1778 51.2914C21.4602 51.6382 21.783 51.9549 22.0855 52.2795C22.2499 52.4525 22.2197 52.6022 22.0654 52.757C21.3055 53.5163 20.5464 54.2763 19.788 55.0369C19.6528 55.1726 19.5217 55.3134 19.3966 55.4601C19.3673 55.5118 19.3465 55.5678 19.3351 55.626C19.4043 55.63 19.4737 55.63 19.5429 55.626C19.5751 55.626 19.6034 55.5858 19.6336 55.5657L22.7411 53.4396C22.82 53.3743 22.9204 53.3407 23.0229 53.3453C23.1253 53.35 23.2223 53.3925 23.2948 53.4647C24.2026 54.2981 25.2112 55.0007 26.2399 55.6763C26.5304 55.8683 26.6071 55.8351 26.7553 55.5184C26.9419 55.1163 27.1356 54.7263 27.3393 54.3373C27.8133 53.4326 28.3015 52.5278 28.7725 51.6231C29.3202 50.5686 29.8477 49.5051 30.4024 48.4546C30.4873 48.3314 30.6166 48.2457 30.7635 48.2154C31.1024 48.139 31.1841 48.0867 31.2194 47.7409C31.2365 47.5821 31.294 47.5147 31.4574 47.5127C32.3238 47.4976 33.1891 47.4624 34.0555 47.4604C35.0409 47.4604 36.0263 47.4835 37.0127 47.4936C37.1438 47.4936 37.2931 47.4936 37.2941 47.3086C37.2941 47.1076 37.1287 47.1528 37.0087 47.1428C36.926 47.1357 36.8423 47.1428 36.7596 47.1428C35.6451 47.1428 34.5296 47.1498 33.414 47.1428C32.6818 47.1428 32.5779 47.3227 32.6536 46.3144C32.6748 46.039 32.7101 45.8199 32.581 45.5474C32.4751 45.3253 32.4125 45.1846 32.1503 45.2057C31.9667 45.2197 31.883 45.1232 31.887 44.9383C31.8931 44.69 31.8961 44.4417 31.887 44.1944C31.878 43.9471 31.9879 43.8928 32.2017 43.8928C32.5517 43.8928 32.9007 43.8647 33.2507 43.8456C33.4524 43.8355 33.5532 43.735 33.5442 43.5279C33.5442 43.4455 33.5442 43.3631 33.5442 43.2796C33.5442 42.8775 33.4625 42.7971 33.058 42.7871C32.4872 42.774 31.9153 42.77 31.3434 42.7589C31.0408 42.7529 31.0045 42.7147 30.9733 42.4091C30.942 42.1035 30.9097 41.8059 30.8532 41.5114C30.7826 41.1475 30.6727 40.7917 30.6021 40.4278C30.4841 39.8115 30.3933 39.1893 30.2713 38.5741C30.2108 38.2725 30.2854 38.0584 30.5285 38.0504C30.9884 38.0333 31.4493 38.0363 31.9102 38.0353C31.9474 38.0315 31.9849 38.0361 32.02 38.0485C32.0552 38.061 32.0872 38.081 32.1136 38.1073C32.14 38.1335 32.1603 38.1653 32.1729 38.2003C32.1855 38.2353 32.1902 38.2727 32.1866 38.3097C32.1916 38.4565 32.1957 38.6032 32.1957 38.751C32.1957 39.3934 32.1634 40.0377 32.1957 40.6791C32.235 41.3827 32.4761 41.823 33.292 41.8039C34.5084 41.7748 35.7257 41.7939 36.9421 41.7929C37.0056 41.8036 37.0708 41.7984 37.1317 41.7778C37.1973 41.7356 37.28 41.6582 37.282 41.5938C37.2772 41.552 37.2624 41.512 37.2389 41.477C37.2154 41.442 37.1838 41.4132 37.1469 41.3928C37.049 41.363 36.946 41.3534 36.8443 41.3646C36.0979 41.3646 35.3516 41.363 34.6052 41.3596C34.117 41.3596 33.6279 41.3657 33.1397 41.3596C32.7907 41.3536 32.6707 41.249 32.6213 40.9133C32.5877 40.6867 32.5722 40.4578 32.5749 40.2287C32.582 39.7261 32.6173 39.2235 32.6223 38.7148C32.6294 38.0494 32.6415 38.0272 33.2991 38.0313C34.4509 38.0383 35.6027 38.0504 36.7545 38.0574C36.8832 38.0631 37.012 38.0499 37.1368 38.0182C37.1699 38.0008 37.1983 37.9757 37.2197 37.9451C37.2411 37.9145 37.2548 37.8792 37.2598 37.8423C37.2598 37.795 37.1922 37.7196 37.1368 37.6935C37.0669 37.6709 36.993 37.6631 36.9199 37.6704L26.7281 37.6563ZM23.1244 37.2834H23.899C25.7972 37.2834 27.6953 37.285 29.5935 37.2884C30.0161 37.2884 30.1109 37.1688 30.0403 36.8079C29.9142 36.1645 29.8134 35.5162 29.6913 34.8718C29.651 34.6597 29.6449 34.3611 29.5078 34.2636C29.2597 34.0877 29.2526 33.8897 29.2526 33.6474C29.2526 32.4264 29.2486 31.2047 29.2405 29.9823C29.2405 29.6807 29.1396 29.6335 28.8663 29.729C28.6858 29.7878 28.4974 29.8193 28.3075 29.8225C28.005 29.8305 27.8103 29.6295 27.8032 29.3299C27.8032 29.1922 27.8032 29.0545 27.8032 28.9168C27.7952 28.6222 27.7236 28.5488 27.427 28.5227C27.1598 28.4996 27.1164 28.4433 27.1376 28.1799C27.1527 27.999 27.2455 27.9286 27.423 27.9165C27.7972 27.8894 27.7972 27.8824 27.8032 27.5094C27.8032 27.3616 27.777 27.2078 27.8164 27.0711C27.8506 26.9545 27.9576 26.7806 28.0433 26.7696C28.3902 26.7424 28.7543 26.6338 29.0831 26.8651C29.2163 26.9575 29.3706 26.8872 29.417 26.7143C29.4362 26.6245 29.4434 26.5325 29.4382 26.4408C29.4382 25.7894 29.4321 25.134 29.4382 24.4846C29.4463 24.2826 29.4662 24.0812 29.4977 23.8815C29.5408 23.6758 29.5708 23.4677 29.5874 23.2583C29.5874 22.1937 29.651 21.1362 29.9354 20.1048C30.0134 19.8045 30.1121 19.5099 30.2309 19.2232C30.4155 18.795 30.706 18.5407 31.2304 18.5809C31.7549 18.6211 32.2804 18.5809 32.8059 18.5809C33.874 18.5809 34.9421 18.5899 36.0102 18.5899C36.3319 18.5899 36.6557 18.5899 36.9754 18.5608C37.2538 18.5356 37.3213 18.4472 37.3274 18.1657C37.3375 17.6148 37.3405 17.0599 37.3445 16.5131C37.3445 16.12 37.3244 16.104 36.9179 16.0969C35.6676 16.0767 34.4203 16.2258 33.2103 16.5402C32.6364 16.686 32.0575 16.8116 31.4816 16.9534C31.257 17.0041 31.0358 17.0682 30.8189 17.1454C30.2713 17.3515 29.7256 17.5616 29.186 17.7877C28.6817 17.9998 28.1694 18.214 27.6812 18.4663C27.1318 18.741 26.5993 19.0481 26.0866 19.3861C25.307 19.9138 24.5505 20.4768 23.8022 21.0487C23.4683 21.3051 23.1799 21.6207 22.8682 21.9062C22.6796 22.0771 22.5273 22.0871 22.3578 21.9273C21.8707 21.4669 21.3916 20.9975 20.9045 20.5371C20.4768 20.135 20.0441 19.7329 19.6104 19.3408C19.568 19.3135 19.5213 19.2934 19.4723 19.2815C19.452 19.338 19.4388 19.3967 19.4329 19.4564C19.4416 19.5011 19.4626 19.5425 19.4934 19.5761C19.8313 20.0646 20.1753 20.5501 20.5091 21.0417C20.8843 21.5946 21.2494 22.1475 21.6186 22.7074C21.6831 22.7868 21.7138 22.8884 21.7038 22.9902C21.6937 23.092 21.6439 23.1858 21.5651 23.2512C20.7866 24.0684 20.0948 24.9635 19.5005 25.9221C19.1082 26.5494 18.7521 27.2008 18.4102 27.8572C18.156 28.3438 17.9372 28.8494 17.7304 29.3581C17.5075 29.9049 17.3078 30.4638 17.1152 31.0187C17.0284 31.269 16.9831 31.5334 16.9195 31.7917C16.7702 32.41 16.5988 33.0242 16.4677 33.6494C16.3681 34.1323 16.2947 34.6203 16.2478 35.111C16.1893 35.7222 16.1691 36.3364 16.1328 36.9496C16.1217 37.1446 16.2266 37.2391 16.4112 37.2512C16.622 37.2663 16.8338 37.2834 17.0456 37.2834C19.0735 37.2847 21.0998 37.2847 23.1244 37.2834ZM34.9935 27.9708C34.9935 27.2913 34.9935 26.6117 34.9935 25.9322C34.9935 24.9953 34.9935 24.0584 35.0066 23.1175C35.0127 22.6712 35.2961 22.3083 35.7742 22.3465C36.1494 22.3757 36.5286 22.3535 36.9068 22.3525C37.3022 22.3525 37.4444 22.2239 37.4383 21.8288C37.4323 21.4337 37.397 21.0407 37.3748 20.6466C37.3617 20.4164 37.2306 20.329 37.0107 20.33C35.6844 20.335 34.3581 20.336 33.0308 20.3441C32.7776 20.3441 32.5386 20.4355 32.4367 20.6738C32.3279 20.913 32.2626 21.1697 32.2441 21.4317C32.2179 22.1354 32.2612 22.8471 32.2239 23.5518C32.1977 24.0544 32.4387 24.3138 32.8492 24.4997C33.2839 24.6957 33.7136 24.9018 34.1463 25.1029C34.3904 25.2155 34.5497 25.3843 34.5497 25.6698C34.5497 25.9553 34.5669 26.2388 34.5638 26.5233C34.5326 29.0303 34.4953 31.5364 34.4711 34.0435C34.4784 34.4192 34.5053 34.7944 34.5517 35.1673C34.5709 35.3613 34.6909 35.4498 34.8926 35.4478C35.5987 35.4478 36.3117 35.4408 37.0208 35.4478C37.0936 35.4552 37.1666 35.436 37.2263 35.3939C37.286 35.3518 37.3284 35.2895 37.3455 35.2186C37.4968 34.7833 37.4192 34.3471 37.3798 33.9118C37.3587 33.6796 37.2528 33.57 37.0057 33.5791C36.6194 33.5921 36.2321 33.5901 35.8448 33.5791C35.3233 33.566 35.0016 33.2503 34.9996 32.7357C34.9945 31.1474 34.9975 29.5591 34.9975 27.9708H34.9935ZM40.8433 55.4209C40.8433 56.3488 40.8433 57.2756 40.8433 58.2024C40.8433 58.5382 40.924 58.6106 41.2549 58.5965C41.3549 58.5879 41.4539 58.5698 41.5504 58.5422C41.853 58.4648 42.1555 58.3844 42.451 58.305C42.911 58.1833 43.3689 58.0597 43.8288 57.9411C43.8566 57.9371 43.8831 57.9266 43.9061 57.9106C43.9292 57.8946 43.9482 57.8735 43.9616 57.8489C43.975 57.8243 43.9825 57.7969 43.9834 57.769C43.9843 57.741 43.9787 57.7132 43.967 57.6877C43.9144 57.504 43.8469 57.3248 43.7652 57.1519C43.5454 56.7117 43.3053 56.2814 43.0865 55.8451C42.8787 55.429 42.6911 55.0027 42.4884 54.5836C42.216 54.0186 41.9346 53.4567 41.6684 52.8877C41.6539 52.8501 41.649 52.8094 41.6541 52.7695C41.6592 52.7295 41.6742 52.6914 41.6976 52.6585C41.8923 52.5037 41.8993 52.2997 41.8933 52.0855C41.8822 51.1587 41.8681 50.2319 41.8671 49.305C41.8671 49.1362 41.9266 48.9683 41.9437 48.8024C41.9453 48.7735 41.9399 48.7446 41.928 48.7182C41.9161 48.6918 41.8979 48.6686 41.8751 48.6506C41.6583 48.5642 41.5141 48.6506 41.504 48.8909C41.4798 49.5222 41.4687 50.1555 41.4626 50.7878C41.4626 51.1456 41.4798 51.5035 41.4798 51.8614C41.4798 52.0493 41.4112 52.1961 41.2044 52.2554C40.8595 52.3559 40.8484 52.366 40.8464 52.7319C40.8494 53.6226 40.8524 54.5222 40.8524 55.4209H40.8433ZM65.6164 37.6593V37.6644C67.1273 37.6644 68.6378 37.6644 70.148 37.6644C70.3136 37.6651 70.479 37.6516 70.6422 37.6241C70.6987 37.6141 70.7431 37.5337 70.7915 37.4854C70.7421 37.4412 70.6987 37.3698 70.6422 37.3568C70.375 37.2954 70.1036 37.2482 69.8354 37.2009C69.4198 37.1276 69.0033 37.0632 68.5887 36.9878C68.0209 36.8873 67.4541 36.7777 66.8872 36.6712C66.8156 36.6581 66.744 36.643 66.6724 36.6269C66.2992 36.5465 65.9271 36.451 65.5499 36.3877C65.0526 36.3023 64.5483 36.256 64.0521 36.1665C63.6305 36.0891 63.216 35.9725 62.7984 35.875C62.395 35.7815 62.0006 35.674 61.5962 35.6026C61.2442 35.5393 60.8901 35.5021 60.5291 35.4769C60.3274 35.4609 60.1922 35.5654 60.2043 35.7896C60.2164 36.0137 60.2315 36.2279 60.2537 36.446C60.2759 36.6641 60.3324 36.8974 60.3354 37.1235C60.3354 37.5528 60.403 37.6322 60.8397 37.6543C60.9224 37.6593 61.0051 37.6603 61.0878 37.6603L65.6164 37.6593ZM14.862 38.4887C14.862 38.2313 14.8711 37.975 14.862 37.7186C14.8529 37.4623 14.7137 37.3356 14.4646 37.3165C14.3002 37.3015 14.1338 37.2984 13.9684 37.2984H4.61165C4.53816 37.2947 4.4645 37.3011 4.39278 37.3175C4.31943 37.345 4.24857 37.3786 4.18098 37.4181C4.24956 37.4643 4.3121 37.5387 4.3827 37.5548C4.88699 37.6623 5.39129 37.7609 5.89559 37.8564C6.22742 37.9197 6.56025 37.971 6.89309 38.0272C7.32779 38.1006 7.76451 38.166 8.1972 38.2514C8.52701 38.3157 8.84976 38.4163 9.17856 38.4846C9.50736 38.553 9.84625 38.5972 10.1791 38.6616C10.4383 38.7118 10.6935 38.7852 10.9527 38.8345C11.6587 38.9661 12.3566 39.0918 13.0586 39.2164C13.573 39.3079 14.0874 39.3994 14.6028 39.4838C14.7702 39.511 14.867 39.4366 14.866 39.2567C14.861 39.0023 14.862 38.745 14.862 38.4887V38.4887ZM37.4182 65.594H37.4313C37.4313 67.0636 37.4313 68.5329 37.4313 70.0019C37.4313 70.1849 37.4474 70.3678 37.4646 70.5508C37.4646 70.588 37.5089 70.6212 37.5331 70.6513C37.5644 70.6222 37.6138 70.599 37.6259 70.5639C37.6861 70.4101 37.7349 70.2522 37.7722 70.0914C37.8821 69.5375 37.982 68.9856 38.0838 68.4257C38.1171 68.2458 38.1353 68.0638 38.1736 67.8849C38.2553 67.5039 38.3562 67.1269 38.4288 66.745C38.5054 66.3429 38.5488 65.9307 38.6244 65.5256C38.7253 64.9637 38.8504 64.4038 38.9643 63.8428C38.9754 63.7885 38.9845 63.7343 38.9956 63.681C39.1066 63.1372 39.2215 62.5933 39.3274 62.0485C39.39 61.7268 39.4394 61.4021 39.4928 61.0784C39.5362 60.8201 39.5887 60.5617 39.6088 60.3014C39.6088 60.2481 39.508 60.1516 39.4323 60.1335C39.3064 60.1073 39.1772 60.1002 39.0491 60.1124C38.6718 60.1325 38.2956 60.1677 37.9194 60.1848C37.6088 60.1998 37.5039 60.2692 37.4585 60.5788C37.4287 60.8064 37.4156 61.0359 37.4192 61.2654C37.4165 62.7096 37.4161 64.1524 37.4182 65.594ZM43.8389 51.9036C43.5444 51.9036 43.2499 51.8966 42.9553 51.9036C42.6911 51.9116 42.6023 52.0493 42.7153 52.2806C43.106 53.0847 43.5 53.8889 43.8974 54.6931C44.3008 55.5114 44.7204 56.3256 45.1309 57.1429C45.2408 57.36 45.3921 57.4445 45.6221 57.344C46.0971 57.1329 46.5681 56.9107 47.0291 56.6704C47.2903 56.5337 47.3145 56.4231 47.1834 56.1578C46.9171 55.6179 46.6407 55.0822 46.3674 54.5494C46.0063 53.8457 45.6342 53.142 45.2852 52.4283C45.1087 52.0684 44.8656 51.8694 44.446 51.9126C44.2453 51.9207 44.0416 51.9036 43.8389 51.9036V51.9036ZM30.9733 51.9217C30.7525 51.9068 30.5309 51.9099 30.3106 51.9307C30.1734 51.9538 29.9949 52.0313 29.9314 52.1418C29.6762 52.5841 29.4583 53.0465 29.2254 53.5029C29.0357 53.8779 28.8522 54.2548 28.6626 54.6288C28.3741 55.1978 28.0746 55.7607 27.8012 56.3377C27.773 56.398 27.8607 56.5719 27.9384 56.6121C28.366 56.8343 28.8098 57.0253 29.2415 57.2404C29.6117 57.4244 29.7569 57.3912 29.9475 57.0283C30.1492 56.6413 30.351 56.2492 30.5476 55.8582C30.7322 55.4923 30.9117 55.1244 31.0973 54.7595C31.5007 53.9553 31.9193 53.1511 32.3228 52.3389C32.4377 52.1076 32.3661 52.0071 32.0958 51.989C31.7156 51.9619 31.3303 51.9448 30.9733 51.9217V51.9217ZM35.4897 55.5405C35.4897 56.4955 35.4897 57.4505 35.4897 58.4055C35.4897 58.7221 35.5392 58.7623 35.8579 58.7825C36.1766 58.8026 36.5003 58.8317 36.8211 58.8598C37.2104 58.893 37.3607 58.7764 37.3657 58.3934C37.3899 56.7589 37.4088 55.1244 37.4222 53.4899C37.4166 53.1874 37.3953 52.8854 37.3587 52.5851C37.3375 52.358 37.2124 52.2434 36.9744 52.2454C36.6436 52.2454 36.3117 52.2313 35.9799 52.2373C35.5845 52.2444 35.4887 52.3429 35.4877 52.7309C35.4877 53.6668 35.4897 54.6037 35.4897 55.5405V55.5405ZM37.6723 9.64729H37.7187C37.7187 8.42593 37.7187 7.20556 37.7187 5.9842C37.7187 5.5439 37.7026 5.10361 37.6885 4.66432C37.6883 4.58174 37.6693 4.50028 37.633 4.42607C37.6199 4.40094 37.5009 4.39592 37.4726 4.42607C37.4389 4.48023 37.4201 4.5423 37.4182 4.60601C37.3546 4.96388 37.3002 5.32375 37.2275 5.68061C37.0863 6.37624 36.93 7.06785 36.7898 7.76347C36.6698 8.36662 36.5639 8.96272 36.4529 9.56285C36.342 10.163 36.225 10.7802 36.1151 11.3894C36.0505 11.7482 35.99 12.1071 35.9295 12.467C35.8125 13.1707 35.6985 13.8834 35.5785 14.5901C35.5503 14.7559 35.6098 14.8444 35.7732 14.8454C36.2341 14.8454 36.695 14.8605 37.1549 14.8353C37.5493 14.8132 37.6723 14.6514 37.6733 14.2493L37.6723 9.64729ZM33.4009 50.6199H33.4695C33.4352 50.0268 33.4019 49.4337 33.3687 48.8406C33.3586 48.6818 33.2678 48.6175 33.1074 48.6325C32.9471 48.6476 32.9249 48.7471 32.936 48.8848C32.9632 49.2226 32.9995 49.5614 33.0005 49.9001C33.0005 50.6712 32.9894 51.4412 32.9743 52.2122C32.9743 52.4243 33.0157 52.567 33.2618 52.5872C33.4635 52.6042 33.5058 52.7219 33.4231 52.8988C33.3303 53.0998 33.2466 53.3009 33.1498 53.4929C32.7612 54.2803 32.3705 55.0664 31.9778 55.8512C31.6752 56.4543 31.3727 57.0524 31.0812 57.6606C31.0539 57.7179 31.1336 57.8828 31.2022 57.9149C31.4099 58.007 31.6265 58.0774 31.8487 58.125C32.4115 58.2487 32.9793 58.3522 33.5431 58.4728C33.8598 58.5402 33.8679 58.5442 33.9516 58.2406C33.9829 58.135 34.0008 58.026 34.0051 57.9159C34.0121 56.1638 34.0121 54.4117 34.0192 52.6595C34.0192 52.4394 33.9274 52.3087 33.7166 52.2745C33.5058 52.2403 33.409 52.0986 33.409 51.8885L33.4009 50.6199ZM37.4726 26.4941C37.4323 25.7502 37.4111 25.1873 37.3718 24.6324C37.3455 24.2796 37.2154 24.2152 36.9018 24.358C36.81 24.4002 36.7122 24.4263 36.6173 24.4585C35.7853 24.7601 35.3465 25.511 35.2971 26.3162C35.2517 27.043 35.5946 27.618 36.1473 28.0764C36.3823 28.2714 36.6254 28.4443 36.9542 28.4604C37.168 28.4704 37.3123 28.4222 37.3314 28.1749C37.3748 27.5547 37.4333 26.9344 37.4726 26.4931V26.4941ZM35.0339 36.7375V36.7878C35.4484 36.7878 35.8619 36.7928 36.2754 36.7878C36.5421 36.7855 36.8084 36.769 37.0732 36.7385C37.1489 36.7295 37.2144 36.638 37.284 36.5777C37.2164 36.5073 37.16 36.4108 37.0773 36.3716C36.9794 36.3415 36.8767 36.3303 36.7747 36.3384C36.3793 36.3264 35.9839 36.3063 35.5886 36.3073C34.7605 36.3073 33.9325 36.3234 33.1054 36.3264C32.6959 36.3264 32.4408 36.5586 32.2451 36.8762C32.1725 36.9939 32.1654 37.1467 32.3187 37.1999C32.3673 37.2088 32.4174 37.2052 32.4642 37.1894C32.511 37.1735 32.5529 37.146 32.586 37.1095C32.7343 36.7767 33.0136 36.7405 33.3192 36.7395L35.0339 36.7375ZM35.9335 45.8983V45.9596C36.2825 45.9596 36.6325 45.9656 36.9814 45.9596C37.0991 45.9558 37.215 45.9302 37.3234 45.8842C37.3526 45.8654 37.3772 45.8401 37.395 45.8103C37.4129 45.7805 37.4235 45.7469 37.4262 45.7123C37.4262 45.3786 37.2033 45.1705 36.8554 45.1745C36.2956 45.1795 35.7348 45.1906 35.174 45.1946C34.7393 45.1946 34.7393 45.1946 34.579 45.6037C34.4781 45.8571 34.4922 45.8882 34.7736 45.8963C35.1589 45.9063 35.5452 45.8983 35.9335 45.8983Z"
            fill="#F1F3EF" />
        <path
            d="M34.7895 10.6002C34.7421 10.8304 34.6886 11.0697 34.6443 11.312C34.5787 11.699 34.5313 12.09 34.4587 12.475C34.4251 12.6732 34.3629 12.8655 34.2741 13.046C34.239 13.0912 34.1952 13.129 34.1454 13.1573C34.0955 13.1856 34.0406 13.2038 33.9836 13.2109C33.6488 13.2702 33.3089 13.2933 32.975 13.3506C32.7239 13.3928 32.4778 13.4652 32.2297 13.5255C31.8121 13.626 31.3895 13.7125 30.979 13.8361C30.4193 14.005 29.8645 14.193 29.3148 14.391C28.8106 14.573 28.3063 14.768 27.807 14.9791C27.3955 15.153 27.0001 15.3591 26.5916 15.5501C26.4306 15.6152 26.2736 15.6901 26.1216 15.7742C25.581 16.117 25.0465 16.4688 24.5079 16.8217C24.2346 17.0036 23.9663 17.1946 23.695 17.3806C23.0838 17.8018 22.4685 18.217 21.8634 18.6462C21.786 18.7125 21.6879 18.7498 21.586 18.7519C21.484 18.7539 21.3845 18.7204 21.3046 18.6573C20.6863 18.228 20.0731 17.7927 19.4558 17.3615C19.2914 17.2469 19.3046 17.1383 19.4407 17.0087C20.2407 16.2382 21.1158 15.5492 22.053 14.9519C22.8155 14.4765 23.5659 13.9799 24.3395 13.5235C24.7711 13.2682 25.2401 13.0741 25.693 12.855C26.0319 12.6922 26.3708 12.5283 26.7127 12.3745C27.0546 12.2207 27.3965 12.0679 27.7455 11.9342C28.3163 11.7151 28.8922 11.506 29.4692 11.3029C29.6869 11.2302 29.9084 11.1694 30.1328 11.121C30.6835 10.9903 31.2372 10.8717 31.7869 10.739C32.1056 10.6626 32.4163 10.552 32.737 10.4877C33.0154 10.4324 33.3028 10.4243 33.5852 10.3871C33.8676 10.3499 34.1672 10.2987 34.4587 10.2725C34.7229 10.2524 34.7905 10.3278 34.7895 10.6002Z"
            fill="#F1F3EF" />
        <path
            d="M10.4268 40.7997C10.4198 40.2599 10.4268 40.2428 10.9694 40.3182C11.384 40.3745 11.7904 40.4821 12.2019 40.5625C12.4087 40.6027 12.6185 40.6339 12.8273 40.663C13.2045 40.7223 13.2479 40.7565 13.3144 41.1395C13.387 41.5617 13.4223 41.9919 13.5161 42.4091C13.6473 42.9751 13.8187 43.531 13.9761 44.0919C14.0346 44.303 14.0769 44.5191 14.1465 44.7272C14.3482 45.3303 14.5439 45.9335 14.7708 46.5366C14.9473 46.996 15.1511 47.4464 15.376 47.8857C15.7001 48.5297 16.0383 49.1663 16.3906 49.7956C16.6539 50.2661 16.9373 50.7265 17.2348 51.1768C17.5001 51.5789 17.7956 51.9629 18.082 52.3519C18.309 52.6615 18.5339 52.9722 18.7749 53.2697C18.899 53.4215 18.8758 53.5381 18.7749 53.6839C18.4098 54.1996 18.0518 54.7203 17.6917 55.24C17.6352 55.3234 17.5828 55.4099 17.5253 55.4933C17.3448 55.7587 17.2227 55.7788 17.0059 55.5436C16.789 55.3083 16.5631 55.0339 16.3604 54.7635C15.7068 53.893 15.0492 53.0254 14.4208 52.1378C14.18 51.7713 13.9627 51.3899 13.7703 50.9959C13.4183 50.3354 13.0643 49.674 12.7375 49.0035C12.5358 48.6014 12.3694 48.1862 12.211 47.767C11.9871 47.177 11.7783 46.5819 11.5776 45.9827C11.4072 45.4801 11.2397 44.9674 11.1036 44.4507C10.9674 43.9341 10.8625 43.4033 10.7566 42.8765C10.6406 42.2965 10.5357 41.7135 10.4339 41.1304C10.4219 41.0206 10.4195 40.91 10.4268 40.7997Z"
            fill="#F1F3EF" />
        <path
            d="M34.1287 64.639C33.5064 64.5325 32.8811 64.438 32.2608 64.3173C31.7051 64.2098 31.1514 64.0811 30.6007 63.9524C30.4242 63.9122 30.2557 63.8408 30.0823 63.7866C29.3581 63.5614 28.6158 63.3845 27.9128 63.103C26.9344 62.718 25.9632 62.2988 25.0292 61.8213C24.2114 61.3887 23.4188 60.9104 22.655 60.3889C21.8683 59.8671 21.1138 59.2972 20.3574 58.7322C19.9903 58.4578 19.6514 58.1532 19.3034 57.8516C19.0725 57.6506 19.0876 57.5219 19.3357 57.349C19.8501 56.9982 20.3635 56.6453 20.8819 56.2995C21.4295 55.9356 21.4326 55.9437 21.9469 56.3397C22.6217 56.8584 23.2813 57.4013 23.9873 57.8737C24.7226 58.3673 25.4922 58.8146 26.2728 59.2338C26.8803 59.5522 27.5049 59.8371 28.1437 60.0873C28.881 60.3889 29.6415 60.6211 30.3798 60.9166C31.0152 61.1719 31.6819 61.2745 32.3466 61.3971C32.87 61.4976 33.3884 61.6072 33.9109 61.7037C34.0713 61.7339 34.1126 61.8173 34.1297 61.9661C34.1862 62.4375 34.2467 62.911 34.3315 63.3734C34.391 63.7021 34.4908 64.0238 34.5766 64.3465C34.6169 64.4983 34.5614 64.5797 34.4101 64.5938C34.3184 64.6018 34.2256 64.5938 34.1338 64.5938L34.1287 64.639Z"
            fill="#F1F3EF" />
        <path
            d="M40.5788 64.6832C40.4113 64.6751 40.3135 64.6611 40.3538 64.457C40.4547 63.9463 40.5112 63.4276 40.611 62.917C40.6813 62.5714 40.7736 62.2306 40.8874 61.8967C40.9136 61.8513 40.9495 61.8122 40.9926 61.7821C41.0356 61.7521 41.0848 61.7318 41.1365 61.7228C41.5702 61.6444 42.012 61.6082 42.4477 61.5217C42.9853 61.4111 43.5158 61.2704 44.0463 61.1297C44.5415 60.999 45.0378 60.8683 45.5219 60.7034C46.0312 60.5295 46.5305 60.3204 47.0267 60.1164C47.5007 59.9214 47.9828 59.7384 48.4387 59.5022C49.1034 59.1554 49.766 58.7985 50.3944 58.3864C51.2789 57.8114 52.1312 57.1891 52.9945 56.583C53.1115 56.4944 53.2211 56.3966 53.3223 56.2904C53.3806 56.2233 53.4632 56.1819 53.5521 56.1753C53.6409 56.1687 53.7287 56.1975 53.7964 56.2553C54.4298 56.6925 55.0642 57.1288 55.6905 57.5761C55.9114 57.734 55.9043 57.8566 55.6905 58.0325C54.693 58.8367 53.7137 59.668 52.6153 60.3385C51.8669 60.7959 51.1115 61.2433 50.3399 61.6604C49.6571 62.0294 48.9561 62.3641 48.2471 62.6878C47.7428 62.913 47.2254 63.0959 46.706 63.2759C46.0416 63.505 45.3726 63.7215 44.6989 63.9252C44.4538 64.0006 44.1946 64.0258 43.9424 64.0821C43.3806 64.2037 42.8219 64.3454 42.2561 64.447C41.6902 64.5485 41.1204 64.6108 40.5788 64.6832Z"
            fill="#F1F3EF" />
        <path
            d="M10.92 34.4003C10.4309 34.4275 10.3946 34.4064 10.4228 34.0405C10.448 33.7128 10.5106 33.3871 10.558 33.0614C10.558 33.0342 10.5741 33.0081 10.5791 32.9809C10.6971 32.3778 10.801 31.7656 10.9372 31.1635C11.0895 30.4899 11.2398 29.8144 11.4486 29.153C11.6442 28.5327 11.9095 27.9336 12.1475 27.3265C12.327 26.8671 12.4854 26.3956 12.7032 25.9533C13.0381 25.2748 13.4193 24.6193 13.7754 23.9499C14.3019 22.9607 14.9574 22.058 15.6282 21.1643C16.1022 20.535 16.5873 19.9138 17.0755 19.2956C17.3307 18.9729 17.5082 18.9719 17.7442 19.3117C18.1779 19.9359 18.5954 20.5712 19.0049 21.2116C19.0225 21.258 19.0287 21.3079 19.0231 21.3572C19.0175 21.4065 19.0002 21.4537 18.9727 21.4951C18.544 22.0429 18.071 22.5596 17.6706 23.1266C17.1663 23.8302 16.7013 24.5671 16.2656 25.316C15.8622 26.0196 15.493 26.7434 15.1481 27.4772C14.8959 28.014 14.7013 28.578 14.4955 29.1359C14.3382 29.5611 14.1849 29.9903 14.0648 30.4266C13.9105 30.9885 13.7905 31.5595 13.6554 32.1265C13.5767 32.4532 13.495 32.7789 13.4193 33.1056C13.3945 33.2122 13.3767 33.3203 13.3659 33.4293C13.3296 33.8314 13.2509 33.961 12.8616 34.0415C12.1808 34.1872 11.4929 34.2978 10.92 34.4003Z"
            fill="#F1F3EF" />
        <path
            d="M64.8122 34.3139C64.789 34.7019 64.7567 34.7371 64.3735 34.6627C63.7633 34.5451 63.1561 34.4144 62.5479 34.2908C62.5031 34.2791 62.4571 34.2724 62.4107 34.2707C61.9064 34.2707 61.9488 34.2114 61.8479 33.749C61.7572 33.3318 61.6462 32.9186 61.5635 32.5014C61.4909 32.1526 61.4627 31.7917 61.3689 31.45C61.1772 30.7775 60.9563 30.113 60.7375 29.4485C60.564 28.9198 60.3956 28.389 60.1878 27.8733C59.9927 27.3909 59.7722 26.9192 59.5272 26.46C59.2074 25.8568 58.8817 25.2537 58.5085 24.6777C57.9598 23.8363 57.3708 23.02 56.7939 22.1987C56.6779 22.0349 56.5286 21.8972 56.3985 21.7424C56.3347 21.6749 56.298 21.5864 56.2954 21.4937C56.2928 21.4011 56.3245 21.3107 56.3844 21.2397C56.8201 20.6175 57.2528 19.9932 57.6956 19.374C57.8327 19.181 57.9326 19.173 58.0909 19.3529C58.336 19.6263 58.5821 19.9008 58.804 20.1913C59.3597 20.9181 59.9235 21.6388 60.441 22.3917C60.7768 22.8793 61.0401 23.4171 61.3285 23.9368C61.7199 24.6405 62.1223 25.3391 62.4834 26.0589C62.7234 26.5384 62.906 27.046 63.0996 27.5476C63.3225 28.1256 63.5343 28.7077 63.7401 29.2917C63.8076 29.4817 63.8409 29.6817 63.8924 29.8768C64.0598 30.5302 64.2524 31.1786 64.3876 31.839C64.552 32.6573 64.671 33.4876 64.8122 34.3139Z"
            fill="#F1F3EF" />
        <path
            d="M40.61 10.6938C40.61 10.3922 40.7108 10.3027 40.967 10.3269C41.3886 10.3681 41.8112 10.3952 42.2288 10.4616C42.5233 10.5078 42.8077 10.6194 43.1002 10.6847C43.5036 10.7732 43.9141 10.8285 44.3105 10.929C44.8148 11.0557 45.311 11.2064 45.8073 11.3582C46.0967 11.4467 46.3812 11.5492 46.6626 11.6598C47.3 11.9131 47.9475 12.1494 48.5678 12.4399C49.4957 12.8741 50.4317 13.3024 51.3142 13.8191C52.237 14.3589 53.1085 14.9892 53.988 15.5993C54.4549 15.923 54.8957 16.2819 55.3445 16.6347C55.516 16.7715 55.6673 16.9363 55.8256 17.0861C55.8523 17.1053 55.874 17.1305 55.889 17.1597C55.9039 17.1889 55.9117 17.2212 55.9117 17.254C55.9117 17.2867 55.9039 17.3191 55.889 17.3482C55.874 17.3774 55.8523 17.4027 55.8256 17.4218C55.5008 17.7033 55.1791 17.9878 54.8402 18.2512C54.5729 18.4582 54.2724 18.6231 54.0051 18.8302C53.8236 18.9719 53.6844 18.9558 53.518 18.8181C53.1932 18.5487 52.8654 18.2803 52.5265 18.029C52.0353 17.6641 51.5441 17.2962 51.0318 16.9614C50.4468 16.5821 49.8517 16.2226 49.2466 15.8828C48.7607 15.6085 48.26 15.3611 47.7468 15.142C47.0246 14.8404 46.2874 14.5629 45.5511 14.2915C45.2172 14.1689 44.8703 14.0794 44.5284 13.9809C44.0241 13.8341 43.5137 13.6793 43.0004 13.5527C42.487 13.426 41.9847 13.3305 41.4683 13.2431C41.1355 13.1837 41.079 13.1606 41.0154 12.8309C40.958 12.5293 40.9358 12.2278 40.8783 11.9362C40.8077 11.5804 40.7149 11.2326 40.6342 10.8747C40.6225 10.8149 40.6144 10.7545 40.61 10.6938V10.6938Z"
            fill="#F1F3EF" />
        <path
            d="M64.7295 40.7434C64.6801 41.2078 64.6529 41.6753 64.5772 42.1357C64.4855 42.6916 64.3685 43.2414 64.2363 43.7933C64.0911 44.3965 63.9418 44.9996 63.7502 45.5877C63.5394 46.2371 63.2933 46.8764 63.0351 47.5097C62.7769 48.143 62.5066 48.7914 62.1959 49.4106C61.7784 50.244 61.3507 51.0753 60.8676 51.8704C60.2312 52.9179 59.5474 53.9382 58.7103 54.8449C58.4369 55.1405 58.1999 55.4682 57.9447 55.7808C57.7571 56.012 57.6926 56.0231 57.5312 55.7919C57.0693 55.1324 56.6174 54.465 56.1696 53.7955C56.0687 53.6507 56.1515 53.521 56.2513 53.3984C56.6396 52.9219 57.0299 52.4484 57.4011 51.9609C57.6381 51.6493 57.8519 51.3186 58.0597 50.9868C58.4631 50.3445 58.8827 49.7122 59.2327 49.0427C59.6523 48.2385 60.0396 47.4172 60.3775 46.5778C60.6891 45.8008 60.9342 44.9946 61.1742 44.1914C61.3316 43.6687 61.4294 43.1279 61.5494 42.5951C61.6563 42.1256 61.7512 41.6532 61.8661 41.1877C61.8805 41.1423 61.9049 41.1007 61.9375 41.0659C61.9702 41.0311 62.0102 41.004 62.0547 40.9867C62.3644 40.9103 62.6801 40.857 62.9948 40.8037C63.499 40.7183 64.0104 40.6449 64.5167 40.5554C64.6882 40.5233 64.7679 40.5615 64.7295 40.7434Z"
            fill="#F1F3EF" />
        <path
            d="M5.36473 34.8145C5.27295 34.8145 5.18117 34.8145 5.08838 34.8145C4.79488 34.8024 4.76966 34.7592 4.70814 34.4647C4.62241 34.0545 4.50642 33.6504 4.40556 33.2423C4.33294 32.9317 4.27444 32.618 4.20384 32.3074C4.18295 32.2485 4.15591 32.1919 4.12315 32.1385C4.09391 32.1898 4.06264 32.2391 4.03642 32.2933C3.79133 32.7738 3.73384 33.2986 3.63298 33.8203C3.56654 34.0931 3.48369 34.3616 3.38486 34.6245C3.3825 34.6336 3.37839 34.6421 3.37276 34.6496C3.10447 34.9834 2.74239 34.7773 2.42468 34.7994C2.22296 34.8135 2.17859 34.5984 2.15135 34.4395C2.06462 33.9369 1.99906 33.4293 1.91333 32.9256C1.80742 32.3054 1.69043 31.6872 1.57343 31.069C1.5341 30.8568 1.47257 30.6488 1.43828 30.4357C1.41407 30.2859 1.50485 30.2205 1.65311 30.2235C1.78221 30.2235 1.91131 30.2235 2.04041 30.2235C2.3914 30.2235 2.4852 30.3241 2.53966 30.6659C2.6264 31.2137 2.72928 31.7586 2.83417 32.3034C2.84527 32.3637 2.90982 32.413 2.94915 32.4672C2.99111 32.4141 3.02508 32.3552 3.05001 32.2923C3.18113 31.7163 3.30115 31.1383 3.43529 30.5623C3.49379 30.309 3.61785 30.2266 3.89017 30.2235H4.16652C4.56391 30.2235 4.56996 30.2235 4.67586 30.6096C4.7979 31.077 4.89977 31.5485 5.01475 32.0169C5.06014 32.2029 5.11561 32.3868 5.1731 32.5688C5.18319 32.603 5.23059 32.6271 5.26085 32.6552C5.28606 32.62 5.32943 32.5879 5.33548 32.5547C5.40508 32.0933 5.46257 31.6299 5.5372 31.1695C5.58158 30.892 5.63806 30.6166 5.71371 30.3452C5.73091 30.3128 5.75617 30.2853 5.78707 30.2654C5.81798 30.2455 5.85349 30.2339 5.89021 30.2316C6.12925 30.2195 6.36929 30.2266 6.60833 30.2316C6.74146 30.2316 6.78685 30.307 6.76264 30.4326C6.71625 30.6739 6.67288 30.9162 6.62447 31.1574C6.49234 31.8269 6.35618 32.4954 6.22103 33.1679C6.19783 33.2845 6.19985 33.4061 6.17867 33.5227C6.11008 33.8977 6.04553 34.2737 5.95779 34.6436C5.93666 34.6849 5.90662 34.721 5.86982 34.7493C5.83303 34.7777 5.79039 34.7975 5.74497 34.8074C5.6172 34.8239 5.48799 34.8263 5.35969 34.8145H5.36473Z"
            fill="#F1F3EF" />
        <path
            d="M40.5353 2.73529C40.5353 2.10198 40.5353 1.46868 40.5353 0.834376C40.5353 0.471484 40.5535 0.482542 40.9025 0.446353C41.3795 0.396091 41.6952 0.498626 41.9111 1.00024C42.139 1.54207 42.5011 2.02961 42.8097 2.53625C42.8618 2.60224 42.9221 2.66135 42.9892 2.71217C43.0296 2.62873 43.1022 2.5463 43.1042 2.46186C43.1163 1.92004 43.1123 1.37821 43.1143 0.836387C43.1143 0.478521 43.1425 0.45138 43.5117 0.449369C43.6589 0.449369 43.8062 0.449369 43.9545 0.449369C44.138 0.449369 44.2177 0.533809 44.2167 0.719779C44.208 2.05541 44.2036 3.38836 44.2036 4.71863C44.2036 4.93576 44.1128 5.0202 43.901 5.00411C43.8647 5.00411 43.8274 5.00411 43.7911 5.00411C43.0235 5.00914 43.0376 5.00411 42.6887 4.31653C42.4315 3.81391 42.1289 3.3334 41.8394 2.84787C41.8072 2.7946 41.7245 2.77248 41.665 2.73629C41.6277 2.79221 41.6014 2.85462 41.5873 2.92025C41.5802 3.49826 41.5873 4.07728 41.5802 4.6553C41.5802 4.982 41.5601 4.99909 41.2383 5.00311C41.1001 5.00311 40.962 4.99507 40.8238 5.00311C40.609 5.01919 40.5293 4.92872 40.5323 4.71561C40.5404 4.05718 40.5353 3.39673 40.5353 2.73529Z"
            fill="#F1F3EF" />
        <path
            d="M70.657 32.5185C70.657 31.8752 70.657 31.2328 70.657 30.5895C70.657 30.2578 70.6923 30.2266 71.0231 30.2256C71.834 30.2256 72.6449 30.2256 73.4558 30.2256C73.7513 30.2256 73.7866 30.2648 73.8028 30.5563C73.8391 31.2308 73.8391 31.2308 73.1623 31.2288C72.8113 31.2288 72.4563 31.2288 72.1114 31.2288C71.8199 31.2348 71.7806 31.2921 71.7836 31.6379C71.7836 31.9486 71.8138 31.9848 72.1023 31.9878C72.5168 31.9928 72.9324 31.9958 73.3459 31.9878C73.5345 31.9878 73.6091 32.0541 73.6091 32.2441C73.6091 33.0382 73.6475 32.8925 72.9727 32.9066C72.6701 32.9136 72.3676 32.9136 72.065 32.9066C71.8633 32.9066 71.7927 32.997 71.7846 33.1921C71.7563 33.8475 71.7715 33.8686 72.4412 33.8676C72.8002 33.8676 73.1603 33.8676 73.5194 33.8676C73.8219 33.8736 73.8734 33.9349 73.8804 34.2254C73.8966 34.8045 73.8643 34.8286 73.2854 34.8215C72.54 34.8125 71.7937 34.8155 71.0473 34.8215C70.7215 34.8215 70.659 34.7703 70.658 34.4396C70.658 33.7972 70.658 33.1539 70.658 32.5115L70.657 32.5185Z"
            fill="#F1F3EF" />
        <path
            d="M41.0912 73.0046C41.1971 72.9966 41.2616 72.9966 41.3252 72.9875C41.5269 72.9563 41.6429 73.0177 41.7034 73.2358C41.8567 73.7867 42.4437 73.8792 42.7432 73.6128C42.9843 73.3986 42.9278 72.9202 42.6303 72.7995C42.3328 72.6789 41.9989 72.5673 41.6832 72.4507C40.8209 72.133 40.5939 71.5611 40.7654 70.8222C40.8092 70.6195 40.9103 70.4334 41.0566 70.286C41.2029 70.1385 41.3885 70.0358 41.5914 69.9899C42.0868 69.8461 42.6142 69.8552 43.1043 70.016C43.2951 70.0835 43.4636 70.2017 43.5918 70.3578C43.72 70.5139 43.8029 70.7019 43.8315 70.9016C43.8487 71.0836 43.7861 71.1811 43.5925 71.1871C43.4366 71.1896 43.2809 71.2017 43.1265 71.2233C43.0413 71.2462 42.9505 71.2346 42.8739 71.1911C42.7972 71.1476 42.7408 71.0758 42.717 70.9911C42.5869 70.6754 42.1038 70.589 41.8607 70.8252C41.7165 70.966 41.7195 71.2112 41.889 71.3027C42.0604 71.3866 42.2386 71.4562 42.4215 71.5108C42.8078 71.6445 43.2203 71.7119 43.5531 71.9813C43.6706 72.0693 43.7681 72.1811 43.8392 72.3092C43.9103 72.4374 43.9534 72.5792 43.9657 72.7251C43.9949 73.1001 44.0191 73.468 43.8305 73.8239C43.7456 73.9914 43.6259 74.1391 43.4793 74.2569C43.3327 74.3748 43.1626 74.4602 42.9803 74.5074C42.5139 74.6279 42.0241 74.6252 41.5592 74.4994C41.0992 74.3878 40.6383 73.8229 40.595 73.3383C40.5687 73.0478 40.595 73.0146 40.8814 73.0046C40.9671 73.0026 41.0498 73.0046 41.0912 73.0046Z"
            fill="#F1F3EF" />
        <path
            d="M39.8666 27.9567V32.7236C39.8666 33.2343 39.5257 33.574 39.0063 33.5801C38.7844 33.5801 38.5635 33.574 38.3426 33.5801C38.3084 33.5864 38.2732 33.5848 38.2396 33.5756C38.2061 33.5663 38.175 33.5496 38.1489 33.5266C38.1228 33.5037 38.1022 33.4751 38.0888 33.4431C38.0754 33.4111 38.0694 33.3765 38.0713 33.3418C38.0633 33.2413 38.0572 33.1408 38.0572 33.0402C38.0572 31.7086 38.0572 30.3767 38.0572 29.0444C38.0572 28.9901 38.0572 28.9348 38.0572 28.8796C38.0395 28.7532 38.0629 28.6246 38.1241 28.5125C38.1853 28.4005 38.281 28.311 38.3971 28.2573C38.6461 28.1191 38.8712 27.942 39.0638 27.7326C39.445 27.3104 39.679 26.7897 39.5681 26.2247C39.4571 25.6598 39.2554 25.1079 38.7552 24.742C38.6117 24.6441 38.4606 24.5577 38.3033 24.4836C38.2276 24.4484 38.1643 24.3911 38.1218 24.3193C38.0794 24.2476 38.0597 24.1647 38.0653 24.0815C38.0653 23.595 38.0653 23.1085 38.0592 22.6209C38.0592 22.4199 38.152 22.3435 38.3477 22.3495C38.6049 22.3576 38.8631 22.3495 39.1213 22.3495C39.3227 22.3607 39.5126 22.4467 39.6535 22.5905C39.7945 22.7344 39.8763 22.9256 39.8828 23.1266C39.8656 24.7349 39.8757 26.3433 39.8757 27.9517L39.8666 27.9567Z"
            fill="#F1F3EF" />
        <path
            d="M40.1057 41.7838C40.6494 41.7838 41.193 41.7657 41.7356 41.7889C42.2782 41.812 42.6524 41.3425 42.6524 40.862C42.6524 40.0629 42.6524 39.2647 42.6524 38.4655C42.6524 38.0584 42.6837 38.0363 43.0992 38.0333C43.4583 38.0333 43.8173 38.0182 44.1764 38.0222C44.5355 38.0262 44.6656 38.2283 44.5798 38.5872C44.4437 39.1903 44.3388 39.7985 44.2167 40.4047C44.1451 40.7605 44.0604 41.1133 43.9898 41.4692C43.9283 41.7828 43.8647 42.0965 43.8284 42.4131C43.8012 42.6514 43.6943 42.7509 43.4553 42.7489C42.8844 42.7489 42.3135 42.7489 41.7406 42.7539C41.3705 42.7539 41.2989 42.8253 41.2878 43.1811C41.2676 43.8727 41.3544 43.9692 42.0463 43.8496C42.7835 43.724 42.9106 43.8928 42.835 44.5593C42.8314 44.6236 42.8314 44.688 42.835 44.7523C42.835 45.1393 42.835 45.1434 42.4568 45.1976C42.3085 45.2188 42.2117 45.2821 42.2046 45.4359C42.1915 45.6882 42.1854 45.9385 42.1784 46.1938C42.1733 46.4039 42.1784 46.615 42.1632 46.8261C42.1481 47.0372 42.0251 47.1428 41.7991 47.1388C41.3201 47.1297 40.841 47.1388 40.3619 47.1337C39.7446 47.1337 39.1274 47.1337 38.5101 47.1337C38.2075 47.1337 38.1148 47.0332 38.1117 46.7316C38.1117 46.612 38.1178 46.4934 38.1218 46.3738C38.1349 46.0219 38.1803 45.9566 38.5414 45.9415C38.9448 45.9244 39.3483 45.9415 39.7517 45.9486C39.853 45.9534 39.9544 45.9469 40.0543 45.9295C40.0884 45.9223 40.1207 45.9084 40.1493 45.8886C40.1779 45.8687 40.2022 45.8433 40.2207 45.8139C40.3095 45.5897 40.0301 45.1876 39.787 45.1846C39.3543 45.1775 38.9206 45.1846 38.4879 45.1785C38.1087 45.1785 38.0482 45.1202 38.0472 44.7503C38.0472 43.8878 38.0472 43.0246 38.0472 42.1608C38.0472 41.822 38.0926 41.7828 38.4335 41.7818L40.1057 41.7838Z"
            fill="#F1F3EF" />
        <path
            d="M40.1693 38.0353C40.7311 38.0353 41.2928 38.0302 41.8556 38.0353C42.1522 38.0353 42.1945 38.0825 42.1955 38.374C42.1955 39.2003 42.2006 40.0276 42.1955 40.8539C42.1955 41.2319 42.0735 41.3475 41.6912 41.3495C40.6154 41.3549 39.5375 41.3549 38.4577 41.3495C38.1551 41.3495 38.0774 41.2842 38.0734 40.9776C38.0613 40.1064 38.0589 39.2352 38.0663 38.364C38.0663 38.0966 38.1672 38.0262 38.4587 38.0252H40.1733L40.1693 38.0353Z"
            fill="#F1F3EF" />
    </g>
    <path
        d="M99.568 49.232C97.1573 49.232 95.056 48.784 93.264 47.888C91.472 46.992 90.0746 45.6907 89.072 43.984C88.0906 42.2773 87.6 40.2293 87.6 37.84C87.6 35.4507 88.0906 33.3707 89.072 31.6C90.0746 29.8293 91.472 28.4533 93.264 27.472C95.0773 26.4907 97.2 26 99.632 26C100.443 26 101.307 26.064 102.224 26.192C103.141 26.2987 103.931 26.448 104.592 26.64C104.997 26.7467 105.371 26.8427 105.712 26.928C106.053 27.0133 106.395 27.056 106.736 27.056C106.992 27.056 107.248 27.024 107.504 26.96C107.547 27.8987 107.589 28.8693 107.632 29.872C107.675 30.8747 107.739 31.92 107.824 33.008C107.376 33.072 107.003 33.0933 106.704 33.072C106.277 31.1093 105.499 29.6587 104.368 28.72C103.237 27.76 101.733 27.28 99.856 27.28C98.3626 27.28 97.0826 27.5573 96.016 28.112C94.9706 28.6453 94.1173 29.3813 93.456 30.32C92.816 31.2587 92.3466 32.3467 92.048 33.584C91.7493 34.8 91.6 36.1013 91.6 37.488C91.6 39.5147 91.9093 41.3067 92.528 42.864C93.1466 44.4213 94.0853 45.648 95.344 46.544C96.624 47.4187 98.224 47.856 100.144 47.856C100.741 47.856 101.403 47.8027 102.128 47.696C102.853 47.568 103.547 47.376 104.208 47.12V43.088C104.208 42.4267 104.176 41.9147 104.112 41.552C104.069 41.168 103.931 40.8907 103.696 40.72C103.483 40.5493 103.131 40.432 102.64 40.368C102.171 40.2827 101.52 40.208 100.688 40.144C100.624 39.8027 100.624 39.4613 100.688 39.12C101.136 39.12 101.68 39.1307 102.32 39.152C102.96 39.152 103.6 39.1627 104.24 39.184C104.901 39.184 105.445 39.184 105.872 39.184C106.533 39.184 107.291 39.1733 108.144 39.152C109.019 39.1307 109.765 39.12 110.384 39.12C110.427 39.44 110.427 39.7707 110.384 40.112C109.509 40.2187 108.88 40.3253 108.496 40.432C108.112 40.5387 107.877 40.752 107.792 41.072C107.707 41.392 107.664 41.936 107.664 42.704V43.728C107.664 44.7307 107.685 45.5733 107.728 46.256C107.792 46.9387 107.845 47.4293 107.888 47.728C104.923 48.7307 102.149 49.232 99.568 49.232Z"
        fill="#F1F3EF" />
    <path
        d="M112.595 48.784C112.552 48.464 112.552 48.1227 112.595 47.76C113.597 47.6533 114.312 47.5573 114.739 47.472C115.165 47.3653 115.432 47.152 115.539 46.832C115.645 46.4907 115.699 45.9467 115.699 45.2V30.32C115.699 29.424 115.645 28.784 115.539 28.4C115.432 28.016 115.155 27.7707 114.707 27.664C114.28 27.536 113.576 27.4293 112.595 27.344C112.552 27.024 112.552 26.6827 112.595 26.32C113.149 26.32 113.629 26.3307 114.035 26.352C114.461 26.352 114.888 26.352 115.315 26.352C115.741 26.352 116.253 26.3627 116.851 26.384C117.448 26.384 118.205 26.384 119.123 26.384C120.808 26.384 122.387 26.384 123.859 26.384C125.331 26.3627 126.557 26.352 127.539 26.352C128.52 26.3307 129.096 26.32 129.267 26.32C129.352 27.1093 129.448 27.92 129.555 28.752C129.683 29.584 129.821 30.4693 129.971 31.408C129.608 31.4507 129.256 31.4507 128.915 31.408C128.659 30.768 128.36 30.2027 128.019 29.712C127.677 29.2213 127.325 28.848 126.963 28.592C126.557 28.2933 126.067 28.0693 125.491 27.92C124.936 27.7707 124.243 27.696 123.411 27.696H119.219V36.432H120.979C122.003 36.432 122.781 36.368 123.315 36.24C123.848 36.0907 124.243 35.7813 124.499 35.312C124.755 34.8213 124.957 34.0533 125.107 33.008C125.491 32.944 125.853 32.944 126.195 33.008C126.173 34.16 126.152 34.992 126.131 35.504C126.131 36.016 126.131 36.368 126.131 36.56C126.131 36.752 126.131 36.9547 126.131 37.168L126.195 41.392C125.875 41.456 125.512 41.456 125.107 41.392C124.979 40.2613 124.787 39.4507 124.531 38.96C124.275 38.4693 123.891 38.16 123.379 38.032C122.888 37.904 122.184 37.84 121.267 37.84H119.219V44.784C119.219 45.5093 119.219 46.096 119.219 46.544C119.24 46.9707 119.261 47.248 119.283 47.376H123.667C124.733 47.376 125.587 47.2907 126.227 47.12C126.888 46.928 127.432 46.6507 127.859 46.288C128.157 46.0533 128.509 45.648 128.915 45.072C129.32 44.4747 129.704 43.792 130.067 43.024C130.408 42.9813 130.739 42.9813 131.059 43.024C130.845 44.2187 130.664 45.296 130.515 46.256C130.365 47.216 130.237 48.048 130.131 48.752C129.171 48.752 128.125 48.752 126.995 48.752C125.864 48.752 124.733 48.752 123.603 48.752C122.472 48.7307 121.437 48.72 120.499 48.72C119.581 48.72 118.845 48.72 118.291 48.72C117.288 48.72 116.467 48.7307 115.827 48.752C115.208 48.752 114.653 48.752 114.163 48.752C113.693 48.7733 113.171 48.784 112.595 48.784Z"
        fill="#F1F3EF" />
    <path
        d="M156.391 37.424C156.391 39.728 155.922 41.7653 154.983 43.536C154.045 45.3067 152.722 46.704 151.015 47.728C149.309 48.7307 147.293 49.232 144.967 49.232C142.663 49.232 140.69 48.7413 139.047 47.76C137.405 46.7787 136.135 45.424 135.239 43.696C134.365 41.968 133.927 40.0053 133.927 37.808C133.927 35.5253 134.397 33.4987 135.335 31.728C136.274 29.936 137.597 28.5387 139.303 27.536C141.031 26.512 143.047 26 145.351 26C147.634 26 149.597 26.4907 151.239 27.472C152.882 28.4533 154.151 29.808 155.047 31.536C155.943 33.2427 156.391 35.2053 156.391 37.424ZM152.423 37.744C152.423 36.4427 152.295 35.1733 152.039 33.936C151.783 32.6987 151.367 31.5787 150.791 30.576C150.237 29.5733 149.501 28.784 148.583 28.208C147.666 27.6107 146.546 27.312 145.223 27.312C143.879 27.312 142.738 27.6107 141.799 28.208C140.882 28.8053 140.135 29.5947 139.559 30.576C139.005 31.5573 138.589 32.656 138.311 33.872C138.055 35.088 137.927 36.3253 137.927 37.584C137.927 38.8213 138.055 40.0587 138.311 41.296C138.589 42.512 139.015 43.6213 139.591 44.624C140.167 45.6267 140.925 46.4373 141.863 47.056C142.823 47.6533 143.975 47.952 145.319 47.952C146.642 47.952 147.751 47.664 148.647 47.088C149.565 46.512 150.301 45.744 150.855 44.784C151.41 43.8027 151.805 42.704 152.039 41.488C152.295 40.272 152.423 39.024 152.423 37.744Z"
        fill="#F1F3EF" />
    <path
        d="M167.375 48.976L160.911 30.672C160.633 29.904 160.399 29.3067 160.207 28.88C160.015 28.4533 159.801 28.144 159.567 27.952C159.332 27.76 159.023 27.632 158.639 27.568C158.276 27.4827 157.775 27.408 157.135 27.344C157.092 27.0027 157.092 26.6613 157.135 26.32C157.839 26.32 158.596 26.3307 159.407 26.352C160.239 26.3733 161.017 26.384 161.743 26.384C162.361 26.384 163.108 26.3733 163.983 26.352C164.879 26.3307 165.657 26.32 166.319 26.32C166.383 26.64 166.383 26.9813 166.319 27.344C165.444 27.4293 164.825 27.5253 164.463 27.632C164.1 27.7387 163.919 27.984 163.919 28.368C163.919 28.5173 163.951 28.7093 164.015 28.944C164.079 29.1573 164.164 29.4347 164.271 29.776L169.327 44.432L173.327 35.152L171.791 30.704C171.535 29.936 171.311 29.3387 171.119 28.912C170.948 28.464 170.756 28.144 170.543 27.952C170.329 27.76 170.052 27.632 169.711 27.568C169.391 27.4827 168.943 27.408 168.367 27.344C168.324 27.0027 168.324 26.6613 168.367 26.32C169.113 26.32 169.871 26.3307 170.639 26.352C171.407 26.3733 172.153 26.384 172.879 26.384C173.519 26.384 174.297 26.3733 175.215 26.352C176.132 26.3307 176.943 26.32 177.647 26.32C177.711 26.64 177.711 26.9813 177.647 27.344C176.601 27.4293 175.865 27.5253 175.439 27.632C175.033 27.7387 174.831 27.9947 174.831 28.4C174.831 28.6987 174.937 29.1573 175.151 29.776L180.015 44.496L185.231 30.288C185.401 29.8613 185.529 29.5093 185.615 29.232C185.721 28.9547 185.775 28.7093 185.775 28.496C185.775 28.0907 185.561 27.824 185.135 27.696C184.708 27.5467 183.972 27.4293 182.927 27.344C182.863 26.9813 182.863 26.64 182.927 26.32C183.225 26.32 183.663 26.3307 184.239 26.352C184.815 26.352 185.391 26.3627 185.967 26.384C186.564 26.384 187.012 26.384 187.311 26.384C187.972 26.384 188.58 26.3733 189.135 26.352C189.689 26.3307 190.287 26.32 190.927 26.32C190.991 26.6613 190.991 27.0027 190.927 27.344C190.308 27.408 189.796 27.4827 189.391 27.568C189.007 27.6533 188.676 27.8133 188.399 28.048C188.121 28.2613 187.855 28.6133 187.599 29.104C187.364 29.5733 187.087 30.224 186.767 31.056L179.791 48.784C179.577 48.848 179.289 48.9013 178.927 48.944C178.585 48.9867 178.308 49.0187 178.095 49.04L173.999 37.168L169.103 48.72C168.868 48.784 168.58 48.8373 168.239 48.88C167.897 48.9227 167.609 48.9547 167.375 48.976Z"
        fill="#F1F3EF" />
    <path
        d="M213.813 37.424C213.813 39.728 213.343 41.7653 212.405 43.536C211.466 45.3067 210.143 46.704 208.437 47.728C206.73 48.7307 204.714 49.232 202.389 49.232C200.085 49.232 198.111 48.7413 196.469 47.76C194.826 46.7787 193.557 45.424 192.661 43.696C191.786 41.968 191.349 40.0053 191.349 37.808C191.349 35.5253 191.818 33.4987 192.757 31.728C193.695 29.936 195.018 28.5387 196.725 27.536C198.453 26.512 200.469 26 202.773 26C205.055 26 207.018 26.4907 208.661 27.472C210.303 28.4533 211.573 29.808 212.469 31.536C213.365 33.2427 213.813 35.2053 213.813 37.424ZM209.845 37.744C209.845 36.4427 209.717 35.1733 209.461 33.936C209.205 32.6987 208.789 31.5787 208.213 30.576C207.658 29.5733 206.922 28.784 206.005 28.208C205.087 27.6107 203.967 27.312 202.645 27.312C201.301 27.312 200.159 27.6107 199.221 28.208C198.303 28.8053 197.557 29.5947 196.981 30.576C196.426 31.5573 196.01 32.656 195.733 33.872C195.477 35.088 195.349 36.3253 195.349 37.584C195.349 38.8213 195.477 40.0587 195.733 41.296C196.01 42.512 196.437 43.6213 197.013 44.624C197.589 45.6267 198.346 46.4373 199.285 47.056C200.245 47.6533 201.397 47.952 202.741 47.952C204.063 47.952 205.173 47.664 206.069 47.088C206.986 46.512 207.722 45.744 208.277 44.784C208.831 43.8027 209.226 42.704 209.461 41.488C209.717 40.272 209.845 39.024 209.845 37.744Z"
        fill="#F1F3EF" />
    <path
        d="M238.637 47.76C238.701 48.1013 238.701 48.4427 238.637 48.784C238.232 48.784 237.73 48.7733 237.133 48.752C236.536 48.752 235.96 48.752 235.405 48.752C234.85 48.7307 234.402 48.72 234.061 48.72C233.72 48.72 233.421 48.7307 233.165 48.752C232.909 48.752 232.61 48.752 232.269 48.752L226.349 40.016C225.986 39.4613 225.666 39.1093 225.389 38.96C225.112 38.7893 224.728 38.6827 224.237 38.64L223.405 38.544V44.784C223.405 45.4453 223.426 45.968 223.469 46.352C223.512 46.736 223.618 47.0133 223.789 47.184C223.981 47.3547 224.28 47.4827 224.685 47.568C225.112 47.632 225.698 47.696 226.445 47.76C226.509 48.1013 226.509 48.4427 226.445 48.784C226.018 48.784 225.506 48.7733 224.909 48.752C224.312 48.752 223.714 48.752 223.117 48.752C222.52 48.7307 222.018 48.72 221.613 48.72C221.229 48.72 220.728 48.7307 220.109 48.752C219.49 48.752 218.872 48.752 218.253 48.752C217.634 48.7733 217.112 48.784 216.685 48.784C216.621 48.464 216.621 48.1227 216.685 47.76C217.709 47.6747 218.445 47.5893 218.893 47.504C219.341 47.3973 219.618 47.184 219.725 46.864C219.832 46.5227 219.885 45.968 219.885 45.2V30.288C219.885 29.4133 219.821 28.784 219.693 28.4C219.586 28.016 219.309 27.76 218.861 27.632C218.413 27.504 217.688 27.408 216.685 27.344C216.621 27.024 216.621 26.6827 216.685 26.32C217.09 26.32 217.613 26.3307 218.253 26.352C218.914 26.352 219.554 26.3627 220.173 26.384C220.813 26.384 221.282 26.384 221.581 26.384C221.965 26.384 222.456 26.384 223.053 26.384C223.672 26.3627 224.28 26.3413 224.877 26.32C225.496 26.2987 225.976 26.288 226.317 26.288C227.661 26.288 228.909 26.4693 230.061 26.832C231.234 27.1947 232.173 27.792 232.877 28.624C233.602 29.4347 233.965 30.5333 233.965 31.92C233.965 33.2853 233.549 34.5013 232.717 35.568C231.906 36.6347 230.616 37.4347 228.845 37.968V38.064C229.165 38.32 229.528 38.7467 229.933 39.344L233.293 44.208C233.848 44.9973 234.306 45.616 234.669 46.064C235.053 46.512 235.416 46.8533 235.757 47.088C236.098 47.3013 236.493 47.4507 236.941 47.536C237.389 47.6213 237.954 47.696 238.637 47.76ZM223.405 27.728V37.232C223.682 37.2747 223.928 37.3067 224.141 37.328C224.354 37.3493 224.557 37.36 224.749 37.36C226.413 37.36 227.725 36.9333 228.685 36.08C229.666 35.2267 230.157 33.968 230.157 32.304C230.157 30.7893 229.73 29.6267 228.877 28.816C228.045 28.0053 226.808 27.6 225.165 27.6C224.952 27.6 224.685 27.6107 224.365 27.632C224.066 27.6533 223.746 27.6853 223.405 27.728Z"
        fill="#F1F3EF" />
    <path
        d="M239.192 48.784C239.15 48.464 239.15 48.1227 239.192 47.76C240.216 47.6533 240.952 47.5573 241.4 47.472C241.848 47.3653 242.126 47.152 242.232 46.832C242.339 46.512 242.392 45.968 242.392 45.2V30.32C242.392 29.424 242.339 28.784 242.232 28.4C242.126 28.016 241.848 27.7707 241.4 27.664C240.952 27.536 240.216 27.4293 239.192 27.344C239.15 27.024 239.15 26.6827 239.192 26.32C239.619 26.32 240.142 26.3307 240.76 26.352C241.4 26.352 242.03 26.3627 242.648 26.384C243.267 26.384 243.768 26.384 244.152 26.384C244.558 26.384 245.048 26.384 245.624 26.384C246.222 26.3627 246.819 26.352 247.416 26.352C248.035 26.3307 248.558 26.32 248.984 26.32C249.048 26.64 249.048 26.9813 248.984 27.344C248.003 27.4293 247.299 27.5253 246.872 27.632C246.446 27.7387 246.179 27.952 246.072 28.272C245.966 28.592 245.912 29.136 245.912 29.904V37.808L253.272 30C254.083 29.1253 254.488 28.528 254.488 28.208C254.488 27.9307 254.296 27.7387 253.912 27.632C253.528 27.504 252.899 27.408 252.024 27.344C251.982 26.9813 251.982 26.64 252.024 26.32C252.387 26.32 252.846 26.3307 253.4 26.352C253.955 26.352 254.51 26.3627 255.064 26.384C255.619 26.384 256.067 26.384 256.408 26.384C257.091 26.384 257.731 26.3733 258.328 26.352C258.947 26.3307 259.619 26.32 260.344 26.32C260.387 26.6613 260.387 27.0027 260.344 27.344C259.683 27.408 259.128 27.4933 258.68 27.6C258.254 27.7067 257.838 27.888 257.432 28.144C257.048 28.4 256.611 28.7627 256.12 29.232C255.63 29.7013 255.011 30.32 254.264 31.088L249.56 35.952L256.152 44.624C256.664 45.2853 257.091 45.8187 257.432 46.224C257.774 46.608 258.104 46.9067 258.424 47.12C258.766 47.312 259.15 47.4507 259.576 47.536C260.024 47.6213 260.59 47.696 261.272 47.76C261.336 48.1013 261.336 48.4427 261.272 48.784C260.867 48.784 260.387 48.7733 259.832 48.752C259.278 48.752 258.734 48.752 258.2 48.752C257.667 48.7307 257.208 48.72 256.824 48.72C256.59 48.72 256.28 48.7307 255.896 48.752C255.534 48.752 255.203 48.752 254.904 48.752L247.224 38.416L245.912 39.856V44.784C245.912 45.68 245.966 46.3307 246.072 46.736C246.179 47.12 246.446 47.3653 246.872 47.472C247.32 47.5787 248.024 47.6747 248.984 47.76C249.048 48.1013 249.048 48.4427 248.984 48.784C248.558 48.784 248.035 48.7733 247.416 48.752C246.819 48.752 246.211 48.752 245.592 48.752C244.995 48.7307 244.494 48.72 244.088 48.72C243.683 48.72 243.182 48.7307 242.584 48.752C241.987 48.752 241.379 48.752 240.76 48.752C240.163 48.7733 239.64 48.784 239.192 48.784Z"
        fill="#F1F3EF" />
    <path
        d="M269.619 49.2C269.598 49.2 269.246 49.1787 268.563 49.136C267.902 49.1147 267.134 49.0293 266.259 48.88C265.534 48.752 264.873 48.6667 264.275 48.624C263.699 48.56 263.347 48.528 263.219 48.528C263.198 46.7573 263.102 44.6133 262.931 42.096C263.102 42.0747 263.273 42.064 263.443 42.064C263.635 42.064 263.806 42.064 263.955 42.064C264.361 43.9413 265.033 45.392 265.971 46.416C266.931 47.44 268.19 47.952 269.747 47.952C271.134 47.952 272.265 47.5787 273.139 46.832C274.014 46.064 274.451 45.0613 274.451 43.824C274.451 42.8853 274.206 42.1173 273.715 41.52C273.246 40.9227 272.617 40.4213 271.827 40.016C271.059 39.5893 270.238 39.1947 269.363 38.832C268.339 38.384 267.358 37.9147 266.419 37.424C265.502 36.912 264.745 36.2613 264.147 35.472C263.55 34.6827 263.251 33.6587 263.251 32.4C263.251 31.056 263.582 29.904 264.243 28.944C264.926 27.984 265.833 27.2587 266.963 26.768C268.094 26.256 269.342 26 270.707 26C271.134 26 271.571 26.0213 272.019 26.064C272.489 26.1067 272.969 26.1707 273.459 26.256C274.078 26.3413 274.547 26.3947 274.867 26.416C275.209 26.4373 275.433 26.448 275.539 26.448C275.603 26.448 275.721 26.448 275.891 26.448C276.062 26.4267 276.201 26.4053 276.307 26.384C276.35 27.3227 276.393 28.2933 276.435 29.296C276.478 30.2987 276.542 31.344 276.627 32.432C276.201 32.496 275.849 32.5173 275.571 32.496C275.081 30.64 274.473 29.3067 273.747 28.496C273.022 27.664 271.987 27.248 270.643 27.248C269.47 27.248 268.467 27.568 267.635 28.208C266.803 28.8267 266.387 29.7547 266.387 30.992C266.387 31.6533 266.537 32.24 266.835 32.752C267.155 33.264 267.678 33.7547 268.403 34.224C269.129 34.6933 270.131 35.1947 271.411 35.728C272.115 36.0267 272.819 36.3573 273.523 36.72C274.249 37.0827 274.91 37.52 275.507 38.032C276.105 38.5227 276.585 39.1307 276.947 39.856C277.31 40.56 277.491 41.4027 277.491 42.384C277.491 43.8347 277.129 45.072 276.403 46.096C275.678 47.0987 274.718 47.8667 273.523 48.4C272.35 48.9333 271.049 49.2 269.619 49.2Z"
        fill="#F1F3EF" />
    <defs>
    </defs>
</svg>