<svg width="15" height="15" viewBox="0 0 15 15" fill="none" xmlns="http://www.w3.org/2000/svg">
<g clip-path="url(#clip0)">
<path d="M7.04409 3.42578C5.04719 3.42578 3.43054 5.04419 3.43054 7.03933C3.43054 9.03623 5.04895 10.6529 7.04409 10.6529C9.04099 10.6529 10.6576 9.03447 10.6576 7.03933C10.6576 5.04243 9.03923 3.42578 7.04409 3.42578ZM7.04409 9.38479C5.74784 9.38479 4.69863 8.335 4.69863 7.03933C4.69863 5.74366 5.74842 4.69387 7.04409 4.69387C8.33976 4.69387 9.38955 5.74366 9.38955 7.03933C9.39014 8.335 8.34034 9.38479 7.04409 9.38479Z" fill="white"/>
<path d="M9.94522 0.0444814C8.64956 -0.0159595 5.44032 -0.0130255 4.14348 0.0444814C3.0039 0.0978808 1.9987 0.373092 1.18832 1.18347C-0.166024 2.53782 0.00708347 4.36278 0.00708347 7.0392C0.00708347 9.77841 -0.145486 11.5611 1.18832 12.8949C2.54795 14.254 4.39932 14.0762 7.04405 14.0762C9.75744 14.0762 10.694 14.0779 11.6534 13.7065C12.9579 13.2001 13.9425 12.0341 14.0388 9.93978C14.0998 8.64353 14.0963 5.43488 14.0388 4.13804C13.9226 1.66583 12.5958 0.166537 9.94522 0.0444814ZM11.9961 11.9989C11.1083 12.8867 9.87657 12.8075 7.02704 12.8075C4.09301 12.8075 2.91647 12.8509 2.05797 11.9901C1.0692 11.006 1.24818 9.42574 1.24818 7.02981C1.24818 3.78771 0.915459 1.45281 4.1693 1.28616C4.91689 1.25976 5.13694 1.25095 7.01882 1.25095L7.04523 1.26856C10.1723 1.26856 12.6257 0.94112 12.773 4.19437C12.8065 4.93668 12.8141 5.15967 12.8141 7.03862C12.8135 9.93861 12.8687 11.1222 11.9961 11.9989Z" fill="white"/>
<path d="M10.8007 4.12754C11.2671 4.12754 11.6452 3.74948 11.6452 3.28313C11.6452 2.81678 11.2671 2.43872 10.8007 2.43872C10.3344 2.43872 9.95633 2.81678 9.95633 3.28313C9.95633 3.74948 10.3344 4.12754 10.8007 4.12754Z" fill="white"/>
</g>
<defs>
<clipPath id="clip0">
<rect width="14.0833" height="14.0833" fill="white"/>
</clipPath>
</defs>
</svg>
