<svg width="24" height="24" viewBox="0 0 24 24" fill="none" xmlns="http://www.w3.org/2000/svg">
<path d="M12.0036 6.86481C9.16774 6.86481 6.8719 9.16314 6.8719 11.9965C6.8719 14.8323 9.17024 17.1281 12.0036 17.1281C14.8394 17.1281 17.1352 14.8298 17.1352 11.9965C17.1352 9.16064 14.8369 6.86481 12.0036 6.86481ZM12.0036 15.3273C10.1627 15.3273 8.67274 13.8365 8.67274 11.9965C8.67274 10.1565 10.1636 8.66564 12.0036 8.66564C13.8436 8.66564 15.3344 10.1565 15.3344 11.9965C15.3352 13.8365 13.8444 15.3273 12.0036 15.3273Z" fill="white"/>
<path d="M16.1235 2.06282C14.2835 1.97699 9.72603 1.98116 7.88436 2.06282C6.26602 2.13866 4.83852 2.52949 3.68769 3.68032C1.76436 5.60366 2.01019 8.19532 2.01019 11.9962C2.01019 15.8862 1.79352 18.4178 3.68769 20.312C5.61852 22.242 8.24769 21.9895 12.0035 21.9895C15.8569 21.9895 17.1869 21.992 18.5494 21.4645C20.4019 20.7453 21.8002 19.0895 21.9369 16.1153C22.0235 14.2745 22.0185 9.71782 21.9369 7.87616C21.7719 4.36532 19.8877 2.23616 16.1235 2.06282ZM19.036 19.0395C17.7752 20.3003 16.026 20.1878 11.9794 20.1878C7.81269 20.1878 6.14186 20.2495 4.92269 19.027C3.51852 17.6295 3.77269 15.3853 3.77269 11.9828C3.77269 7.37866 3.30019 4.06282 7.92102 3.82616C8.98269 3.78866 9.29519 3.77616 11.9677 3.77616L12.0052 3.80116C16.446 3.80116 19.9302 3.33616 20.1394 7.95616C20.1869 9.01032 20.1977 9.32699 20.1977 11.9953C20.1969 16.1137 20.2752 17.7945 19.036 19.0395Z" fill="white"/>
<path d="M17.3385 7.86115C18.0007 7.86115 18.5376 7.32427 18.5376 6.66199C18.5376 5.99971 18.0007 5.46283 17.3385 5.46283C16.6762 5.46283 16.1393 5.99971 16.1393 6.66199C16.1393 7.32427 16.6762 7.86115 17.3385 7.86115Z" fill="white"/>
</svg>
