<svg width="15" height="15" viewBox="0 0 15 15" fill="none" xmlns="http://www.w3.org/2000/svg">
<g clip-path="url(#clip0)">
<path d="M11.6862 7.64471C11.4586 7.35718 11.5237 7.22925 11.6862 6.97223C11.6892 6.9693 13.5687 4.3721 13.7624 3.4913L13.7635 3.49072C13.8598 3.16973 13.7635 2.93384 13.2982 2.93384H11.7584C11.3664 2.93384 11.1857 3.13629 11.0889 3.36279C11.0889 3.36279 10.3049 5.2394 9.19583 6.45584C8.83788 6.80734 8.6724 6.92001 8.47699 6.92001C8.38076 6.92001 8.23112 6.80734 8.23112 6.48636V3.49072C8.23112 3.10577 8.12139 2.93384 7.79689 2.93384H5.37573C5.12985 2.93384 4.98374 3.1134 4.98374 3.28064C4.98374 3.64563 5.53827 3.72955 5.59578 4.75646V6.98456C5.59578 7.47278 5.50717 7.56256 5.31059 7.56256C4.78716 7.56256 3.51673 5.67833 2.76385 3.52182C2.61187 3.10342 2.46341 2.93442 2.06849 2.93442H0.528125C0.0886076 2.93442 0 3.13687 0 3.36338C0 3.76358 0.52343 5.75344 2.43407 8.38233C3.70744 10.1768 5.50072 11.1491 7.13204 11.1491C8.11259 11.1491 8.2323 10.9332 8.2323 10.5617C8.2323 8.84708 8.14369 8.68512 8.63484 8.68512C8.86252 8.68512 9.25451 8.79779 10.1699 9.66332C11.2162 10.6896 11.3881 11.1491 11.9738 11.1491H13.5135C13.9525 11.1491 14.1749 10.9332 14.047 10.5072C13.7541 9.6111 11.7754 7.76794 11.6862 7.64471Z" fill="white"/>
</g>
<defs>
<clipPath id="clip0">
<rect width="14.0833" height="14.0833" fill="white"/>
</clipPath>
</defs>
</svg>
