<svg width="15" height="15" viewBox="0 0 15 15" fill="none" xmlns="http://www.w3.org/2000/svg">
<g clip-path="url(#clip0)">
<path d="M10.2732 8.3956L10.2679 8.43961C8.97753 7.79648 8.84256 7.7108 8.67591 7.96078C8.56031 8.13389 8.22348 8.52646 8.12197 8.64265C8.01927 8.75708 7.91717 8.76588 7.74289 8.68666C7.56685 8.59864 7.00175 8.41379 6.33279 7.81525C5.81171 7.34874 5.46198 6.77661 5.3587 6.60057C5.18676 6.30364 5.54648 6.26139 5.87391 5.64173C5.93259 5.5185 5.90267 5.42167 5.85924 5.33424C5.81523 5.24622 5.46491 4.38361 5.31821 4.03975C5.17737 3.69705 5.03243 3.74048 4.92387 3.74048C4.58587 3.71114 4.33883 3.71583 4.12112 3.94234C3.17402 4.98333 3.41285 6.05718 4.22323 7.19911C5.81582 9.28344 6.66434 9.66721 8.21585 10.2C8.63483 10.3332 9.01684 10.3145 9.31905 10.271C9.65588 10.2176 10.3559 9.84795 10.502 9.43425C10.6517 9.02055 10.6517 8.67727 10.6077 8.59805C10.5643 8.51883 10.4492 8.47482 10.2732 8.3956Z" fill="white"/>
<path d="M12.0412 2.0239C7.5293 -2.33782 0.0622014 0.825645 0.0592674 6.97889C0.0592674 8.20883 0.381424 9.40826 0.995222 10.4674L0 14.0833L3.71741 13.1139C8.35611 15.6196 14.081 12.2924 14.0833 6.98241C14.0833 5.11871 13.3557 3.36475 12.0324 2.04679L12.0412 2.0239ZM12.9109 6.96304C12.9074 11.4421 7.99053 14.2394 4.10177 11.9532L3.89052 11.8277L1.69 12.3998L2.27974 10.2609L2.13949 10.0408C-0.280493 6.18846 2.49979 1.15367 7.08392 1.15367C8.6413 1.15367 10.103 1.76101 11.2039 2.86127C12.3041 3.95215 12.9109 5.41388 12.9109 6.96304Z" fill="white"/>
</g>
<defs>
<clipPath id="clip0">
<rect width="14.0833" height="14.0833" fill="white"/>
</clipPath>
</defs>
</svg>
