<svg width="24" height="24" viewBox="0 0 24 24" fill="none" xmlns="http://www.w3.org/2000/svg">
<path d="M16.5892 13.923L16.5817 13.9855C14.7492 13.0722 14.5575 12.9505 14.3208 13.3055C14.1567 13.5514 13.6783 14.1089 13.5342 14.2739C13.3883 14.4364 13.2433 14.4489 12.9958 14.3364C12.7458 14.2114 11.9433 13.9489 10.9933 13.0989C10.2533 12.4364 9.75667 11.6239 9.61 11.3739C9.36583 10.9522 9.87667 10.8922 10.3417 10.0122C10.425 9.83722 10.3825 9.69971 10.3208 9.57555C10.2583 9.45055 9.76083 8.22555 9.5525 7.73721C9.3525 7.25055 9.14667 7.31222 8.9925 7.31222C8.5125 7.27055 8.16167 7.27721 7.8525 7.59888C6.5075 9.07721 6.84667 10.6022 7.9975 12.2239C10.2592 15.1839 11.4642 15.7289 13.6675 16.4855C14.2625 16.6747 14.805 16.648 15.2342 16.5864C15.7125 16.5105 16.7067 15.9855 16.9142 15.398C17.1267 14.8105 17.1267 14.323 17.0642 14.2105C17.0025 14.098 16.8392 14.0355 16.5892 13.923Z" fill="white"/>
<path d="M19.1 4.87453C12.6925 -1.31964 2.08833 3.17286 2.08417 11.9112C2.08417 13.6579 2.54167 15.3612 3.41333 16.8654L2 22.0004L7.27917 20.6237C13.8667 24.182 21.9967 19.457 22 11.9162C22 9.26953 20.9667 6.77869 19.0875 4.90703L19.1 4.87453ZM20.335 11.8887C20.33 18.2495 13.3475 22.222 7.825 18.9754L7.525 18.797L4.4 19.6095L5.2375 16.572L5.03833 16.2595C1.60167 10.7887 5.55 3.63869 12.06 3.63869C14.2717 3.63869 16.3475 4.50119 17.9108 6.06369C19.4733 7.61286 20.335 9.68869 20.335 11.8887Z" fill="white"/>
</svg>
